<svg width="110" height="86" fill="none" xmlns="http://www.w3.org/2000/svg"><path fill-rule="evenodd" clip-rule="evenodd" d="M20 0C8.954 0 0 8.954 0 20v46c0 11.046 8.954 20 20 20h70c11.046 0 20-8.954 20-20V20c0-11.046-8.954-20-20-20H20zm42.333 29.603c-.11-.314-.273-.6-.477-.84-.859-1.013-2.268-1.013-3.105-.026L48.644 40.658a2.67 2.67 0 00-.477.84 3.006 3.006 0 000 1.982c.11.315.273.6.477.84l10.107 11.922c.412.485.97.758 1.553.758.582 0 1.14-.273 1.552-.758.412-.486.643-1.145.643-1.831 0-.687-.231-1.346-.643-1.831l-8.544-10.078 8.544-10.077a2.67 2.67 0 00.477-.84 3.001 3.001 0 000-1.982z" fill="url(#paint0_linear_535_2202)"/><defs><linearGradient id="paint0_linear_535_2202" x1="26.999" y1=".762" x2="109.633" y2="74.189" gradientUnits="userSpaceOnUse"><stop stop-color="#FD7914"/><stop offset="1" stop-color="#FFB800"/></linearGradient></defs></svg>