<svg width="110" height="86" fill="none" xmlns="http://www.w3.org/2000/svg"><path fill-rule="evenodd" clip-rule="evenodd" d="M90 0c11.046 0 20 8.954 20 20v46c0 11.046-8.954 20-20 20H20C8.954 86 0 77.046 0 66V20C0 8.954 8.954 0 20 0h70zM47.667 29.603c.11-.314.273-.6.477-.84.859-1.013 2.268-1.013 3.105-.026l10.107 11.921c.204.24.366.526.477.84a3.006 3.006 0 010 1.982c-.11.315-.273.6-.477.84L51.249 56.242c-.412.485-.97.758-1.553.758-.582 0-1.14-.273-1.552-.758-.412-.486-.643-1.145-.643-1.831 0-.687.231-1.346.643-1.831l8.544-10.078-8.544-10.077a2.655 2.655 0 01-.477-.84 2.994 2.994 0 01-.167-.991c0-.34.057-.677.167-.991z" fill="url(#paint0_linear_535_2205)"/><defs><linearGradient id="paint0_linear_535_2205" x1="83.001" y1=".762" x2=".367" y2="74.189" gradientUnits="userSpaceOnUse"><stop stop-color="#FD7914"/><stop offset="1" stop-color="#FFB800"/></linearGradient></defs></svg>