<svg width="140" height="116" fill="none" xmlns="http://www.w3.org/2000/svg"><g filter="url(#filter0_d_2034_2148)"><rect x="12.5" y="11.5" width="107" height="83" rx="18.5" stroke="url(#paint0_linear_2034_2148)" stroke-width="3" shape-rendering="crispEdges"/></g><path d="M72.856 38.763c.204.24.366.526.477.84a3.001 3.001 0 010 1.982c-.11.314-.273.6-.477.84l-8.544 10.077 8.544 10.078c.412.485.643 1.144.643 1.83 0 .687-.231 1.346-.643 1.832-.412.485-.97.758-1.552.758-.583 0-1.141-.273-1.553-.758L59.644 54.32a2.657 2.657 0 01-.477-.84 2.994 2.994 0 01-.167-.99c0-.34.057-.678.167-.992.11-.314.273-.6.477-.84l10.107-11.921c.837-.987 2.246-.987 3.105.026z" fill="#FD7914"/><defs><linearGradient id="paint0_linear_2034_2148" x1="37.999" y1="10.762" x2="120.633" y2="84.189" gradientUnits="userSpaceOnUse"><stop stop-color="#FD7914"/><stop offset="1" stop-color="#FFB800"/></linearGradient><filter id="filter0_d_2034_2148" x=".7" y=".7" width="138.6" height="114.6" filterUnits="userSpaceOnUse" color-interpolation-filters="sRGB"><feFlood flood-opacity="0" result="BackgroundImageFix"/><feColorMatrix in="SourceAlpha" values="0 0 0 0 0 0 0 0 0 0 0 0 0 0 0 0 0 0 127 0" result="hardAlpha"/><feOffset dx="4" dy="5"/><feGaussianBlur stdDeviation="7.15"/><feComposite in2="hardAlpha" operator="out"/><feColorMatrix values="0 0 0 0 0.0502638 0 0 0 0 0.211667 0 0 0 0 0.0239889 0 0 0 0.25 0"/><feBlend in2="BackgroundImageFix" result="effect1_dropShadow_2034_2148"/><feBlend in="SourceGraphic" in2="effect1_dropShadow_2034_2148" result="shape"/></filter></defs></svg>