<svg width="140" height="116" fill="none" xmlns="http://www.w3.org/2000/svg"><g filter="url(#filter0_d_535_2173)"><rect x="12.5" y="11.5" width="107" height="83" rx="18.5" stroke="url(#paint0_linear_535_2173)" stroke-width="3" shape-rendering="crispEdges"/></g><path d="M59.644 38.763a2.67 2.67 0 00-.477.84 3.001 3.001 0 000 1.982c.11.314.273.6.477.84l8.544 10.077-8.544 10.078c-.412.485-.643 1.144-.643 1.83 0 .687.231 1.346.643 1.832.412.485.97.758 1.552.758.583 0 1.141-.273 1.553-.758L72.856 54.32a2.66 2.66 0 00.477-.84 3.012 3.012 0 000-1.982c-.11-.314-.273-.6-.477-.84L62.749 38.737c-.837-.987-2.246-.987-3.105.026z" fill="#FD7914"/><defs><linearGradient id="paint0_linear_535_2173" x1="37.999" y1="10.762" x2="120.633" y2="84.189" gradientUnits="userSpaceOnUse"><stop stop-color="#FD7914"/><stop offset="1" stop-color="#FFB800"/></linearGradient><filter id="filter0_d_535_2173" x=".7" y=".7" width="138.6" height="114.6" filterUnits="userSpaceOnUse" color-interpolation-filters="sRGB"><feFlood flood-opacity="0" result="BackgroundImageFix"/><feColorMatrix in="SourceAlpha" values="0 0 0 0 0 0 0 0 0 0 0 0 0 0 0 0 0 0 127 0" result="hardAlpha"/><feOffset dx="4" dy="5"/><feGaussianBlur stdDeviation="7.15"/><feComposite in2="hardAlpha" operator="out"/><feColorMatrix values="0 0 0 0 0.0502638 0 0 0 0 0.211667 0 0 0 0 0.0239889 0 0 0 0.25 0"/><feBlend in2="BackgroundImageFix" result="effect1_dropShadow_535_2173"/><feBlend in="SourceGraphic" in2="effect1_dropShadow_535_2173" result="shape"/></filter></defs></svg>