<svg width="38" height="36" fill="none" xmlns="http://www.w3.org/2000/svg"><path d="M10.787 35.661c-.334.173-.732.195-1.133-.206L.51 26.117c-.809-.825-.62-1.912.317-2.589a16.66 16.66 0 004.15-4.337c.634-.967 1.539-1.032 2.164-.06l2.256 3.5c.627.973 1.348 2.191 1.735 2.054.156-.055.347-.191.574-.46L30.038 1.182c.72-.904 1.735-.806 2.27.218l5.203 9.981c.535 1.024.238 2.442-.663 3.166L13.291 33.478c-.9.724-1.89 1.868-2.504 2.183z" fill="url(#paint0_linear_1007_689)"/><defs><linearGradient id="paint0_linear_1007_689" x1="9.272" y1=".875" x2="41.924" y2="25.209" gradientUnits="userSpaceOnUse"><stop stop-color="#FD7914"/><stop offset="1" stop-color="#FFB800"/></linearGradient></defs></svg>