<svg width="28" height="38" fill="none" xmlns="http://www.w3.org/2000/svg"><g clip-path="url(#clip0_548_2380)" fill="#fff"><path d="M20.837 28.416c.5.357 1.726 1.23 3.276.996.107-.016 1.352-.22 2.196-1.165 2.134-2.382.25-7.822-2.545-9.578-.38-.237-1.141-.702-2.053-.562-.992.151-1.599.932-2.052 1.517-.32.41-1.29 1.695-1.354 3.596-.067 1.973.863 4.009 2.534 5.198l-.002-.002zm-5.414-2.218c1 1 1.673 1.846 1.877 2.103 2.559 3.244 2.732 3.95 2.8 4.316.087.472.261 1.416-.142 2.377-.995 2.389-4.743 3.014-7 2.87-3.176-.206-5.173-2.052-5.88-2.705-.418-.386-.802-.799-1.036-1.393-.467-1.194-.04-2.345.065-2.618.743-1.926 2.277-1.368 3.962-3.639.795-1.072 1.235-2.248 2.466-2.632.144-.045.45-.138.842-.1.783.075 1.262.64 2.044 1.42h.002zM5.67 18.286c.665.463 1.345.943 2.072 1.772.548.623.821.934.986 1.406.363 1.039-.035 2.01-.435 2.984-.329.8-.859 2.095-2.231 3.023-.48.325-1.187.804-2.21.828-1.462.034-2.455-.891-2.663-1.097C.312 26.34.152 25.311.043 24.604c-.136-.89.04-1.747.396-3.427.65-3.058 1.113-3.483 1.48-3.695.667-.388 1.417-.31 1.618-.289.644.068 1.148.411 2.132 1.097l.002-.004zm14.426-11.6c1 .607 1.497 1.406 1.759 1.833a6.05 6.05 0 01.851 2.77c.088 1.56-.455 2.695-.689 3.167-.294.591-.766.995-1.643 1.84-1.03.99-1.546 1.485-2.09 1.566-1.406.208-2.64-1.302-2.806-1.505-.875-1.07-.972-2.222-1.076-3.423-.088-1.027-.225-2.91.86-4.792.463-.806 1.088-1.894 2.273-2.138 1.08-.22 2.004.341 2.564.68l-.003.002zm-9.806 2.13c.86 1.165 1.659 2.244 1.772 3.892.033.492.065 1.912-.796 3.33-.402.663-.791 1.307-1.543 1.596-1.587.611-3.58-.822-4.547-2.07-.15-.194-.868-1.097-1.076-2.495-.044-.304-.412-3.081 1.523-5.126.513-.544 1.2-1.269 2.13-1.246.993.025 1.655.925 2.537 2.117v.002zm-7.468 6.457c.208-.587-.62-.998-.571-2.115.02-.485.011-.973.041-1.458 0-.027.007-.151-.044-.296-.037-.104-.13-.28-.236-.298-.243-.043-.5.736-.56.941-.071.242-.215.782-.24 2.723-.007.528 0 .837.18 1.02.222.224.574.122.71.084.077-.023.567-.163.72-.599v-.002zM9.575 4.776c.351-.517-.343-1.117-.012-2.187.146-.465.262-.94.414-1.402a.747.747 0 00.033-.298C10 .779 9.956.587 9.86.541c-.225-.101-.674.592-.785.775-.132.216-.407.704-.933 2.575-.143.51-.217.81-.088 1.032.158.268.523.257.667.253.078-.003.59-.018.851-.402l.003.002zm14.01 12.478c-.222-.582.595-1.011.519-2.129-.033-.485-.035-.973-.079-1.458a.751.751 0 01.037-.296c.035-.106.12-.282.227-.304.243-.05.518.724.585.928.077.241.234.776.31 2.715.021.528.023.838-.155 1.025-.217.228-.569.135-.708.1-.076-.021-.57-.15-.736-.58zM16.616 4.189c-.41-.474.21-1.149-.248-2.174-.199-.447-.37-.903-.576-1.345a.761.761 0 01-.067-.291c-.002-.111.016-.305.109-.362.21-.126.738.513.87.682.155.201.488.653 1.228 2.454.202.492.31.78.209 1.016-.125.286-.491.316-.632.327-.079.007-.588.047-.893-.305V4.19z"/></g><defs><clipPath id="clip0_548_2380"><path fill="#fff" d="M0 0h27.228v37.883H0z"/></clipPath></defs></svg>