<svg width="32" height="32" fill="none" xmlns="http://www.w3.org/2000/svg"><path d="M30.393 5.032L16 19.362 1.608 5.032A2.818 2.818 0 00.282 6.358l13.73 13.667c1.06 1.06 2.918 1.06 3.976 0l13.73-13.667a2.818 2.818 0 00-1.325-1.326z" fill="#fff"/><path d="M3.977 4.75l12.022 11.96L28.022 4.75H3.977zM0 8.728v15.71a2.81 2.81 0 001.875 2.64V10.602L0 8.728z" fill="#fff"/><path d="M26.375 14.352l-6.998 6.999c-.884.884-2.123 1.371-3.377 1.371a4.655 4.655 0 01-3.315-1.371l-7.06-6.998-1.875-1.875V27.25h24.5V12.477l-1.875 1.875zm3.75-3.75v16.476A2.808 2.808 0 0032 24.438V8.728l-1.875 1.874z" fill="#fff"/></svg>