<svg width="32" height="32" fill="none" xmlns="http://www.w3.org/2000/svg"><path d="M22.507 16a6.505 6.505 0 11-13.01 0 6.505 6.505 0 0113.01 0z" fill="#fff"/><path d="M31.214 4.49a6.046 6.046 0 00-1.46-2.244A6.043 6.043 0 0027.51.786C26.823.519 25.79.2 23.887.114 21.828.02 21.21 0 16 0c-5.211 0-5.828.02-7.886.114C6.21.2 5.177.519 4.49.786a6.039 6.039 0 00-2.244 1.46A6.05 6.05 0 00.786 4.49C.519 5.177.2 6.21.114 8.114.02 10.172 0 10.789 0 16s.02 5.828.114 7.887c.087 1.903.405 2.936.672 3.623a6.05 6.05 0 001.46 2.244 6.042 6.042 0 002.244 1.46c.687.268 1.72.586 3.624.672C10.172 31.98 10.788 32 16 32s5.829-.02 7.886-.114c1.903-.086 2.937-.404 3.624-.672a6.463 6.463 0 003.704-3.704c.267-.687.585-1.72.672-3.623C31.98 21.828 32 21.21 32 16c0-5.211-.02-5.828-.114-7.886-.086-1.903-.404-2.937-.672-3.624zM16 26.02c-5.535 0-10.022-4.486-10.022-10.021 0-5.535 4.487-10.022 10.022-10.022S26.022 10.465 26.022 16 21.535 26.02 16 26.02zM26.418 7.924a2.342 2.342 0 110-4.684 2.342 2.342 0 010 4.684z" fill="#fff"/></svg>