<svg width="82" height="81" fill="none" xmlns="http://www.w3.org/2000/svg"><path d="M46.865 59.633c.526.937 1.82 3.233 4.443 3.978.18.051 2.297.626 4.33-.287 5.13-2.292 6.172-12.423 3.052-17.277-.425-.657-1.285-1.958-2.829-2.393-1.68-.475-3.215.344-4.364.958-.808.43-3.288 1.798-4.795 4.814-1.563 3.13-1.597 7.085.165 10.212l-.002-.005zm-6.915-7.501a42.984 42.984 0 011.411 4.75c1.649 7.08 1.401 8.344 1.237 8.982-.21.824-.632 2.47-1.979 3.728-3.336 3.128-9.722 1.42-13.18-.446-4.87-2.633-6.661-7.054-7.295-8.617-.377-.925-.678-1.87-.61-2.995.144-2.263 1.67-3.808 2.037-4.173 2.596-2.565 4.609-.555 8.948-2.994 2.05-1.151 3.613-2.728 5.842-2.455.26.031.811.103 1.404.45 1.181.687 1.521 1.943 2.18 3.768l.004.002zm-9.568-19.81c.707 1.227 1.427 2.495 1.964 4.356.406 1.401.608 2.1.519 2.98-.193 1.936-1.539 3.212-2.892 4.494-1.11 1.05-2.904 2.754-5.757 3.255-.997.177-2.47.435-4.104-.266-2.336-1.005-3.222-3.215-3.399-3.697-.749-2.025-.241-3.799.109-5.016.441-1.532 1.352-2.787 3.156-5.235 3.287-4.458 4.331-4.807 5.07-4.882 1.34-.143 2.466.527 2.769.706.966.575 1.51 1.493 2.558 3.311l.007-.006zm31.363-8.244c1.13 1.703 1.327 3.351 1.425 4.228.073.69.226 2.722-.7 5.08-1.013 2.577-2.711 4.013-3.429 4.604-.901.74-1.945 1.05-3.955 1.775-2.359.85-3.54 1.273-4.459 1.01-2.377-.684-3.21-4.01-3.324-4.459-.591-2.357.105-4.283.828-6.294.62-1.718 1.794-4.85 4.9-7.098 1.326-.964 3.117-2.265 5.17-1.8 1.87.427 2.914 2.001 3.549 2.953l-.005.001zM44.674 20.41c.5 2.5.964 4.817-.073 7.555-.313.816-1.31 3.128-3.718 4.789-1.126.777-2.215 1.532-3.617 1.453-2.96-.164-5.05-3.917-5.657-6.629-.094-.421-.561-2.396.142-4.799.155-.522 1.625-5.263 6.192-7.158 1.214-.504 2.835-1.174 4.288-.464 1.55.76 1.931 2.69 2.444 5.25l-.001.003zm-16.569 4.994c.762-.794-.244-2.057.659-3.822.39-.767.736-1.56 1.142-2.32.02-.043.123-.238.15-.508.017-.194.001-.545-.154-.651-.352-.245-1.333.824-1.58 1.111-.292.337-.917 1.103-2.39 4.213-.402.846-.62 1.35-.47 1.775.187.52.818.612 1.062.649.137.019 1.016.149 1.579-.443l.002-.004zM46.529 13.38c.937-.578.284-2.049 1.597-3.533.574-.644 1.107-1.324 1.69-1.959.034-.037.18-.2.271-.457.067-.185.14-.526.019-.669-.28-.326-1.5.466-1.812.68-.368.253-1.163.84-3.375 3.475-.604.718-.943 1.148-.901 1.598.05.547.636.794.866.89.126.054.946.399 1.643-.03l.002.005zm12.925 30.257c.079-1.1 1.686-1.2 2.391-3.055.307-.806.664-1.593.953-2.407.016-.045.093-.252.277-.45.133-.146.398-.367.583-.327.42.096.284 1.543.24 1.92-.058.444-.204 1.42-1.516 4.6-.357.866-.582 1.366-1.002 1.54-.512.209-1-.195-1.192-.354-.106-.088-.79-.652-.734-1.467zM58.09 17.534c-.298-1.06 1.18-1.699 1.214-3.682.015-.864.081-1.723.083-2.585 0-.049.003-.268.109-.518.078-.18.25-.48.438-.504.427-.05.788 1.36.872 1.73.097.435.29 1.404.13 4.843-.046.939-.087 1.483-.422 1.788-.409.371-1.008.154-1.24.07-.13-.046-.964-.35-1.186-1.138l.001-.004z" fill="#fff" fill-opacity=".3"/></svg>