<svg width="130" height="143" fill="none" xmlns="http://www.w3.org/2000/svg"><g clip-path="url(#clip0_574_2285)" fill="#fff" fill-opacity=".3"><path d="M69.55 107.826c.777 1.71 2.686 5.902 7.144 7.591.305.117 3.907 1.434 7.585.148 9.278-3.225 12.606-20.714 7.897-29.636-.642-1.207-1.945-3.601-4.57-4.59-2.855-1.078-5.65.12-7.743 1.017-1.472.63-5.997 2.64-9.07 7.668-3.191 5.219-3.84 12.102-1.24 17.811l-.003-.009zM58.627 93.729a75.163 75.163 0 011.75 8.483c1.813 12.578 1.193 14.743.812 15.83-.488 1.403-1.47 4.207-4.004 6.197-6.278 4.949-17.144 1.021-22.89-2.747-8.086-5.312-10.547-13.282-11.416-16.098-.518-1.668-.903-3.357-.614-5.307.587-3.92 3.477-6.383 4.17-6.963 4.904-4.08 8.11-.279 16.032-3.878 3.742-1.7 6.7-4.212 10.541-3.403.449.093 1.398.301 2.38.994 1.953 1.372 2.358 3.61 3.233 6.888l.006.004zM44.924 57.797c1.049 2.242 2.114 4.558 2.77 7.88.498 2.5.744 3.75.458 5.267-.625 3.344-3.16 5.365-5.707 7.395-2.09 1.662-5.47 4.362-10.514 4.809-1.763.159-4.366.389-7.109-1.076-3.918-2.1-5.13-6.081-5.366-6.947-1.003-3.638.147-6.653.939-8.72.997-2.603 2.772-4.653 6.279-8.647 6.39-7.273 8.262-7.724 9.559-7.745 2.355-.05 4.217 1.287 4.718 1.643 1.597 1.146 2.407 2.827 3.96 6.15l.013-.009zm55.857-9.671c1.715 3.134 1.81 6.034 1.85 7.576.025 1.212-.013 4.775-1.978 8.743-2.15 4.337-5.321 6.584-6.66 7.506-1.68 1.155-3.545 1.537-7.153 2.5-4.237 1.13-6.356 1.69-7.918 1.095-4.037-1.547-4.992-7.466-5.122-8.264-.679-4.194.822-7.444 2.381-10.838 1.336-2.9 3.85-8.181 9.595-11.632 2.454-1.48 5.768-3.477 9.273-2.36 3.195 1.021 4.777 3.92 5.741 5.671l-.009.003zm-29.183-8.944c.497 4.43.96 8.535-1.257 13.147-.666 1.376-2.748 5.252-7.19 7.785-2.077 1.187-4.088 2.34-6.518 1.992-5.13-.728-8.21-7.577-8.861-12.39-.101-.75-.619-4.258.964-8.338.35-.887 3.617-8.924 11.855-11.541 2.19-.698 5.113-1.622 7.538-.168 2.587 1.553 2.961 4.973 3.472 9.507l-.003.006zm-29.606 6.224c1.447-1.27-.116-3.619 1.72-6.559.795-1.277 1.515-2.605 2.336-3.869.041-.073.25-.397.335-.863.061-.335.085-.949-.169-1.157-.576-.48-2.445 1.236-2.918 1.7-.558.543-1.761 1.783-4.794 6.98-.825 1.413-1.278 2.257-1.08 3.02.246.936 1.33 1.188 1.75 1.29.237.053 1.748.41 2.817-.536l.003-.006zm33.887-18.187c1.719-.867.8-3.526 3.31-5.915 1.095-1.035 2.125-2.14 3.235-3.16.066-.058.343-.32.541-.754.144-.312.321-.896.133-1.163-.438-.61-2.683.586-3.256.913-.68.387-2.153 1.289-6.4 5.548-1.158 1.16-1.812 1.86-1.807 2.65.005.96.99 1.477 1.376 1.68.211.111 1.588.834 2.865.191l.003.01zm17.988 54.627c.302-1.903 3.117-1.836 4.622-4.963.655-1.357 1.394-2.675 2.019-4.05.035-.076.2-.425.549-.742.254-.234.749-.58 1.065-.482.718.23.264 2.73.131 3.379-.167.765-.568 2.443-3.327 7.786-.752 1.455-1.218 2.293-1.975 2.53-.923.29-1.712-.487-2.024-.792-.17-.169-1.278-1.254-1.06-2.666zm1.525-45.665c-.359-1.892 2.312-2.783 2.665-6.232.156-1.503.4-2.989.531-4.49.008-.085.045-.465.268-.886.162-.302.508-.797.839-.81.749-.026 1.169 2.486 1.259 3.14.103.774.295 2.49-.498 8.456-.219 1.628-.373 2.57-1 3.05-.77.587-1.78.118-2.171-.063-.218-.1-1.626-.752-1.896-2.159l.003-.006z"/></g><defs><clipPath id="clip0_574_2285"><path fill="#fff" transform="rotate(29.527 28.927 109.765)" d="M0 0h82.742v117.386H0z"/></clipPath></defs></svg>