<svg width="92" height="89" fill="none" xmlns="http://www.w3.org/2000/svg"><path d="M75.36 49.68c1.625-.255 5.61-.887 8.078-4.256.17-.23 2.123-2.963 1.897-6.368-.555-8.586-14.541-15.482-23.173-13.591-1.169.259-3.494.8-4.941 2.784-1.578 2.159-1.22 4.799-.952 6.774.187 1.39.828 5.68 4.353 9.45 3.66 3.912 9.32 6.07 14.747 5.208h-.009zm-14.454 5.928c3.8.038 6.693.395 7.57.506 11.042 1.409 12.725 2.438 13.553 3.014 1.07.74 3.208 2.224 4.296 4.827 2.711 6.457-3.144 14.712-7.668 18.681-6.374 5.585-13.676 5.8-16.257 5.876-1.529.048-3.044-.022-4.624-.722-3.171-1.412-4.575-4.427-4.903-5.147-2.298-5.093 1.66-6.91.472-14.44-.56-3.556-1.99-6.64-.409-9.694.184-.356.58-1.109 1.395-1.776 1.615-1.329 3.6-1.147 6.57-1.12l.005-.005zM27.372 58.78c2.138-.361 4.34-.72 7.298-.497 2.228.164 3.34.248 4.555.844 2.676 1.31 3.79 3.921 4.908 6.546.915 2.152 2.405 5.636 1.603 10-.278 1.525-.692 3.776-2.57 5.749-2.687 2.817-6.332 2.91-7.118 2.907-3.305-.004-5.582-1.68-7.142-2.83-1.964-1.45-3.28-3.428-5.832-7.322-4.646-7.094-4.59-8.78-4.305-9.88.51-1.999 2.072-3.258 2.49-3.598 1.34-1.08 2.949-1.372 6.117-1.906l-.005-.013zM32.26 9.367c3.046-.716 5.516-.119 6.827.208 1.029.262 4.028 1.127 6.918 3.713 3.16 2.828 4.315 6.03 4.78 7.376.583 1.688.47 3.352.44 6.623-.037 3.84-.06 5.76-.927 6.94-2.249 3.046-7.469 2.469-8.172 2.393-3.7-.408-6.092-2.434-8.593-4.543-2.137-1.806-6.007-5.162-7.577-10.818-.676-2.417-1.588-5.681.174-8.38 1.609-2.458 4.425-3.117 6.13-3.52v.008zM17.891 31.915c3.856.615 7.43 1.183 10.805 4.133 1.006.883 3.792 3.547 4.892 7.888.516 2.032 1.02 3.998.158 5.968-1.813 4.162-8.314 5.16-12.53 4.585-.656-.09-3.74-.472-6.813-2.762-.667-.502-6.689-5.138-6.973-12.704-.077-2.011-.174-4.696 1.62-6.403 1.916-1.82 4.89-1.338 8.837-.71l.004.005zM16.227 58.36c-.734-1.519-3.082-.748-5.135-2.984-.892-.97-1.845-1.89-2.72-2.877-.052-.052-.277-.304-.65-.485-.27-.13-.781-.293-1.016-.128-.54.375.471 2.353.752 2.86.329.6 1.094 1.905 4.772 5.679 1 1.026 1.607 1.607 2.298 1.618.847.01 1.314-.846 1.497-1.177.1-.187.756-1.379.207-2.502l-.005-.005zM8.79 25.504c-.33-1.654-2.788-1.5-4.22-4.176-.617-1.167-1.31-2.295-1.91-3.47a2.066 2.066 0 00-.51-.633c-.23-.195-.682-.48-.951-.384-.618.227-.132 2.402.01 2.962.167.664.585 2.119 3.187 6.699.71 1.249 1.146 1.964 1.815 2.145.812.22 1.478-.49 1.74-.77.143-.151 1.075-1.144.83-2.373h.01zm50.32-2.42c-1.536-.7-.821-3.06-3.11-5.061-.992-.87-1.932-1.802-2.946-2.65a2.082 2.082 0 01-.498-.638c-.139-.269-.315-.768-.158-1.012.362-.552 2.366.415 2.882.679.608.32 1.93 1.05 5.796 4.628 1.053.975 1.65 1.564 1.675 2.259.028.847-.812 1.331-1.142 1.523-.183.105-1.358.786-2.499.272zM20.917 11.126c-1.68-.14-1.809-2.602-4.638-3.706-1.232-.484-2.43-1.036-3.667-1.498a2.102 2.102 0 01-.685-.432c-.216-.208-.554-.616-.488-.898.153-.64 2.373-.406 2.946-.33.677.094 2.17.334 7.022 2.397 1.323.566 2.082.915 2.341 1.558.315.785-.317 1.53-.56 1.817-.136.16-1.016 1.197-2.267 1.096l-.004-.004z" fill="#fff" fill-opacity=".3"/></svg>