<svg width="729" height="110" fill="none" xmlns="http://www.w3.org/2000/svg"><path d="M95.516 89.352c-8.73 9.037-19.486 14.52-32.27 16.447-7.323 1.139-14.539.922-21.674-.679-6.864-1.52-13.188-4.207-18.89-8.088-5.73-3.854-10.433-8.576-14.135-14.112-3.838-5.808-6.324-12.105-7.432-18.89C.034 57.218.412 50.514 2.223 43.92c1.783-6.433 4.783-12.35 9.026-17.723C20.195 14.825 32.14 7.986 47.06 5.679c7.431-1.195 14.729-.977 21.89.678 6.946 1.601 13.297 4.37 19.08 8.305l-10.702 21.63c-5.026-2.632-10.459-3.5-16.296-2.632-6.567 1.004-11.864 3.908-15.864 8.685-3.946 4.804-5.46 10.069-4.54 15.823.918 5.753 4.053 10.313 9.377 13.651 5.297 3.338 11.216 4.533 17.783 3.555l.054-.054 1.433-11.1-14.865-.163 1.946-21.115 37.54.217 1.62 46.138v.055zm60.754 19.787l-26.323-37.073 1.378 30.94-31.106.57-.838-92.792c11.675-3.393 23.566-4.669 35.647-3.909 10.567.706 19.08 3.339 25.512 7.871 8.054 5.645 12.648 14.167 13.756 25.593.541 3.203.433 6.73-.378 10.64-.73 3.419-2 6.458-3.784 9.091-2.216 3.311-5.189 5.917-8.918 7.87l20.08 20.519-24.999 20.735-.027-.055zm-14.188-69.18c-.027-2.687-.784-4.912-2.271-6.676-1.27-1.439-2.918-2.552-4.999-3.338-2.433-.923-4.865-1.358-7.27-1.276l1.27 22.472c2.216.163 4.459-.217 6.702-1.113 4.433-1.791 6.622-5.13 6.541-10.042l.027-.027zm74.726 66.547l-32.702-10.938L232.158.66l54.673 90.621-24.674 16.04-7.865-15.171-31.863-.787-5.594 15.117-.027.027zm26.323-35.554l-7.703-14.764-5.216 14.221 12.919.57v-.027zm133.507-14.764c-.135 14.33-4.73 25.349-13.756 33.002-7.243 6.107-17.135 9.906-29.648 11.426-8.972 1.113-18.837 1.031-29.593-.271-5.405-.624-9.864-1.385-13.405-2.28l.622-89.02c12.08-3.148 25.269-4.315 39.593-3.5 20.783 1.003 34.701 9.742 41.809 26.244 1.216 2.822 2.189 5.835 2.945 9.037a56.295 56.295 0 011.271 7.871c.324 3.012.405 5.51.216 7.518l-.054-.027zm-30.945-.435c.487-2.795.325-5.618-.432-8.522-.703-2.524-1.892-4.613-3.595-6.242-2.081-1.927-4.864-3.094-8.432-3.447-4.189-.434-8.053-.217-11.648.733l-1.946 31.048c3.784 1.113 7.703 1.385 11.811.842 3.54-.489 6.459-1.71 8.756-3.691 2.919-2.497 4.757-6.053 5.486-10.693v-.028zm101.456 47.522l-65.024.788.216-97.162 66.078-1.954 1 27.14-36.863-.733.432 10.992 19.081.054 1.054 24.698-19.675-1.493.27 11.697 32.647-.108.784 26.081zm39.916-65.543l.378 11.86h20.783l-.487 23.477-19.566-.788 1 30.424-33.377 2.117-4.162-94.366 66.699-1.384-.729 29.311-30.539-.678v.027zm78.698 66.956c-6.864-.57-13.242-2.388-19.134-5.455-5.621-2.931-10.405-6.812-14.35-11.643a44.609 44.609 0 01-8.432-16.338c-1.703-6.243-2.027-12.62-.946-19.161 1.081-6.622 3.432-12.81 7.107-18.564 3.514-5.618 7.973-10.476 13.351-14.602 11.432-8.657 24.134-12.43 38.133-11.317 6.865.57 13.243 2.388 19.135 5.455 5.702 2.931 10.486 6.812 14.404 11.643 3.946 4.858 6.757 10.314 8.378 16.339 1.703 6.215 2.027 12.593.946 19.16a49.451 49.451 0 01-7.026 18.564c-3.541 5.618-8.027 10.477-13.405 14.602-11.432 8.658-24.134 12.43-38.134 11.317h-.027zm-11.81-49.775c-.838 5.32.379 10.015 3.649 14.113 3.351 4.044 7.81 6.324 13.35 6.812 5.568.435 10.649-1.058 15.189-4.505 4.54-3.42 7.27-7.816 8.162-13.163.837-5.32-.406-10.015-3.757-14.113-3.297-4.098-7.729-6.35-13.297-6.812-5.54-.434-10.594 1.059-15.188 4.505-4.513 3.42-7.216 7.817-8.081 13.163h-.027zm73.701 35.824l28.052-35.906-30.431-39.19 35.269-10.368 17.242 21.305L695.299 4.05l32.647 17.234-27.323 33.6L729 90.005l-32.701 16.935-18.567-23.857-14.81 18.239-35.268-10.585z" fill="#fff"/></svg>