<svg width="77" height="71" fill="none" xmlns="http://www.w3.org/2000/svg"><path d="M40.079 60.112c.312 1.14 1.08 3.934 3.682 5.427.179.103 2.285 1.28 4.698.847 6.086-1.08 9.894-11.615 7.856-17.626-.278-.814-.85-2.431-2.381-3.306-1.667-.955-3.523-.489-4.913-.14-.977.245-3.988 1.044-6.398 3.862-2.502 2.924-3.59 7.136-2.543 10.942l-.001-.006zm-5.385-9.847c.276 2.717.252 4.81.243 5.445-.126 7.995-.727 9.279-1.072 9.916-.442.823-1.332 2.468-3.104 3.452-4.393 2.45-10.753-1.073-13.947-3.986-4.496-4.105-5.231-9.3-5.491-11.137-.156-1.088-.227-2.176.146-3.359.756-2.377 2.796-3.62 3.285-3.91 3.453-2.047 5.066.633 10.346-.815 2.494-.683 4.582-1.949 6.888-1.064.27.102.838.326 1.379.854 1.078 1.047 1.106 2.478 1.324 4.602l.003.002zm-4.937-23.687c.429 1.497.86 3.042.937 5.17.06 1.604.09 2.405-.24 3.32-.72 2.015-2.497 3.018-4.282 4.025-1.463.825-3.832 2.166-7.01 1.941-1.112-.076-2.752-.192-4.31-1.376-2.226-1.694-2.582-4.288-2.643-4.85-.26-2.36.754-4.118 1.452-5.324.878-1.518 2.185-2.614 4.761-4.747 4.695-3.883 5.902-3.977 6.71-3.86 1.468.203 2.492 1.219 2.768 1.49.879.87 1.214 1.996 1.848 4.215l.009-.004zm35.667-.45c.754 2.119.524 3.93.395 4.891a11.966 11.966 0 01-2.099 5.236c-1.767 2.48-3.961 3.56-4.885 4-1.159.55-2.355.602-4.693.841-2.744.28-4.117.418-5.028-.108-2.354-1.363-2.358-5.135-2.36-5.643-.004-2.674 1.252-4.544 2.558-6.497 1.119-1.67 3.207-4.7 7.119-6.272 1.672-.675 3.93-1.586 5.996-.544 1.884.953 2.578 2.912 3.003 4.096h-.006zM48.18 17.669c-.131 2.801-.252 5.398-2.089 8.043-.55.788-2.23 2.99-5.241 4.121-1.41.53-2.773 1.046-4.248.589-3.116-.963-4.347-5.525-4.272-8.58.011-.476.039-2.707 1.428-5.084.306-.517 3.136-5.185 8.514-5.991 1.43-.215 3.339-.499 4.7.646 1.453 1.223 1.345 3.385 1.211 6.252l-.002.004zm-19.011.919c1.025-.645.288-2.26 1.72-3.904.623-.714 1.202-1.467 1.838-2.17.033-.042.194-.223.294-.504.071-.202.147-.58.01-.735-.31-.356-1.642.524-1.982.765-.401.282-1.272.933-3.673 3.86-.653.795-1.02 1.275-.972 1.769.06.605.709.87.96.975.14.057 1.044.43 1.802-.052l.003-.004zm22.863-7.928c1.155-.367.849-2.11 2.646-3.345.783-.535 1.533-1.119 2.324-1.641a1.48 1.48 0 00.411-.415c.121-.18.29-.525.199-.71-.212-.422-1.726.098-2.114.244-.461.172-1.466.586-4.528 2.81-.835.605-1.311.974-1.387 1.466-.092.597.468 1.016.688 1.18.12.09.903.677 1.76.405l.001.006zm5.739 35.732c.377-1.153 2.12-.83 3.365-2.624.543-.778 1.133-1.523 1.658-2.315.03-.044.167-.244.415-.406.181-.12.523-.286.71-.194.423.215-.108 1.723-.255 2.112-.18.46-.596 1.462-2.842 4.507-.612.829-.985 1.303-1.48 1.375-.602.088-1.014-.473-1.178-.693-.089-.123-.669-.907-.393-1.762zm5.493-28.22c-.035-1.211 1.713-1.5 2.276-3.607.247-.918.546-1.817.777-2.737a1.51 1.51 0 01.254-.524c.131-.17.395-.444.602-.42.468.059.479 1.662.47 2.077-.013.491-.065 1.576-1.151 5.204-.299.99-.488 1.56-.926 1.796-.535.287-1.117-.104-1.342-.256-.126-.083-.935-.63-.963-1.53l.003-.003z" fill="#fff" fill-opacity=".3"/></svg>