<svg width="193" height="193" fill="none" xmlns="http://www.w3.org/2000/svg"><g clip-path="url(#clip0_574_2254)" fill="#fff" fill-opacity=".3"><path d="M145.314 103.173c2.519-.397 8.695-1.376 12.519-6.597.264-.357 3.291-4.593 2.941-9.87-.86-13.308-22.537-23.995-35.915-21.065-1.812.402-5.416 1.24-7.659 4.315-2.446 3.346-1.891 7.438-1.475 10.5.291 2.153 1.283 8.802 6.748 14.645 5.672 6.064 14.442 9.407 22.854 8.072h-.013zm-22.402 9.187c5.89.059 10.372.613 11.732.784 17.114 2.183 19.722 3.779 21.005 4.671 1.66 1.147 4.973 3.447 6.659 7.482 4.202 10.007-4.874 22.801-11.884 28.953-9.879 8.657-21.197 8.989-25.196 9.108-2.37.073-4.719-.035-7.167-1.119-4.916-2.189-7.091-6.862-7.6-7.978-3.561-7.894 2.573-10.711.732-22.38-.867-5.511-3.083-10.292-.633-15.025.284-.552.899-1.719 2.161-2.752 2.503-2.06 5.579-1.778 10.184-1.737l.007-.007zm-51.974 4.917c3.313-.561 6.728-1.115 11.312-.771 3.453.254 5.176.384 7.058 1.308 4.149 2.029 5.875 6.077 7.608 10.146 1.418 3.335 3.727 8.735 2.484 15.497-.43 2.365-1.073 5.854-3.982 8.911-4.166 4.367-9.814 4.509-11.033 4.506-5.123-.007-8.65-2.603-11.07-4.387-3.043-2.248-5.082-5.312-9.038-11.347-7.201-10.995-7.114-13.607-6.672-15.312.79-3.099 3.212-5.051 3.86-5.578 2.077-1.675 4.57-2.126 9.48-2.953l-.007-.02zm7.575-76.584c4.722-1.11 8.55-.185 10.582.322 1.594.406 6.243 1.747 10.722 5.755 4.897 4.383 6.688 9.346 7.409 11.431.902 2.617.727 5.196.68 10.265-.056 5.952-.091 8.928-1.435 10.756-3.486 4.721-11.576 3.827-12.666 3.709-5.735-.632-9.443-3.772-13.318-7.04-3.312-2.8-9.31-8.001-11.744-16.767-1.047-3.747-2.461-8.806.27-12.987 2.494-3.81 6.859-4.832 9.5-5.458v.014zM56.245 75.639c5.976.953 11.514 1.834 16.747 6.405 1.558 1.37 5.876 5.498 7.581 12.226.8 3.149 1.58 6.196.245 9.249-2.81 6.451-12.886 7.999-19.42 7.107-1.017-.139-5.795-.732-10.559-4.281-1.035-.778-10.367-7.964-10.807-19.69-.12-3.117-.27-7.277 2.51-9.923 2.97-2.822 7.58-2.073 13.697-1.1l.006.007zm-2.58 40.986c-1.138-2.354-4.776-1.159-7.958-4.625-1.383-1.504-2.86-2.927-4.216-4.459-.081-.08-.43-.47-1.008-.751-.417-.201-1.21-.455-1.575-.198-.836.581.73 3.647 1.166 4.433.51.928 1.696 2.951 7.396 8.8 1.551 1.592 2.491 2.491 3.562 2.509 1.312.016 2.036-1.312 2.32-1.824.156-.29 1.17-2.137.32-3.879l-.007-.006zM42.14 65.703c-.512-2.564-4.323-2.325-6.54-6.473-.958-1.808-2.031-3.556-2.962-5.378a3.2 3.2 0 00-.792-.98c-.356-.303-1.055-.745-1.473-.596-.957.353-.205 3.723.015 4.591.26 1.03.907 3.283 4.941 10.382 1.1 1.936 1.776 3.045 2.812 3.325 1.258.34 2.291-.76 2.696-1.192.223-.236 1.668-1.775 1.29-3.68h.013zm77.989-3.752c-2.38-1.084-1.273-4.743-4.82-7.844-1.538-1.349-2.995-2.792-4.567-4.108a3.235 3.235 0 01-.771-.987c-.215-.417-.489-1.19-.245-1.568.561-.857 3.667.643 4.467 1.052.941.495 2.992 1.628 8.982 7.173 1.632 1.51 2.559 2.423 2.596 3.5.044 1.313-1.257 2.064-1.77 2.361-.283.163-2.103 1.218-3.872.421zM60.934 43.418c-2.605-.215-2.804-4.032-7.189-5.744-1.91-.749-3.766-1.605-5.682-2.32A3.258 3.258 0 0147 34.682c-.336-.322-.86-.954-.757-1.392.238-.99 3.677-.629 4.565-.51 1.05.145 3.365.516 10.883 3.714 2.051.877 3.228 1.42 3.63 2.414.488 1.218-.492 2.372-.87 2.817-.21.25-1.573 1.855-3.512 1.699l-.006-.007z"/></g><defs><clipPath id="clip0_574_2254"><path fill="#fff" transform="rotate(-45 95.877 39.714)" d="M0 0h112.327v159.358H0z"/></clipPath></defs></svg>