<svg width="121" height="126" fill="none" xmlns="http://www.w3.org/2000/svg"><path d="M98.23 86.395c1.678.57 5.795 1.963 9.835-.014.277-.135 3.509-1.763 4.999-5.123 3.771-8.467-6.114-22.048-15.293-24.568-1.245-.338-3.733-.987-6.107.18-2.586 1.27-3.567 3.966-4.3 5.985-.518 1.419-2.056 5.83-.58 11.192 1.53 5.564 5.846 10.455 11.454 12.352l-.008-.004zm-16.754-1.586a70.897 70.897 0 016.966 4.273c9.825 6.874 10.915 8.698 11.416 9.662.651 1.242 1.946 3.728 1.68 6.756-.649 7.515-10.367 12.455-16.67 13.975-8.875 2.134-15.947-1.318-18.446-2.537-1.482-.721-2.893-1.547-4.049-3.005-2.317-2.935-2.146-6.513-2.098-7.365.36-6.008 5.044-5.759 7.682-13.534 1.248-3.672 1.429-7.33 4.465-9.45.354-.248 1.11-.767 2.22-.995 2.206-.459 4.008.708 6.828 2.222l.006-.002zm-33.571-13.77c2.22.726 4.5 1.488 7.21 3.181 2.043 1.272 3.06 1.909 3.92 3.086 1.898 2.589 1.652 5.638 1.403 8.701-.205 2.51-.529 6.58-3.48 10.339-1.028 1.316-2.55 3.255-5.329 4.196-3.974 1.341-7.496-.396-8.244-.792-3.15-1.66-4.482-4.397-5.394-6.277-1.147-2.366-1.411-4.91-1.895-9.903-.879-9.092.02-10.671.842-11.577 1.487-1.652 3.608-2.07 4.177-2.186 1.82-.359 3.499.169 6.788 1.246l.002-.014zm29.409-44.677c3.265.843 5.321 2.65 6.408 3.618.85.765 3.276 3.092 4.738 7.006 1.597 4.28 1.095 7.912.865 9.428-.29 1.902-1.232 3.432-2.899 6.536-1.957 3.644-2.94 5.464-4.358 6.154-3.671 1.78-8.36-1.385-8.993-1.81-3.324-2.241-4.591-5.372-5.92-8.636-1.133-2.792-3.143-7.931-1.808-14.111.566-2.644 1.33-6.214 4.362-7.905 2.766-1.538 5.782-.756 7.61-.288l-.005.008zM52.32 40.67c3.368 2.518 6.492 4.85 8.234 9.353.517 1.346 1.84 5.282.715 9.973-.525 2.195-1.03 4.323-2.838 5.77-3.814 3.061-10.514.758-14.247-1.902-.58-.414-3.329-2.323-5.113-6.046-.386-.814-3.806-8.25-.288-15.609.934-1.956 2.185-4.565 4.752-5.295 2.739-.776 5.333 1.174 8.783 3.75l.002.006zM37.488 65.056c.06-1.815-2.565-2.256-3.403-5.417-.365-1.372-.814-2.726-1.154-4.106-.023-.076-.112-.428-.377-.788-.192-.258-.598-.67-.905-.63-.702.087-.729 2.48-.715 3.104.014.736.09 2.364 1.707 7.805.44 1.48.728 2.338 1.381 2.694.803.435 1.677-.148 2.018-.372.19-.128 1.41-.937 1.45-2.283l-.002-.007zm9.363-35.058c.514-1.743-1.908-2.828-1.933-6.097-.005-1.422-.1-2.844-.084-4.266a2.225 2.225 0 00-.17-.86c-.122-.3-.409-.798-.714-.841-.703-.093-1.33 2.225-1.475 2.83-.172.717-.503 2.313-.314 7.984.05 1.547.109 2.448.656 2.955.664.616 1.655.273 2.044.138.213-.074 1.6-.553 1.982-1.848l.008.005zM96.052 52.89c-1.114-1.436.75-3.33-.43-6.383-.511-1.328-.942-2.687-1.484-4.004a2.243 2.243 0 01-.155-.857c.002-.326.084-.89.356-1.044.622-.346 2.048 1.581 2.409 2.091.419.61 1.314 1.968 3.209 7.316.516 1.457.791 2.318.466 2.993-.397.822-1.44.863-1.852.881-.227.008-1.688.07-2.519-.992zM65.616 22.359c-1.533-.975-.422-3.387-2.567-5.858-.933-1.078-1.798-2.205-2.746-3.264a2.265 2.265 0 01-.437-.756c-.103-.307-.22-.864-.016-1.1.466-.533 2.466.8 2.974 1.16.599.43 1.904 1.406 5.496 5.803.98 1.202 1.528 1.916 1.453 2.658-.093.907-1.068 1.3-1.444 1.452-.21.086-1.568.634-2.71-.09l-.003-.005z" fill="#fff" fill-opacity=".3"/></svg>