<svg width="150" height="183" fill="none" xmlns="http://www.w3.org/2000/svg"><g clip-path="url(#clip0_574_2275)" fill="#fff" fill-opacity=".3"><path d="M93.335 137.718c1.603 1.983 5.54 6.842 11.973 7.544.441.049 5.623.553 10.018-2.388 11.094-7.399 9.512-31.515.285-41.636-1.254-1.368-3.781-4.07-7.566-4.475-4.121-.446-7.387 2.08-9.83 3.972-1.72 1.328-6.982 5.512-9.31 13.166-2.415 7.945-.925 17.211 4.437 23.829l-.007-.012zM74.178 122.91a102.054 102.054 0 015.188 10.553c6.666 15.913 6.588 18.969 6.457 20.526-.163 2.011-.499 6.031-3.15 9.508-6.565 8.642-22.183 7.18-31.016 4.184-12.437-4.227-18.384-13.862-20.486-17.266-1.248-2.016-2.33-4.104-2.614-6.766-.563-5.351 2.397-9.572 3.109-10.571 5.056-7.031 10.562-3.127 19.747-10.556 4.34-3.507 7.372-7.816 12.695-8.061.621-.03 1.94-.08 3.465.496 3.035 1.138 4.33 3.942 6.596 7.951l.01.002zM43.934 80.36c2.143 2.589 4.33 5.27 6.324 9.411 1.506 3.117 2.255 4.674 2.396 6.767.317 4.607-2.325 8.126-4.982 11.661-2.18 2.896-5.702 7.595-12.18 9.9-2.262.809-5.605 1.998-9.707 1.007-5.865-1.424-8.813-6.245-9.42-7.302-2.555-4.44-2.07-8.793-1.734-11.78.424-3.76 2.058-7.057 5.307-13.501 5.921-11.734 8.227-12.964 9.925-13.434 3.078-.866 5.98.256 6.76.553 2.489.962 4.126 2.895 7.297 6.734l.014-.016zm70.11-31.732c3.322 3.535 4.435 7.313 5.012 9.325.445 1.584 1.608 6.28.378 12.164-1.348 6.432-4.751 10.465-6.196 12.132-1.815 2.09-4.136 3.227-8.55 5.722-5.182 2.927-7.776 4.384-10.032 4.134-5.832-.658-9.102-8.111-9.545-9.115-2.32-5.281-1.454-10.063-.562-15.054.768-4.267 2.274-12.063 8.648-18.553 2.721-2.78 6.396-6.535 11.382-6.26 4.547.255 7.614 3.524 9.477 5.498l-.012.007zm-41.395-1.815c2.162 5.652 4.168 10.889 2.826 17.706-.407 2.034-1.823 7.838-6.797 12.679-2.327 2.266-4.576 4.465-7.888 4.837-6.991.79-13.37-7.161-15.865-13.266-.388-.95-2.263-5.385-1.572-11.285.157-1.285 1.714-12.96 11.649-19.204 2.64-1.662 6.167-3.872 9.849-2.788 3.928 1.161 5.585 5.528 7.8 11.312l-.002.01zM35.864 65.074c1.469-2.162-1.385-4.716.025-9.204.612-1.95 1.106-3.941 1.754-5.881.03-.11.192-.607.147-1.249-.035-.461-.212-1.275-.616-1.462-.922-.434-2.793 2.456-3.257 3.227-.548.904-1.708 2.943-3.923 10.804-.602 2.14-.911 3.403-.391 4.339.642 1.145 2.154 1.108 2.74 1.098.328-.01 2.436-.055 3.518-1.663l.003-.009zM74.2 29.632c1.964-1.725-.148-4.905 2.335-8.9 1.087-1.734 2.064-3.536 3.177-5.253.066-.1.341-.538.453-1.177.084-.459.117-1.285-.22-1.573-.784-.652-3.328 1.684-3.97 2.309-.761.74-2.39 2.427-6.52 9.47-1.127 1.92-1.749 3.06-1.473 4.097.334 1.26 1.803 1.604 2.38 1.74.316.074 2.371.556 3.83-.724l.008.011zm42.243 65.663c-.251-2.603 3.471-3.474 4.383-8.096.4-2.006.921-3.99 1.274-6.009a3.25 3.25 0 01.47-1.162c.254-.394.787-1.018 1.235-.996 1.023.058 1.277 3.498 1.323 4.395.041 1.063.086 3.404-1.721 11.365-.492 2.168-.82 3.428-1.734 3.999-1.115.694-2.415-.058-2.929-.353-.282-.164-2.106-1.213-2.301-3.143zm-13.548-60.53c-1.116-2.363 2.09-4.444 1.38-9.097-.306-2.028-.492-4.064-.831-6.082a3.255 3.255 0 01.05-1.255c.111-.451.396-1.22.827-1.351.976-.289 2.383 2.87 2.724 3.699.399.982 1.236 3.172 2.225 11.282.266 2.215.385 3.505-.276 4.35-.81 1.031-2.299.76-2.874.656-.321-.057-2.393-.435-3.227-2.192l.002-.01z"/></g><defs><clipPath id="clip0_574_2275"><path fill="#fff" transform="rotate(15 20.622 156.64)" d="M0 0h112.327v159.358H0z"/></clipPath></defs></svg>