<svg width="157" height="156" fill="none" xmlns="http://www.w3.org/2000/svg"><path d="M92.781 113.018c1.123 1.682 3.88 5.805 8.909 6.825.345.071 4.402.845 8.086-1.16 9.299-5.039 9.797-24.2 3.244-32.862-.891-1.172-2.691-3.49-5.652-4.083-3.222-.65-5.984 1.108-8.051 2.424-1.455.925-5.914 3.847-8.307 9.724-2.484 6.1-1.98 13.526 1.776 19.141l-.005-.009zM78.725 99.934a80.91 80.91 0 013.332 8.71c4.111 13.052 3.828 15.46 3.612 16.68-.275 1.577-.831 4.727-3.177 7.281-5.812 6.349-18.041 4.062-24.8 1.056-9.516-4.24-13.514-12.281-14.927-15.122-.84-1.682-1.543-3.41-1.575-5.533-.056-4.267 2.587-7.386 3.222-8.123 4.504-5.187 8.57-1.705 16.362-6.906 3.681-2.455 6.389-5.638 10.61-5.446.493.021 1.538.077 2.701.643 2.315 1.118 3.134 3.427 4.633 6.758l.007.002zm-20.802-35.8c1.505 2.2 3.038 4.475 4.312 7.891.964 2.571 1.443 3.855 1.402 5.518-.083 3.662-2.426 6.25-4.78 8.849-1.932 2.13-5.054 5.585-10.337 6.936-1.846.475-4.572 1.171-7.74.09-4.529-1.549-6.508-5.57-6.91-6.449-1.696-3.692-.998-7.094-.516-9.43.607-2.938 2.138-5.424 5.17-10.277 5.528-8.839 7.438-9.643 8.813-9.89 2.493-.461 4.704.635 5.298.926 1.897.94 3.05 2.586 5.276 5.847l.012-.011zm57.673-19.978c2.368 3.032 2.973 6.097 3.283 7.728.237 1.283.815 5.077-.584 9.634-1.531 4.982-4.511 7.92-5.773 9.133-1.585 1.518-3.5 2.249-7.167 3.899-4.305 1.936-6.46 2.899-8.223 2.538-4.559-.943-6.601-7.067-6.878-7.891-1.45-4.34-.42-8.053.648-11.93.915-3.315 2.67-9.363 8.175-14.027 2.351-1.998 5.525-4.697 9.443-4.119 3.573.531 5.758 3.336 7.086 5.03l-.01.005zm-32.564-4.432c1.298 4.62 2.503 8.902.949 14.188-.469 1.577-2.009 6.058-6.288 9.521-2.002 1.622-3.938 3.195-6.58 3.248-5.58.118-10.04-6.624-11.568-11.627-.238-.778-1.397-4.416-.424-9.026.217-1.004 2.293-10.111 10.593-14.323 2.205-1.121 5.15-2.611 7.98-1.487 3.019 1.201 4.01 4.77 5.341 9.499l-.002.007zM52.657 51.477c1.317-1.601-.752-3.825.687-7.267.624-1.496 1.159-3.033 1.812-4.518.03-.085.195-.465.206-.975.006-.367-.075-1.023-.38-1.2-.697-.41-2.385 1.737-2.806 2.312-.5.675-1.563 2.201-3.882 8.25-.631 1.645-.967 2.62-.624 3.397.424.951 1.621 1.032 2.084 1.066.26.016 1.928.133 2.9-1.058l.003-.007zm32.847-25.213c1.677-1.22.239-3.885 2.49-6.86.984-1.29 1.887-2.643 2.89-3.919.06-.074.309-.4.443-.896.1-.357.186-1.007-.06-1.258-.572-.572-2.75 1.089-3.302 1.535-.655.53-2.063 1.744-5.836 7.007-1.03 1.434-1.603 2.29-1.461 3.13.173 1.018 1.308 1.397 1.754 1.545.244.082 1.832.612 3.078-.293l.004.01zm28.603 54.925c-.009-2.075 2.993-2.492 4.049-6.077.461-1.555 1.017-3.084 1.442-4.653a2.55 2.55 0 01.455-.884c.229-.293.695-.747 1.048-.697.803.12.754 2.855.726 3.567-.045.842-.179 2.695-2.183 8.851-.546 1.677-.896 2.648-1.659 3.032-.931.468-1.904-.22-2.289-.49-.211-.15-1.575-1.111-1.589-2.65zM107.796 32.4c-.71-1.948 1.973-3.358 1.749-7.085-.094-1.624-.094-3.245-.215-4.864a2.578 2.578 0 01.13-.987c.121-.349.402-.936.751-1.008.792-.157 1.674 2.44 1.884 3.12.244.804.745 2.594.939 9.071.05 1.769.05 2.796-.534 3.416-.714.756-1.87.434-2.317.31-.249-.069-1.859-.518-2.39-1.966l.003-.007z" fill="#fff" fill-opacity=".3"/></svg>