<svg width="84" height="84" fill="none" xmlns="http://www.w3.org/2000/svg"><path d="M58.555 52.344c1.002.34 3.461 1.173 5.874-.008.166-.08 2.096-1.053 2.986-3.06 2.252-5.057-3.652-13.169-9.134-14.674-.743-.202-2.23-.59-3.648.108-1.544.758-2.13 2.368-2.568 3.574-.31.848-1.228 3.483-.347 6.685.914 3.323 3.492 6.245 6.842 7.378l-.005-.003zm-10.006-.947a42.37 42.37 0 014.16 2.552c5.87 4.106 6.52 5.195 6.82 5.771.388.742 1.161 2.227 1.002 4.035-.387 4.489-6.192 7.44-9.956 8.347-5.301 1.275-9.525-.787-11.018-1.515-.885-.43-1.727-.924-2.418-1.795-1.384-1.753-1.282-3.89-1.253-4.399.215-3.588 3.013-3.44 4.588-8.084.745-2.193.854-4.377 2.667-5.644a3.473 3.473 0 011.326-.594c1.318-.274 2.394.423 4.078 1.327l.004-.001zm-20.051-8.224c1.326.433 2.688.889 4.306 1.9 1.22.76 1.828 1.14 2.342 1.843 1.133 1.546.986 3.367.838 5.197-.123 1.5-.317 3.93-2.079 6.175-.614.786-1.523 1.944-3.183 2.507-2.374.8-4.477-.237-4.924-.474-1.882-.991-2.677-2.626-3.222-3.749-.685-1.413-.843-2.933-1.132-5.914-.525-5.431.012-6.375.503-6.916.888-.986 2.155-1.236 2.495-1.305 1.087-.214 2.09.1 4.054.744l.002-.008zm17.565-26.685c1.95.503 3.178 1.583 3.827 2.16a10.716 10.716 0 012.83 4.185c.953 2.556.654 4.726.516 5.632-.173 1.136-.735 2.05-1.73 3.904-1.17 2.176-1.757 3.263-2.604 3.675-2.193 1.063-4.994-.827-5.371-1.08-1.986-1.34-2.743-3.21-3.536-5.159-.677-1.668-1.878-4.737-1.08-8.429.338-1.579.795-3.711 2.605-4.72 1.652-.92 3.454-.453 4.545-.173l-.002.005zm-14.928 8.546c2.012 1.504 3.878 2.896 4.918 5.586.309.804 1.099 3.155.427 5.957-.314 1.311-.615 2.582-1.695 3.447-2.278 1.828-6.28.452-8.51-1.137-.346-.247-1.988-1.387-3.054-3.611-.23-.486-2.273-4.928-.171-9.323.557-1.168 1.305-2.726 2.838-3.162 1.636-.464 3.185.7 5.246 2.24v.003zM22.276 39.6c.036-1.085-1.532-1.348-2.033-3.236-.218-.82-.486-1.628-.689-2.453-.014-.045-.067-.255-.225-.47-.114-.155-.357-.401-.54-.377-.42.052-.436 1.482-.428 1.855.008.439.054 1.412 1.02 4.661.263.885.435 1.397.825 1.61.48.26 1.002-.09 1.205-.223.113-.076.842-.56.866-1.364l-.001-.003zm5.592-20.94c.307-1.041-1.14-1.69-1.154-3.642-.003-.85-.06-1.698-.05-2.548 0-.05 0-.264-.102-.513-.073-.18-.244-.477-.427-.503-.42-.055-.794 1.329-.88 1.69-.104.429-.3 1.382-.188 4.77.03.923.065 1.461.392 1.764.396.368.988.163 1.22.082.128-.043.956-.33 1.184-1.103l.005.003zm29.387 13.673c-.665-.858.448-1.989-.257-3.813-.305-.793-.562-1.604-.886-2.391a1.34 1.34 0 01-.093-.512c.002-.195.05-.532.213-.624.371-.206 1.224.945 1.439 1.25.25.363.785 1.175 1.916 4.37.309.87.473 1.384.279 1.787-.237.49-.86.515-1.106.526-.136.005-1.008.041-1.505-.593zM39.076 14.097c-.915-.582-.252-2.023-1.533-3.499-.557-.644-1.074-1.317-1.64-1.95a1.353 1.353 0 01-.261-.451c-.062-.183-.132-.516-.01-.658.279-.318 1.473.479 1.776.694.358.256 1.137.84 3.283 3.466.585.718.913 1.144.868 1.587-.055.542-.638.777-.863.868-.125.051-.936.378-1.618-.054l-.002-.003z" fill="#fff" fill-opacity=".3"/></svg>