<svg width="105" height="128" fill="none" xmlns="http://www.w3.org/2000/svg"><g clip-path="url(#clip0_574_2265)" fill="#fff" fill-opacity=".4"><path d="M64.964 95.852c1.116 1.38 3.856 4.762 8.333 5.25.307.035 3.914.385 6.973-1.662 7.722-5.15 6.62-21.934.199-28.978-.873-.953-2.632-2.833-5.267-3.115-2.867-.31-5.14 1.448-6.842 2.765-1.197.924-4.859 3.836-6.479 9.163-1.681 5.53-.644 11.98 3.088 16.585l-.005-.008zM51.63 85.547a71.007 71.007 0 013.61 7.344c4.64 11.075 4.586 13.203 4.495 14.287-.114 1.399-.348 4.197-2.193 6.617-4.57 6.015-15.44 4.997-21.587 2.912-8.656-2.942-12.795-9.648-14.258-12.017-.87-1.403-1.622-2.857-1.82-4.71-.391-3.724 1.668-6.662 2.164-7.357 3.52-4.893 7.352-2.176 13.744-7.347 3.02-2.44 5.131-5.44 8.836-5.61.432-.021 1.35-.056 2.411.345 2.113.792 3.014 2.744 4.591 5.534l.007.002zM30.58 55.93c1.491 1.803 3.014 3.668 4.4 6.55 1.05 2.17 1.571 3.254 1.67 4.71.22 3.207-1.62 5.656-3.469 8.117-1.517 2.015-3.968 5.286-8.477 6.89-1.575.563-3.9 1.39-6.756.7-4.082-.99-6.134-4.346-6.556-5.081-1.778-3.09-1.441-6.12-1.207-8.2.295-2.616 1.433-4.911 3.694-9.396 4.12-8.167 5.726-9.023 6.907-9.35 2.142-.603 4.162.178 4.705.385 1.733.67 2.872 2.015 5.08 4.686l.009-.01zm48.798-22.087c2.313 2.46 3.087 5.09 3.489 6.49.31 1.103 1.12 4.372.263 8.466-.938 4.477-3.307 7.284-4.313 8.444-1.263 1.455-2.878 2.246-5.95 3.982-3.607 2.038-5.413 3.052-6.983 2.878-4.059-.458-6.335-5.646-6.643-6.344-1.615-3.676-1.012-7.004-.391-10.477.534-2.97 1.582-8.396 6.019-12.914 1.894-1.935 4.451-4.548 7.922-4.357 3.164.178 5.299 2.454 6.596 3.827l-.009.005zm-28.812-1.26c1.504 3.934 2.9 7.578 1.967 12.323-.283 1.416-1.27 5.455-4.731 8.825-1.62 1.577-3.185 3.108-5.49 3.366-4.866.55-9.305-4.984-11.042-9.233-.27-.66-1.575-3.747-1.094-7.854.109-.894 1.193-9.02 8.107-13.366 1.837-1.157 4.292-2.695 6.855-1.94 2.735.808 3.888 3.847 5.43 7.873l-.002.006zM24.963 45.29c1.022-1.505-.964-3.282.017-6.406.426-1.357.77-2.743 1.22-4.093.021-.077.135-.423.103-.87-.024-.32-.147-.887-.429-1.017-.641-.302-1.944 1.71-2.266 2.246-.382.63-1.189 2.049-2.73 7.52-.42 1.488-.635 2.368-.273 3.02.447.797 1.5.77 1.907.764.229-.008 1.695-.039 2.449-1.157l.002-.007zm26.68-24.666c1.367-1.2-.103-3.414 1.625-6.194.757-1.207 1.437-2.462 2.211-3.657.046-.07.238-.374.316-.818.058-.32.081-.895-.154-1.095-.545-.454-2.316 1.172-2.762 1.606-.53.515-1.663 1.69-4.538 6.591-.785 1.337-1.218 2.13-1.026 2.853.233.876 1.256 1.116 1.657 1.21.22.052 1.65.387 2.666-.504l.005.008zm29.404 45.702c-.175-1.812 2.416-2.418 3.05-5.635.279-1.397.642-2.777.887-4.182.015-.079.083-.437.327-.81.177-.273.548-.708.86-.692.711.04.888 2.434.92 3.058.03.74.06 2.37-1.197 7.91-.343 1.51-.57 2.386-1.207 2.784-.776.483-1.681-.04-2.039-.246-.196-.114-1.466-.844-1.601-2.187zm-9.431-42.128c-.777-1.646 1.455-3.093.96-6.332-.213-1.412-.342-2.829-.578-4.233a2.265 2.265 0 01.035-.873c.077-.315.276-.85.575-.941.68-.201 1.659 1.997 1.896 2.574.278.684.86 2.208 1.549 7.853.185 1.541.268 2.439-.192 3.027-.564.718-1.6.53-2 .456-.224-.039-1.666-.302-2.247-1.525l.002-.006z"/></g><defs><clipPath id="clip0_574_2265"><path fill="#fff" transform="rotate(15 14.353 109.026)" d="M0 0h78.18v110.914H0z"/></clipPath></defs></svg>