<svg width="169" height="52" fill="none" xmlns="http://www.w3.org/2000/svg"><g clip-path="url(#clip0_523_2386)"><path d="M163.25 52H25.859C11.585 52 0 40.362 0 26.032v-.064C0 11.634 11.589 0 25.859 0h126.475C161.534 0 169 7.497 169 16.736v29.49c0 3.185-2.578 5.774-5.75 5.774z" fill="#fff"/><path d="M67.782 30.324c-1.2 1.242-2.678 1.996-4.434 2.26a7.918 7.918 0 01-2.98-.092 7.43 7.43 0 01-2.596-1.112 7.036 7.036 0 01-1.942-1.94 6.59 6.59 0 01-1.022-2.596 6.483 6.483 0 01.153-2.764 6.85 6.85 0 011.24-2.435c1.23-1.563 2.871-2.503 4.922-2.82a7.765 7.765 0 013.008.093c.955.22 1.828.6 2.623 1.142l-1.471 2.972c-.691-.361-1.438-.48-2.24-.361-.903.137-1.63.537-2.18 1.193-.543.66-.75 1.384-.624 2.175.126.79.557 1.417 1.289 1.876.727.459 1.54.623 2.444.489l.007-.008.197-1.526-2.043-.022.267-2.902 5.16.03.222 6.341v.007zm8.35 2.719l-3.618-5.095.19 4.252-4.275.078-.115-12.753a14.226 14.226 0 014.899-.537c1.452.097 2.622.459 3.506 1.082 1.107.776 1.738 1.947 1.89 3.517.075.44.06.925-.051 1.462-.1.47-.275.888-.52 1.25a3.263 3.263 0 01-1.226 1.082l2.76 2.82-3.436 2.85-.004-.008zm-1.95-9.508c-.004-.37-.108-.675-.312-.918a1.692 1.692 0 00-.687-.458 2.56 2.56 0 00-1-.176l.175 3.089c.305.022.613-.03.921-.153.61-.246.91-.705.9-1.38l.003-.004zm10.27 9.147l-4.494-1.503 6.604-13.044 7.514 12.454-3.391 2.205-1.081-2.085-4.38-.109-.768 2.078-.004.004zm3.618-4.887l-1.059-2.029-.716 1.955 1.775.078v-.003zm18.349-2.029c-.019 1.97-.65 3.484-1.891 4.536-.995.84-2.355 1.361-4.075 1.57-1.233.153-2.588.142-4.067-.037a14.474 14.474 0 01-1.842-.313l.085-12.235c1.66-.432 3.473-.593 5.442-.481 2.856.138 4.769 1.339 5.746 3.607a7.772 7.772 0 01.579 2.324c.045.414.056.757.03 1.033l-.007-.004zm-4.253-.06a2.728 2.728 0 00-.06-1.17 1.837 1.837 0 00-.494-.859c-.286-.264-.668-.425-1.159-.473a4.428 4.428 0 00-1.6.1l-.268 4.268c.52.152 1.059.19 1.623.115.487-.067.888-.235 1.204-.507.401-.343.653-.832.754-1.47v-.004zm13.942 6.532l-8.936.109.03-13.354 9.081-.268.137 3.73-5.066-.101.06 1.51 2.622.008.145 3.394-2.704-.205.037 1.608 4.487-.015.107 3.584zm5.487-9.008l.052 1.63h2.856l-.067 3.226-2.689-.108.138 4.181-4.587.291-.572-12.969 9.166-.19-.1 4.028-4.197-.093v.004zm10.815 9.203a6.86 6.86 0 01-2.629-.75 6.254 6.254 0 01-1.973-1.6 6.097 6.097 0 01-1.288-4.879c.148-.91.471-1.76.976-2.551a7.59 7.59 0 011.835-2.007c1.571-1.19 3.317-1.708 5.241-1.555.944.078 1.82.328 2.63.75a6.115 6.115 0 013.261 6.478 6.8 6.8 0 01-.966 2.552 7.669 7.669 0 01-1.842 2.006c-1.571 1.19-3.317 1.709-5.241 1.556h-.004zm-1.623-6.841c-.115.731.052 1.376.502 1.94.46.555 1.073.869 1.835.936a2.968 2.968 0 002.087-.62c.624-.47.999-1.074 1.122-1.808.115-.732-.056-1.377-.517-1.94-.453-.563-1.062-.873-1.827-.936-.761-.06-1.456.145-2.087.619-.621.47-.992 1.074-1.111 1.809h-.004zm10.13 4.923l3.855-4.935-4.182-5.386 4.847-1.425 2.37 2.929 2.407-3.096 4.486 2.368-3.755 4.618 3.9 4.826-4.494 2.328-2.552-3.279-2.035 2.507-4.847-1.455z" fill="#FF320B"/><path d="M33.414 48.367c9.918 0 17.958-1.565 17.958-3.495 0-1.93-8.04-3.495-17.958-3.495-9.919 0-17.959 1.565-17.959 3.495 0 1.93 8.04 3.495 17.959 3.495z" fill="#DF4100" opacity=".11"/><path d="M38.42 40.39c-.204 1.062-.605 1.626-1.021 2.155a.452.452 0 01-.041.049c-.635.802-1.222 1.007-2.474 1.275-.367.079-.854.172-1.422.232h-.008c-.702.078-1.523.111-2.388.018v-.01a14.344 14.344 0 01-1.78-.24c-1.25-.264-1.838-.462-2.473-1.253-.427-.533-.847-1.09-1.058-2.167-.056-.283-.1-.556-.134-.813a16.017 16.017 0 01-.063-.537 14.11 14.11 0 01-.056-1.653c.011-.544.078-3.062.884-6.266.275-1.097.695-2.495.884-3.126.108-.362.208-.694.3-.988.094-.295 1.516-4.584 1.52-4.603l6.466.268c.138.433 1.122 4.268 1.349 5.04.148.51.45 1.521.702 2.476.018.075.04.153.06.228.04.164.08.32.122.474.055.223.108.447.156.664.657 2.939.717 5.192.728 5.71.01.6.01 1.697-.253 3.055v.011z" fill="#FF761B"/><path d="M47.43 37.972c-.073.623-.24 2.085-1.221 3.394-1.56 2.085-4.357 2.685-6.697 2.1-.052-.015-.108-.026-.16-.041-.044-.011-.089-.026-.133-.037a6.263 6.263 0 01-1.26-.523 7.23 7.23 0 00-.245-.134c-.104-.06-.208-.12-.312-.186a3.713 3.713 0 01-1.017-.91 3.384 3.384 0 01-.52-.996c-.546-1.672.167-3.753 1.177-6.591a80.4 80.4 0 01.706-1.929c.007-.015.01-.033.018-.048.023-.06.049-.116.07-.172l.112-.272c.16-.38.301-.701.424-.966.16-.343.286-.593.371-.757.123-.24.268-.5.268-.5l.07-.13c.108-.195.327-.583.554-.948.104-.168.215-.34.33-.507 1.72-2.53 4.643-5.122 5.902-6.188.19-.16.342-.288.446-.373.044-.038.082-.068.108-.09a8.908 8.908 0 00-1.193 1.995c-.286.665-.705 2.406-.397 4.66.074.555.13.88.234 1.245.145.5.39 1.074.928 2.417.933 2.324 1.698 4.241 1.438 6.49v-.003z" fill="#FF761B"/><path d="M38.42 40.39c-.204 1.062-.605 1.626-1.021 2.155a.474.474 0 01-.041.049c-.635.802-1.222 1.007-2.474 1.275-.367.079-.854.172-1.422.232h-.008c-.702.078-1.523.112-2.388.018v-.01a14.341 14.341 0 01-1.78-.24c-1.251-.264-1.838-.462-2.473-1.253-.427-.533-.847-1.089-1.058-2.167-.056-.283-.1-.556-.134-.813a16.017 16.017 0 01-.063-.537c.53.239 1.092 1.242 1.927 1.97 1.999 1.737 4.851 1.249 5.137 1.193.457-.086 1.987-.392 3.235-1.63.16-.157.316-.332.46-.522.499-.642.974-1.556 1.271-4.033a26.29 26.29 0 00.171-4.013 27.242 27.242 0 00-.096-1.582 27.176 27.176 0 01.279 1.138c.657 2.94.716 5.192.727 5.71a14.37 14.37 0 01-.252 3.056l.003.003z" fill="#FF761B" opacity=".32"/><path d="M38.42 40.388c-.204 1.063-.605 1.627-1.02 2.156a.472.472 0 01-.042.049c-.635.802-1.222 1.007-2.473 1.275a13.54 13.54 0 01-1.423.232h-.008c-.702.078-1.522.112-2.388.018v-.01a14.341 14.341 0 01-1.779-.24c-1.252-.264-1.838-.462-2.474-1.253-.427-.533-.846-1.089-1.058-2.167-.056-.284-.1-.556-.134-.813.386.712.95 1.548 1.887 2.245 1.838 1.37 3.926 1.34 4.543 1.32.872-.025 2.689-.078 4.067-1.32.089-.082.174-.164.256-.25 1.4-1.484 1.5-3.715 1.582-6.262a24.38 24.38 0 00-.13-3.477 27.82 27.82 0 00-.226-1.637c.063.242.126.477.182.705.055.224.107.448.156.664.657 2.94.716 5.192.728 5.71.01.601.01 1.698-.253 3.055h.008z" fill="#FF761B" opacity=".54"/><path d="M45.233 23.16c-.286.663-.706 2.405-.398 4.658.075.556.13.88.234 1.246a.813.813 0 01-.49.008.688.688 0 01-.242-.135c-.248-.212-.341-.544-.65-.57-.404-.034-.568.51-.924.44-.353-.071-.338-.634-.728-.743-.36-.1-.557.329-.925.213-.316-.1-.275-.451-.583-.563-.197-.071-.387.004-.561.097 1.98-2.913 5.556-5.909 6.347-6.561.045-.038.082-.067.108-.09a8.9 8.9 0 00-1.192 1.996l.004.003z" fill="#FFECC2"/><path d="M34.981 40.34c-.01.873-.07 1.746-.181 2.615-.012.074-.02.149-.03.224-.067.477-.149.95-.245 1.42a.123.123 0 01-.12.101h-1.229a.125.125 0 01-.122-.115c-.008-.075-.011-.15-.019-.228l-.044-.507-.056-.672c-.008-.074-.011-.149-.019-.223a22.03 22.03 0 01-.066-2.566 35.98 35.98 0 01.285-3.32.122.122 0 01.138-.108c.004 0 .472.003.858.003.256 0 .48 0 .505-.003.067-.012.126.037.137.108a22.48 22.48 0 01.205 3.275l.003-.004zm-3.989 2.835c-.022.302-.048.6-.074.892-.023.253-.045.492-.063.734a.122.122 0 01-.123.116h-1.23a.12.12 0 01-.118-.1 22.763 22.763 0 01-.275-1.645 22.436 22.436 0 01.022-5.89.127.127 0 01.138-.109c.044.008.605.004.995 0h.372c.066-.01.126.038.137.109.152 1.16.245 2.215.286 3.32.037.924-.004 1.764-.067 2.566v.007z" fill="#FF761B"/><path d="M34.766 43.176c-.071.552-.134 1.1-.246 1.645a.123.123 0 01-.119.1h-1.229a.125.125 0 01-.122-.115c-.012-.146-.023-.291-.038-.437-.007-.097-.018-.197-.026-.298-.026-.295-.052-.59-.074-.892h1.85l.004-.003zm-3.775 0c-.022.302-.048.6-.074.891-.022.254-.044.492-.063.735a.122.122 0 01-.122.115h-1.23a.12.12 0 01-.119-.1c-.03-.138-.055-.276-.081-.418a22.843 22.843 0 01-.194-1.227h1.88l.003.004z" fill="#fff"/><path d="M34.981 40.34c-.01.873-.07 1.746-.181 2.615-.012.074-.02.149-.03.224 0 0-.134 1.1-.245 1.644a.123.123 0 01-.12.101h-1.229a.125.125 0 01-.122-.115 21.448 21.448 0 00-.037-.437l.018-.011c.387-.257.795-.325 1.085-.735.082-.115.13-.25.174-.444.03-.127.06-.28.093-.47.16-.876.123-1.544.052-2.88-.007-.115-.018-.35-.048-.66-.03-.305-.074-.686-.141-1.085-.067-.407-.138-.817-.123-1.123.256 0 .48 0 .505-.003.067-.012.127.037.138.108.148 1.081.215 2.185.204 3.275l.008-.004zm12.451-2.369c-.075.623-.242 2.086-1.222 3.395-1.627 2.174-4.595 2.734-6.994 2.021a9.703 9.703 0 001.779-.458c.921-.332 1.876-.675 2.734-1.578 1.036-1.093 1.333-2.365 1.526-3.186.104-.443.301-1.443.145-3.424-.178-2.264-.576-2.756-.921-4.912-.048-.31-.097-.604-.141-.888-.275-1.798-.398-3.16.052-4.621.19-.616.661-1.82 1.924-3.066.044-.038.081-.068.108-.09a8.908 8.908 0 00-1.193 1.996c-.286.664-.706 2.405-.397 4.658.074.556.13.88.234 1.246.145.5.39 1.075.928 2.417.933 2.324 1.698 4.241 1.438 6.49zm-16.44 5.204c-.023.302-.049.6-.075.892-.022.253-.044.492-.063.734a.122.122 0 01-.122.116h-1.23a.12.12 0 01-.118-.1c-.03-.139-.056-.277-.082-.419.186.015.33.049.52-.037.323-.145.486-.526.609-1.014.015-.06.03-.116.04-.176.25-1.149.101-2.182.049-2.577a29.4 29.4 0 01-.26-3.417h.371c.067-.011.127.037.138.108.152 1.16.245 2.216.286 3.32a21.28 21.28 0 01-.067 2.566l.004.004z" fill="#FF761B" opacity=".54"/><path d="M27.6 28.155c-.642 1.31-1.07 3.887-1.088 4.181-.03.504.234.474.379.437.253-.064.43-1.388.72-2.581.216-.892.587-1.697.572-1.917-.018-.24-.464-.362-.583-.12zm.365-.985a.371.371 0 00-.171.41.36.36 0 00.453.236c.212-.082.29-.414.148-.586-.096-.116-.285-.145-.43-.06z" fill="#fff" opacity=".65"/><path d="M47.431 37.971c-.074.623-.241 2.085-1.222 3.395-1.56 2.085-4.356 2.685-6.696 2.1-.052-.015-.108-.026-.16-.041-.045-.012-.09-.027-.134-.038a6.269 6.269 0 01-1.259-.522 7.058 7.058 0 00-.245-.134c.772-.295 2.864.04 4.438-1.224 1.616-1.294 1.839-3.588 2.002-5.274.45-4.614-1.508-6.072-1.092-9.306.179-1.399.818-3.245 2.808-5.304.19-.16.342-.288.446-.373.045-.038.082-.067.108-.09a8.904 8.904 0 00-1.192 1.996c-.286.664-.706 2.406-.398 4.659.074.555.13.88.234 1.245.145.5.39 1.075.929 2.417.932 2.324 1.697 4.241 1.437 6.49l-.004.004z" fill="#FF761B" opacity=".32"/><path d="M39.082 30.098c.456-1.432 3.316-4.845 3.536-5.028.438-.365.55-.156.508 0-.174.683-2.269 2.88-3.446 5.058-.305.563-.985 1.19-.595-.03h-.003z" fill="#fff" opacity=".65"/><path d="M27.946 15.51a4.52 4.52 0 01-1.957.768c-1.304.183-2.578-.037-3.492-.854a4.863 4.863 0 00-.156-.13c-1.263-.99-1.478-3.552-1.805-6.633-.03-.26-.096-.98-.29-1.947a20.86 20.86 0 00-.598-2.286.146.146 0 01.168-.187c.62.13 1.47.332 2.451.638l.249.079c3.198 1.044 6.043 2.987 6.808 4.778.178.324.32.675.416 1.048.476 1.857-.323 3.7-1.786 4.722l-.008.004z" fill="#FF761B"/><path d="M29.19 10.877c-.568-1.526-2.904-3.264-5.545-4.226a21.798 21.798 0 00-1.969-.616.116.116 0 00-.14.146c.185.686.311 1.32.397 1.883.119.791.148 1.38.16 1.593.148 2.514.222 4.607 1.21 5.46l.123.113c.71.7 1.738.928 2.804.831 2.143-.194 3.692-2.197 3.258-4.315a3.639 3.639 0 00-.298-.87z" fill="#DF4100"/><path d="M27.947 15.51a11.047 11.047 0 00-.41-5.588c-.716-2.082-3.186-3.846-5.028-4.965 3.198 1.044 6.043 2.988 6.808 4.778.178.325.32.675.416 1.048.476 1.858-.323 3.7-1.787 4.723v.003z" fill="#DF4100" opacity=".32"/><path d="M41.27 15.35a2.648 2.648 0 00-.157.13c-.917.814-2.191 1.03-3.495.844a4.552 4.552 0 01-1.957-.772c-1.46-1.026-2.251-2.873-1.772-4.73.096-.373.238-.724.42-1.048.772-1.787 3.621-3.72 6.823-4.756l.249-.078c.984-.303 1.83-.5 2.455-.63a.141.141 0 01.145.059.143.143 0 01.022.116v.01c-.271.833-.468 1.6-.605 2.287-.197.966-.268 1.686-.298 1.947-.338 3.078-.56 5.64-1.827 6.625l-.004-.004z" fill="#FF761B"/><path d="M34.428 10.911c.572-1.522 2.916-3.253 5.56-4.207a23.04 23.04 0 011.969-.608c.085-.023.167.06.14.145a17.098 17.098 0 00-.404 1.88c-.123.79-.152 1.38-.167 1.593-.156 2.514-.238 4.606-1.23 5.453l-.122.112c-.713.697-1.742.925-2.808.824-2.14-.201-3.685-2.208-3.246-4.327.063-.306.167-.596.3-.869l.008.004z" fill="#DF4100"/><path d="M41.27 15.35a2.647 2.647 0 00-.157.13c-.917.814-2.191 1.03-3.495.843a4.554 4.554 0 01-1.946-.765c1.623-.395 2.604-1.096 3.205-1.678 1.898-1.831 1.597-3.987 3.681-7.378.457-.742.918-1.369 1.322-1.868.041-.053.082-.101.123-.15v.012c-.271.831-.468 1.6-.605 2.286-.197.966-.268 1.686-.298 1.947-.338 3.077-.56 5.64-1.827 6.625l-.004-.004z" fill="#FF761B" opacity=".32"/><path d="M41.27 15.35a2.648 2.648 0 00-.157.13c-.917.814-2.191 1.03-3.495.844a4.703 4.703 0 01-.397-.075c1.147-.403 1.894-.959 2.388-1.436 1.898-1.832 2.797-6.263 4.2-9.989a20.233 20.233 0 01.17-.455c.024.033.035.074.024.116v.01c-.271.833-.468 1.6-.605 2.287-.197.966-.268 1.686-.298 1.947-.338 3.078-.56 5.64-1.827 6.625l-.004-.004z" fill="#FF761B" opacity=".32"/><path d="M35.423 8.976c-.085-.101 1.189-1.768 3.287-2.686 1.118-.489 2.27-.679 2.303-.582.03.086-.854.377-2.043.981-2.336 1.19-3.469 2.38-3.547 2.287z" fill="#fff" opacity=".65"/><path d="M35.181 31.597c0-2.104-1.734-10.921-2.99-10.921-1.255 0-2.99 8.818-2.99 10.921 0 2.104 1.337 3.805 2.99 3.805 1.653 0 2.99-1.705 2.99-3.805z" fill="#FFD788"/><path d="M42.072 21.753c-.36.284-.829.645-1.386 1.044-1.151.825-2.046 1.313-2.964 1.709-1.526.66-2.436.914-3.803 1.096-.093.012-.186.023-.282.038-.528.063-1.03.1-1.501.12h-.256a18.758 18.758 0 01-1.783-.158c-1.367-.179-2.277-.436-3.804-1.096-.917-.4-1.812-.884-2.964-1.709a34.086 34.086 0 01-1.385-1.044.207.207 0 010-.332 5.39 5.39 0 00.72-.634c.554-.608 1.033-1.574 1.334-2.283.1-.235.182-.48.245-.727.008-.026.011-.049.019-.075a5.4 5.4 0 00.115-.641c.115-.933.672-2.656 1.174-3.499.954-1.604 2.652-2.107 4.535-2.313a17.987 17.987 0 013.584-.026c2.084.19 3.098.485 4.561 2.093.747.817 1.293 2.812 1.408 3.745.03.238.074.477.133.709v.007c.064.246.145.488.246.727.3.705.776 1.675 1.333 2.283.234.257.494.455.72.634a.207.207 0 010 .332z" fill="#FF761B"/><path d="M42.082 21.75c-.36.283-.828.645-1.385 1.044-1.152.824-2.047 1.313-2.964 1.708-1.527.66-2.437.914-3.803 1.097-.093.01-.186.022-.283.037-.527.063-1.029.1-1.5.12h-.257a18.716 18.716 0 01-2.596-.284c-.966-.18-1.787-.448-2.99-.97-.917-.4-1.813-.884-2.964-1.708-.557-.4-1.025-.758-1.385-1.045a.207.207 0 010-.332c.226-.175.486-.376.72-.634.554-.608 1.033-1.574 1.334-2.283.1-.235.182-.48.245-.727l.018-.075c.431-.104.81-.212 1.13-.31 1.7-.529 2.547-.838 3.755-.827 1.303.015 1.88.53 2.618 1.078.13.097.316.138.49.018.483-.335 1.876-1.324 3.849-1.029.68.1.91.235 2.135.642.632.212 1.118.376 1.534.496v.007c.063.246.145.489.245.727.301.705.777 1.675 1.334 2.283.234.258.494.455.72.634a.207.207 0 010 .332z" fill="#FFECC2"/><path d="M25.77 14.936c-.2.003.27-1.12 1.073-1.85 1.464-1.328 3.878-1.421 3.878-1.067 0 .213-1.52.231-2.979 1.149-1.274.802-1.63 1.76-1.976 1.768h.004zm-.223.652c.119 0 .215-.104.215-.232 0-.127-.096-.231-.215-.231-.12 0-.216.104-.216.231 0 .128.096.232.216.232z" fill="#fff" opacity=".65"/><path d="M42.072 21.753c-.36.284-.829.646-1.386 1.045-1.151.824-2.047 1.313-2.964 1.708-1.526.66-2.437.914-3.803 1.097-.093.01-.186.022-.283.037-.527.063-1.029.1-1.5.12h-.257a18.809 18.809 0 01-2.596-.284c1.894.09 4.41-.112 7.069-1.257a15.85 15.85 0 004.995-3.428c.234.257.494.455.72.634a.207.207 0 010 .332l.005-.004z" fill="#FF761B" opacity=".25"/><path d="M38.576 22.35a.797.797 0 00.795-.798.797.797 0 00-.795-.798.797.797 0 00-.795.798c0 .441.356.798.795.798zm-13.245 0a.796.796 0 00.795-.798.796.796 0 00-.795-.798.797.797 0 00-.795.798c0 .441.356.798.795.798z" fill="#FF9E83"/><path d="M30.312 19.504a.98.98 0 01-.977.981.98.98 0 11.212-1.94c.364.09.765.46.765.96zm5.438-.025a.98.98 0 01-.977.981.98.98 0 11.211-1.94c.364.09.766.46.766.959z" fill="#66261D"/><path d="M30.056 19.194a.13.13 0 01-.108-.063c-.3-.534-1.025-.43-1.24-.384h-.023a1.307 1.307 0 01-.297.048c-.245.015-.657-.1-.672-.104a.123.123 0 01-.085-.15c.018-.063.085-.104.148-.085.108.03.42.108.59.097.116-.008.201-.026.264-.038h.026c.257-.06 1.118-.179 1.5.5a.126.126 0 01-.044.168.117.117 0 01-.06.015v-.004z" fill="#66261D"/><path d="M27.92 19.052a.123.123 0 01-.122-.12c0-.066.052-.122.119-.126a2.708 2.708 0 001.014-.228.12.12 0 01.16.064.12.12 0 01-.064.16 3.05 3.05 0 01-1.103.25h-.004zm6.095.143a.117.117 0 01-.06-.015.122.122 0 01-.044-.168c.383-.675 1.244-.556 1.5-.504h.027c.063.019.145.038.263.045.171.011.487-.064.59-.097a.118.118 0 01.15.086.119.119 0 01-.086.149c-.018.004-.427.12-.672.104a1.633 1.633 0 01-.297-.044h-.023c-.215-.049-.94-.153-1.24.38a.119.119 0 01-.104.064h-.004z" fill="#66261D"/><path d="M36.15 19.052h-.003a2.712 2.712 0 01-.52-.063 2.946 2.946 0 01-.583-.187.12.12 0 01-.063-.16.12.12 0 01.16-.064c.17.075.352.13.534.172.156.034.32.052.48.056.066 0 .118.06.118.127a.12.12 0 01-.122.12z" fill="#66261D"/><path d="M27.196 15.89a.122.122 0 01-.07-.022c-.056-.037-.067-.115-.03-.171a2.8 2.8 0 01.661-.664c.245-.175.52-.306.806-.395a.124.124 0 01.152.082.125.125 0 01-.081.153 2.508 2.508 0 00-1.337.962.123.123 0 01-.1.052v.004zm9.583 0a.128.128 0 01-.1-.053 2.508 2.508 0 00-1.338-.962.123.123 0 01-.081-.153c.018-.067.085-.1.152-.082a2.799 2.799 0 011.467 1.06.125.125 0 01-.03.17.122.122 0 01-.07.023v-.004z" fill="#8E1600"/><path d="M29.001 19.397a.201.201 0 100-.402.201.201 0 000 .402zm5.434 0a.201.201 0 100-.402.201.201 0 000 .402z" fill="#fff"/><path d="M32.462 22.361h-.917c-.345 0-.587.269-.568.552-.008.094.018.228.1.414.26.586.962.858.962.858s.628-.276.888-.858a1.17 1.17 0 00.096-.306c.082-.32-.178-.66-.564-.66h.003z" fill="#66261D"/><path d="M31.545 22.556c-.019-.037-.156-.026-.249.045-.096.074-.137.212-.104.239.034.026.138-.053.186-.09.015-.011.193-.145.167-.194z" fill="#fff"/></g><defs><clipPath id="clip0_523_2386"><path fill="#fff" d="M0 0h169v52H0z"/></clipPath></defs></svg>