<svg width="32" height="32" fill="none" xmlns="http://www.w3.org/2000/svg"><path d="M27.373 13.429c.038-4.512-3.804-8.648-8.566-9.22a6.618 6.618 0 01-.307-.046 4.36 4.36 0 00-.726-.08c-.975 0-1.236.686-1.305 1.095-.067.397-.003.731.189.992.323.44.892.518 1.349.58.133.019.26.036.365.06 4.279.956 5.72 2.459 6.423 6.7.017.104.025.232.033.367.031.507.095 1.562 1.23 1.562.094 0 .195-.008.3-.024 1.057-.16 1.024-1.125 1.008-1.588a2.288 2.288 0 01.002-.336.448.448 0 00.005-.062z" fill="#fff"/><path d="M17.498 2.553c.127.009.247.018.347.033 7.025 1.08 10.256 4.409 11.15 11.489.016.12.018.267.021.422.009.553.027 1.704 1.263 1.728h.038c.388 0 .696-.117.917-.347.384-.403.358-1 .336-1.48-.005-.119-.01-.23-.009-.327C31.651 6.831 25.383.264 18.148.02a.5.5 0 00-.087.005.606.606 0 01-.086.004c-.072 0-.161-.006-.255-.012A5.327 5.327 0 0017.346 0c-1.152 0-1.37.819-1.399 1.307-.064 1.128 1.027 1.208 1.551 1.246zm11.159 20.672c-.15-.114-.304-.232-.449-.349-.767-.617-1.583-1.186-2.372-1.736-.164-.114-.328-.228-.49-.343-1.012-.71-1.92-1.055-2.78-1.055-1.155 0-2.164.64-2.996 1.9-.369.558-.816.83-1.367.83-.326 0-.697-.094-1.101-.277-3.263-1.48-5.593-3.748-6.925-6.743-.644-1.447-.436-2.393.698-3.163.644-.437 1.842-1.25 1.757-2.808-.096-1.769-3.999-7.09-5.643-7.695-.696-.256-1.427-.258-2.178-.006-1.89.636-3.246 1.752-3.923 3.227-.653 1.426-.624 3.1.086 4.842 2.05 5.035 4.934 9.425 8.57 13.047 3.56 3.547 7.935 6.451 13.003 8.634.457.197.936.304 1.286.382.12.027.222.05.298.07a.495.495 0 00.126.018h.04c2.384 0 5.246-2.178 6.125-4.662.77-2.174-.636-3.25-1.765-4.113zM18.552 8.305c-.408.01-1.257.031-1.555.896-.14.404-.123.755.05 1.043.252.423.737.552 1.178.623 1.6.257 2.42 1.141 2.585 2.783.076.766.592 1.3 1.254 1.3.048 0 .099-.003.148-.009.796-.095 1.182-.68 1.147-1.738.013-1.105-.565-2.359-1.549-3.358-.986-1.002-2.176-1.567-3.258-1.54z" fill="#fff"/></svg>