<svg width="279" height="1105" fill="none" xmlns="http://www.w3.org/2000/svg"><path opacity=".6" d="M12.121 1c8.004 149.324 241.634 0 261.646 131.205 14.046 92.096-71.04 116.836-163.091 94.343-92.051-22.492-148.082 125.583-38.02 156.197 110.06 30.615 196.608-28.74 201.111 93.094 4.502 121.833-262.146 28.115-259.645 126.207 2.502 98.092 146.081 101.215 205.114 107.463 59.033 6.248 81.045 95.593 31.018 135.579-50.028 39.987-234.132 2.499-248.138 92.469C-5.193 984.5 39 1039.48 151.698 1030.65c95.654-7.5 120.568 46.44 121.068 74.35" stroke="#fff" stroke-dasharray="6.13 6.13"/></svg>