<svg width="1592" height="1948" fill="none" xmlns="http://www.w3.org/2000/svg"><path opacity=".6" d="M67.5 68.58c41.666 53.001 170.699 156.101 353.499 144.501 228.5-14.5 483.308-124.329 630.501-177.495 317-114.5 435.19 95.89 379 272.494-59.5 187.006-473.001 138.5-704.001 85.5s-394.5 10.006-440.5 156.506c-46 146.499 161.5 275.994 354 206.494 192.5-69.5 919.691-206.494 947.001 83.506 19.28 204.734-115.59 232.664-286 232.664-169.5 0-561.619-113.818-786.501-159.67C156.5 840.086 2.999 923.885 3 1118.09c0 236 686.5 172.5 927.999 100.49 194.271-57.92 480.881-63.31 510.001 170.51 33.5 269-272.78 187.41-425 161.5-211.5-36-432.403-108.23-638.501-74.51-189.5 31-324.999 245.01-177.999 355.51 147 110.5 957.5-161.51 1148.5-79.01 110.69 47.81 107.5 192-29 192" stroke="#fff" stroke-width="5" stroke-dasharray="30 30"/></svg>