<svg width="50" height="50" fill="none" xmlns="http://www.w3.org/2000/svg"><path d="M25 .002c-13.807 0-25 11.193-25 25s11.193 25 25 25 25-11.193 25-25-11.193-25-25-25zm-8.984 9.93c.515-.03.98.278 1.333.824l3.418 6.482c.36.768.156 1.59-.381 2.14l-1.566 1.565a.766.766 0 00-.162.446c.6 2.324 2.422 4.467 4.029 5.941 1.607 1.475 3.333 3.47 5.575 3.943.277.078.617.105.815-.079l1.819-1.852c.628-.476 1.536-.707 2.206-.318h.03l6.169 3.641c.905.567.999 1.664.35 2.331l-4.248 4.215c-.627.643-1.46.86-2.27.86-3.581-.107-6.965-1.864-9.744-3.67-4.562-3.32-8.747-7.436-11.374-12.41-1.008-2.085-2.191-4.745-2.078-7.073.01-.876.247-1.734.863-2.298l4.248-4.248c.331-.282.659-.421.968-.44z" fill="#fff"/></svg>