<svg width="50" height="55" fill="none" xmlns="http://www.w3.org/2000/svg"><path fill-rule="evenodd" clip-rule="evenodd" d="M37.706 1.403a58.25 58.25 0 00-25.415 0l-.901.2a13.047 13.047 0 00-9.8 9.522 51.779 51.779 0 000 25.473 13.047 13.047 0 009.161 9.362l1.237 7.384a1.33 1.33 0 002.197.771l7.264-6.498a58.245 58.245 0 0016.257-1.295l.904-.2a13.047 13.047 0 009.8-9.522 51.784 51.784 0 000-25.473 13.047 13.047 0 00-9.802-9.522l-.902-.202zm-23.17 9.506a2.186 2.186 0 00-1.428.282h-.037a10.927 10.927 0 00-2.663 2.19c-.638.736-.984 1.48-1.074 2.199-.054.425-.016.856.109 1.263l.048.027a31.584 31.584 0 002.798 6.048 35.569 35.569 0 005.4 7.381l.063.09.101.075.061.072.075.064a36.077 36.077 0 007.4 5.426c3.072 1.673 4.936 2.463 6.056 2.793v.016c.327.1.625.146.925.146a4.282 4.282 0 002.565-1.101 10.484 10.484 0 002.165-2.67v-.02c.534-1.01.353-1.962-.418-2.608a32.254 32.254 0 00-5.003-3.591c-1.192-.647-2.402-.256-2.891.399l-1.046 1.319c-.537.654-1.51.564-1.51.564l-.027.016c-7.264-1.854-9.203-9.209-9.203-9.209s-.09-1 .582-1.51l1.31-1.054c.627-.51 1.063-1.718.39-2.91a31.403 31.403 0 00-3.583-5 1.99 1.99 0 00-1.17-.7l.005.003zM26.81 7.712a1.33 1.33 0 000 2.66c3.364 0 6.157 1.098 8.368 3.205a11.787 11.787 0 012.6 4.011c.583 1.497.85 3.096.78 4.697a1.331 1.331 0 002.66.112 14.255 14.255 0 00-.96-5.772 14.475 14.475 0 00-3.203-4.931l-.026-.027c-2.742-2.62-6.213-3.955-10.22-3.955zm-.09 4.373a1.33 1.33 0 100 2.66h.045c2.425.173 4.191.981 5.428 2.308 1.269 1.367 1.926 3.067 1.875 5.168a1.33 1.33 0 002.66.062c.064-2.759-.824-5.14-2.585-7.038v-.006c-1.8-1.93-4.272-2.952-7.246-3.152l-.045-.005-.133.003zm-.051 4.455a1.33 1.33 0 10-.139 2.655c1.112.058 1.823.393 2.27.843.449.452.784 1.178.845 2.314a1.331 1.331 0 102.655-.141c-.085-1.596-.585-3.006-1.61-4.043-1.029-1.037-2.43-1.543-4.021-1.628z" fill="#fff"/></svg>