<svg width="32" height="32" fill="none" xmlns="http://www.w3.org/2000/svg"><g clip-path="url(#clip0_523_2520)" fill="#fff"><path d="M31.506 3.179c-.391-.478-.977-.741-1.649-.741-.365 0-.752.077-1.15.228L1.619 13.006c-1.437.55-1.63 1.372-1.618 1.814.012.442.252 1.253 1.718 1.72l.027.008 3.798 1.087 18.501-9.452a.937.937 0 011.109 1.477L14.869 20.59l-.293 1.19 3.673 2.957 5.09 4.1.014.01c.56.434 1.172.664 1.769.664 1.168 0 2.097-.864 2.368-2.2l4.438-21.916c.178-.88.029-1.666-.421-2.216z"/><path d="M13.107 19.903a.935.935 0 01.227-.418l6.75-7.172L7.559 18.71l2.844 8.134c.162.463.403.858.701 1.167l2.002-8.11zm-.257 8.862c.676-.006 1.34-.291 1.922-.827l2.08-1.916-2.774-2.234-1.228 4.977z"/></g><defs><clipPath id="clip0_523_2520"><path fill="#fff" d="M0 0h32v32H0z"/></clipPath></defs></svg>