<svg width="29" height="32" fill="none" xmlns="http://www.w3.org/2000/svg"><path d="M17.6 0h-6.4C4.997 0 0 4.997 0 11.2V16c0 4.332 2.486 8.27 6.4 10.117v5.366c0 .27.246.517.566.517a.55.55 0 00.37-.148l4.627-4.652H17.6c6.203 0 11.2-4.997 11.2-11.2v-4.8C28.8 4.997 23.803 0 17.6 0zm4.21 20.997l-1.6 1.6c-1.724 1.674-6.155-.246-10.069-4.234C6.229 14.375 4.48 9.871 6.13 8.197l1.6-1.6c.64-.59 1.65-.566 2.29.05l2.313 2.411c.591.64.591 1.6-.049 2.24-.172.173-.37.271-.59.37-.813.246-1.232 1.034-1.034 1.846.393 1.772 2.633 3.988 4.332 4.43.787.198 1.6-.245 1.87-1.009.271-.787 1.157-1.23 1.994-.96.247.074.444.246.64.394l2.314 2.413c.591.59.591 1.575 0 2.215zm-5.982-13.39c-.173 0-.32 0-.468.048-.27.05-.566-.172-.59-.492-.025-.32.171-.566.467-.59.197-.05.394-.05.59-.05 2.955 0 5.318 2.412 5.367 5.317 0 .197 0 .394-.05.59-.049.271-.27.518-.59.469-.32-.05-.517-.271-.468-.591 0-.173.05-.32.05-.468-.025-2.314-1.945-4.234-4.308-4.234zm3.2 4.282c-.05.271-.271.517-.591.468-.246-.05-.468-.246-.468-.468 0-1.157-.96-2.117-2.117-2.117-.27.05-.566-.197-.59-.492-.05-.27.197-.566.467-.59h.074c1.846 0 3.225 1.427 3.225 3.2zm4.086 1.699a.561.561 0 01-.59.443c-.272-.025-.469-.32-.444-.591v-.074c.123-.467.172-.96.172-1.477 0-3.52-2.88-6.4-6.4-6.4h-.467c-.271.05-.566-.197-.566-.492-.05-.27.196-.566.467-.566.197 0 .394-.05.566-.05 4.111 0 7.483 3.348 7.483 7.484a9.995 9.995 0 01-.221 1.723z" fill="#fff"/></svg>