<svg width="110" height="87" viewBox="0 0 110 87" fill="none" xmlns="http://www.w3.org/2000/svg">
<rect x="1.5" y="2.33789" width="107" height="83" rx="18.5" stroke="url(#paint0_linear_3020_62)" stroke-width="3"/>
<path d="M48.644 29.6009C48.4398 29.8411 48.2779 30.1265 48.1674 30.4407C48.0569 30.7549 48 31.0917 48 31.4319C48 31.7721 48.0569 32.1089 48.1674 32.4231C48.2779 32.7373 48.4398 33.0227 48.644 33.2629L57.1878 43.3402L48.644 53.4174C48.2322 53.903 48.0009 54.5616 48.0009 55.2484C48.0009 55.9352 48.2322 56.5938 48.644 57.0795C49.0557 57.5651 49.6141 57.8379 50.1964 57.8379C50.7787 57.8379 51.3371 57.5651 51.7488 57.0795L61.856 45.1582C62.0602 44.9179 62.2221 44.6325 62.3326 44.3183C62.4431 44.0041 62.5 43.6673 62.5 43.3272C62.5 42.987 62.4431 42.6502 62.3326 42.336C62.2221 42.0218 62.0602 41.7364 61.856 41.4961L51.7488 29.5749C50.912 28.5879 49.5028 28.5879 48.644 29.6009Z" fill="#FD7914"/>
<defs>
<linearGradient id="paint0_linear_3020_62" x1="26.9994" y1="1.60019" x2="109.633" y2="75.0265" gradientUnits="userSpaceOnUse">
<stop stop-color="#FD7914"/>
<stop offset="1" stop-color="#FFB800"/>
</linearGradient>
</defs>
</svg>
