<svg width="110" height="86" viewBox="0 0 110 86" fill="none" xmlns="http://www.w3.org/2000/svg">
<path fill-rule="evenodd" clip-rule="evenodd" d="M20 0C8.95431 0 0 8.9543 0 20V66C0 77.0457 8.95431 86 20 86H90C101.046 86 110 77.0457 110 66V20C110 8.95431 101.046 0 90 0H20ZM62.3326 29.6028C62.2221 29.2886 62.0602 29.0032 61.856 28.763C60.9972 27.75 59.588 27.75 58.7512 28.737L48.644 40.6582C48.4398 40.8985 48.2779 41.1839 48.1674 41.4981C48.0569 41.8123 48 42.1491 48 42.4893C48 42.8294 48.0569 43.1662 48.1674 43.4804C48.2779 43.7946 48.4398 44.08 48.644 44.3203L58.7512 56.2416C59.1629 56.7272 59.7213 57 60.3036 57C60.8859 57 61.4443 56.7272 61.856 56.2416C62.2678 55.7559 62.4991 55.0973 62.4991 54.4105C62.4991 53.7237 62.2678 53.0651 61.856 52.5795L53.3122 42.5023L61.856 32.425C62.0602 32.1848 62.2221 31.8994 62.3326 31.5852C62.4431 31.271 62.5 30.9342 62.5 30.594C62.5 30.2539 62.4431 29.917 62.3326 29.6028Z" fill="url(#paint0_linear_535_2202)"/>
<defs>
<linearGradient id="paint0_linear_535_2202" x1="26.9994" y1="0.762302" x2="109.633" y2="74.1886" gradientUnits="userSpaceOnUse">
<stop stop-color="#FD7914"/>
<stop offset="1" stop-color="#FFB800"/>
</linearGradient>
</defs>
</svg>
