<svg width="140" height="116" viewBox="0 0 140 116" fill="none" xmlns="http://www.w3.org/2000/svg">
<g filter="url(#filter0_d_2034_2148)">
<rect x="12.5" y="11.5" width="107" height="83" rx="18.5" stroke="url(#paint0_linear_2034_2148)" stroke-width="3" shape-rendering="crispEdges"/>
</g>
<path d="M72.856 38.763C73.0602 39.0032 73.2221 39.2886 73.3326 39.6028C73.4431 39.917 73.5 40.2539 73.5 40.594C73.5 40.9342 73.4431 41.271 73.3326 41.5852C73.2221 41.8994 73.0602 42.1848 72.856 42.425L64.3122 52.5023L72.856 62.5795C73.2678 63.0651 73.4991 63.7237 73.4991 64.4105C73.4991 65.0973 73.2678 65.7559 72.856 66.2416C72.4443 66.7272 71.8859 67 71.3036 67C70.7213 67 70.1629 66.7272 69.7512 66.2416L59.644 54.3203C59.4398 54.08 59.2779 53.7946 59.1674 53.4804C59.0569 53.1662 59 52.8294 59 52.4893C59 52.1491 59.0569 51.8123 59.1674 51.4981C59.2779 51.1839 59.4398 50.8985 59.644 50.6582L69.7512 38.737C70.588 37.75 71.9972 37.75 72.856 38.763Z" fill="#FD7914"/>
<defs>
<filter id="filter0_d_2034_2148" x="0.7" y="0.7" width="138.6" height="114.6" filterUnits="userSpaceOnUse" color-interpolation-filters="sRGB">
<feFlood flood-opacity="0" result="BackgroundImageFix"/>
<feColorMatrix in="SourceAlpha" type="matrix" values="0 0 0 0 0 0 0 0 0 0 0 0 0 0 0 0 0 0 127 0" result="hardAlpha"/>
<feOffset dx="4" dy="5"/>
<feGaussianBlur stdDeviation="7.15"/>
<feComposite in2="hardAlpha" operator="out"/>
<feColorMatrix type="matrix" values="0 0 0 0 0.0502638 0 0 0 0 0.211667 0 0 0 0 0.0239889 0 0 0 0.25 0"/>
<feBlend mode="normal" in2="BackgroundImageFix" result="effect1_dropShadow_2034_2148"/>
<feBlend mode="normal" in="SourceGraphic" in2="effect1_dropShadow_2034_2148" result="shape"/>
</filter>
<linearGradient id="paint0_linear_2034_2148" x1="37.9994" y1="10.7623" x2="120.633" y2="84.1886" gradientUnits="userSpaceOnUse">
<stop stop-color="#FD7914"/>
<stop offset="1" stop-color="#FFB800"/>
</linearGradient>
</defs>
</svg>
