<svg width="110" height="87" viewBox="0 0 110 87" fill="none" xmlns="http://www.w3.org/2000/svg">
<rect x="1.5" y="2.33789" width="107" height="83" rx="18.5" stroke="url(#paint0_linear_3021_63)" stroke-width="3"/>
<path d="M61.856 29.6009C62.0602 29.8411 62.2221 30.1265 62.3326 30.4407C62.4431 30.7549 62.5 31.0917 62.5 31.4319C62.5 31.7721 62.4431 32.1089 62.3326 32.4231C62.2221 32.7373 62.0602 33.0227 61.856 33.2629L53.3122 43.3402L61.856 53.4174C62.2678 53.903 62.4991 54.5616 62.4991 55.2484C62.4991 55.9352 62.2678 56.5938 61.856 57.0795C61.4443 57.5651 60.8859 57.8379 60.3036 57.8379C59.7213 57.8379 59.1629 57.5651 58.7512 57.0795L48.644 45.1582C48.4398 44.9179 48.2779 44.6325 48.1674 44.3183C48.0569 44.0041 48 43.6673 48 43.3272C48 42.987 48.0569 42.6502 48.1674 42.336C48.2779 42.0218 48.4398 41.7364 48.644 41.4961L58.7512 29.5749C59.588 28.5879 60.9972 28.5879 61.856 29.6009Z" fill="#FD7914"/>
<defs>
<linearGradient id="paint0_linear_3021_63" x1="26.9994" y1="1.60019" x2="109.633" y2="75.0265" gradientUnits="userSpaceOnUse">
<stop stop-color="#FD7914"/>
<stop offset="1" stop-color="#FFB800"/>
</linearGradient>
</defs>
</svg>
