<svg width="110" height="86" viewBox="0 0 110 86" fill="none" xmlns="http://www.w3.org/2000/svg">
<path fill-rule="evenodd" clip-rule="evenodd" d="M90 0C101.046 0 110 8.9543 110 20V66C110 77.0457 101.046 86 90 86H20C8.95431 86 0 77.0457 0 66V20C0 8.95431 8.95431 0 20 0H90ZM47.6674 29.6028C47.7779 29.2886 47.9398 29.0032 48.144 28.763C49.0028 27.75 50.412 27.75 51.2488 28.737L61.356 40.6582C61.5602 40.8985 61.7221 41.1839 61.8326 41.4981C61.9431 41.8123 62 42.1491 62 42.4893C62 42.8294 61.9431 43.1662 61.8326 43.4804C61.7221 43.7946 61.5602 44.08 61.356 44.3203L51.2488 56.2416C50.8371 56.7272 50.2787 57 49.6964 57C49.1141 57 48.5557 56.7272 48.144 56.2416C47.7322 55.7559 47.5009 55.0973 47.5009 54.4105C47.5009 53.7237 47.7322 53.0651 48.144 52.5795L56.6878 42.5023L48.144 32.425C47.9398 32.1848 47.7779 31.8994 47.6674 31.5852C47.5569 31.271 47.5 30.9342 47.5 30.594C47.5 30.2539 47.5569 29.917 47.6674 29.6028Z" fill="url(#paint0_linear_535_2205)"/>
<defs>
<linearGradient id="paint0_linear_535_2205" x1="83.0006" y1="0.762302" x2="0.366844" y2="74.1886" gradientUnits="userSpaceOnUse">
<stop stop-color="#FD7914"/>
<stop offset="1" stop-color="#FFB800"/>
</linearGradient>
</defs>
</svg>
