<svg width="38" height="36" viewBox="0 0 38 36" fill="none" xmlns="http://www.w3.org/2000/svg">
<path d="M10.7872 35.6614C10.4535 35.8339 10.055 35.856 9.65412 35.4554L0.509833 26.1174C-0.298769 25.2921 -0.110467 24.205 0.826812 23.5281C2.02471 22.663 3.62634 21.2527 4.97792 19.1908C5.61092 18.2241 6.51569 18.1593 7.14138 19.1302L9.39696 22.6318C10.0236 23.6037 10.7445 24.8224 11.1315 24.6854C11.2884 24.63 11.4789 24.494 11.7058 24.2252L30.0377 1.18228C30.7574 0.278472 31.7732 0.375605 32.3079 1.39982L37.5115 11.3812C38.046 12.4054 37.749 13.823 36.8483 14.5469L13.2907 33.4781C12.3909 34.2021 11.4004 35.3465 10.7872 35.6614Z" fill="url(#paint0_linear_1007_689)"/>
<defs>
<linearGradient id="paint0_linear_1007_689" x1="9.27242" y1="0.875384" x2="41.9243" y2="25.2087" gradientUnits="userSpaceOnUse">
<stop stop-color="#FD7914"/>
<stop offset="1" stop-color="#FFB800"/>
</linearGradient>
</defs>
</svg>
