<svg width="38" height="36" viewBox="0 0 38 36" fill="none" xmlns="http://www.w3.org/2000/svg">
<path d="M10.7872 35.7754C10.4535 35.9479 10.055 35.97 9.65412 35.5694L0.509833 26.2314C-0.298769 25.4061 -0.110467 24.319 0.826812 23.6421C2.02471 22.777 3.62634 21.3667 4.97792 19.3048C5.61092 18.3381 6.51569 18.2733 7.14138 19.2442L9.39696 22.7458C10.0236 23.7177 10.7445 24.9364 11.1315 24.7994C11.2884 24.744 11.4789 24.6081 11.7058 24.3392L30.0377 1.2963C30.7574 0.392486 31.7732 0.489618 32.3079 1.51384L37.5115 11.4952C38.046 12.5194 37.749 13.937 36.8483 14.6609L13.2907 33.5921C12.3909 34.3161 11.4004 35.4605 10.7872 35.7754Z" fill="white" fill-opacity="0.6"/>
</svg>
