<svg width="28" height="38" viewBox="0 0 28 38" fill="none" xmlns="http://www.w3.org/2000/svg">
<g clip-path="url(#clip0_548_2380)">
<path d="M20.8366 28.4161C21.3364 28.7728 22.5628 29.6464 24.1132 29.4116C24.2196 29.3958 25.4645 29.1927 26.3091 28.2468C28.4426 25.8653 26.559 20.4251 23.7638 18.6689C23.3843 18.4319 22.623 17.9669 21.7113 18.1068C20.7186 18.2581 20.1124 19.0391 19.6588 19.6238C19.3395 20.0346 18.3699 21.319 18.3052 23.2197C18.238 25.1926 19.1683 27.2288 20.8389 28.4184L20.8366 28.4161Z" fill="white"/>
<path d="M15.423 26.1975C16.4227 27.1975 17.096 28.044 17.2997 28.3014C19.8589 31.5452 20.0324 32.2517 20.0995 32.6174C20.1875 33.0892 20.361 34.0328 19.9584 34.9944C18.9634 37.3827 15.2148 38.008 12.9587 37.8635C9.78161 37.6581 7.78467 35.8116 7.07891 35.1592C6.66009 34.7732 6.27597 34.3601 6.04226 33.7664C5.57484 32.5723 6.00293 31.421 6.10705 31.1479C6.84983 29.2224 8.38398 29.7799 10.0685 27.5091C10.8645 26.4368 11.3042 25.2607 12.5352 24.877C12.6787 24.8318 12.9841 24.7393 13.3775 24.7777C14.1596 24.8522 14.6386 25.4165 15.4207 26.1975H15.423Z" fill="white"/>
<path d="M5.67084 18.2858C6.33494 18.7486 7.01525 19.2294 7.74183 20.0578C8.29024 20.6809 8.56328 20.9924 8.72758 21.4642C9.09087 22.5025 8.69287 23.4732 8.29255 24.4484C7.96397 25.2475 7.43407 26.5432 6.0619 27.471C5.58291 27.796 4.87484 28.2746 3.85207 28.2994C2.38965 28.3333 1.39696 27.4078 1.18871 27.2024C0.31172 26.34 0.152057 25.3107 0.043301 24.6041C-0.0932224 23.7147 0.0826382 22.857 0.438987 21.1775C1.08921 18.1188 1.552 17.6944 1.91992 17.4822C2.58634 17.0939 3.33606 17.1729 3.53737 17.1933C4.18065 17.261 4.68509 17.6041 5.66853 18.2903L5.67084 18.2858Z" fill="white"/>
<path d="M20.0964 6.68599C21.096 7.29322 21.5935 8.09232 21.855 8.51896C22.0586 8.8553 22.6255 9.86208 22.7065 11.2887C22.7944 12.8486 22.2507 13.984 22.017 14.4558C21.7231 15.0472 21.251 15.4513 20.374 16.2955C19.3443 17.2865 18.8283 17.7809 18.2845 17.8621C16.8777 18.0698 15.6443 16.5596 15.4777 16.3565C14.603 15.2865 14.5059 14.1352 14.4017 12.9343C14.3138 11.9072 14.1773 10.0246 15.2625 8.14198C15.7253 7.33611 16.3501 6.24806 17.5348 6.00427C18.6154 5.78305 19.5387 6.34513 20.0987 6.68373L20.0964 6.68599Z" fill="white"/>
<path d="M10.2899 8.81646C11.1507 9.98125 11.949 11.0603 12.0624 12.7081C12.0948 13.2002 12.1272 14.6201 11.2664 16.0377C10.8638 16.7014 10.475 17.3447 9.72299 17.6337C8.13561 18.2454 6.1433 16.812 5.17607 15.5637C5.02566 15.3695 4.30833 14.4666 4.10008 13.0693C4.05611 12.7646 3.68819 9.98802 5.62266 7.94286C6.13636 7.39884 6.8236 6.67423 7.75381 6.6968C8.7465 6.72163 9.40829 7.62232 10.2899 8.8142V8.81646Z" fill="white"/>
<path d="M2.82213 15.2733C3.03039 14.6864 2.20199 14.2755 2.25059 13.1581C2.27141 12.6728 2.26216 12.1852 2.29224 11.6999C2.29224 11.6728 2.29918 11.5486 2.24827 11.4042C2.21125 11.3003 2.11869 11.1243 2.01225 11.1062C1.76929 11.0633 1.51244 11.8421 1.45227 12.0475C1.38054 12.289 1.23708 12.8286 1.21162 14.7699C1.20468 15.2981 1.21162 15.6074 1.39211 15.7902C1.61425 16.0137 1.96597 15.9121 2.10249 15.8737C2.17886 15.8511 2.66941 15.7112 2.82213 15.2755V15.2733Z" fill="white"/>
<path d="M9.57461 4.77615C9.92633 4.25922 9.23215 3.65876 9.56304 2.58878C9.70882 2.12376 9.82452 1.64972 9.97724 1.18696C9.9865 1.15987 10.0235 1.04249 10.0096 0.888992C10.0004 0.778382 9.95642 0.586507 9.85923 0.54136C9.63478 0.43978 9.18587 1.13279 9.0748 1.31563C8.9429 1.53234 8.66754 2.01993 8.14227 3.89127C7.99881 4.40143 7.92476 4.70166 8.05434 4.92288C8.21169 5.1915 8.5773 5.18022 8.72076 5.1757C8.79944 5.17344 9.31082 5.15764 9.5723 4.77389L9.57461 4.77615Z" fill="white"/>
<path d="M23.5853 17.2541C23.3632 16.6717 24.18 16.2428 24.1036 15.1254C24.0712 14.6401 24.0689 14.1525 24.025 13.6672C24.0226 13.6401 24.0134 13.516 24.062 13.3715C24.0967 13.2654 24.1823 13.0893 24.2887 13.0667C24.5317 13.0171 24.8071 13.7913 24.8742 13.9945C24.9505 14.236 25.1079 14.771 25.1842 16.7101C25.2051 17.2383 25.2074 17.5476 25.0292 17.7349C24.8117 17.9629 24.46 17.8704 24.3211 17.8343C24.2448 17.8139 23.7519 17.6853 23.5853 17.2541Z" fill="white"/>
<path d="M16.6157 4.189C16.2061 3.71496 16.8262 3.04001 16.3681 2.01517C16.1691 1.56821 15.9978 1.11223 15.7919 0.669789C15.7803 0.644958 15.7294 0.532091 15.7248 0.378591C15.7225 0.26798 15.741 0.0738483 15.8336 0.0174145C16.0441 -0.108997 16.5717 0.529833 16.7036 0.699134C16.8586 0.900039 17.1918 1.35151 17.9323 3.15288C18.1336 3.64498 18.2424 3.93392 18.1406 4.16868C18.0156 4.45537 17.65 4.48471 17.5089 4.496C17.4302 4.50277 16.9211 4.5434 16.6157 4.19126V4.189Z" fill="white"/>
</g>
<defs>
<clipPath id="clip0_548_2380">
<rect width="27.2283" height="37.8829" fill="white"/>
</clipPath>
</defs>
</svg>
