<svg width="32" height="32" viewBox="0 0 32 32" fill="none" xmlns="http://www.w3.org/2000/svg">
<path d="M30.3928 5.03223L16.0004 19.3622L1.60791 5.03223C1.02766 5.30985 0.559852 5.77766 0.282227 6.35791L14.0119 20.025C15.072 21.0852 16.9297 21.0852 17.988 20.025L31.7185 6.35779C31.4409 5.7776 30.973 5.30985 30.3928 5.03223Z" fill="white"/>
<path d="M3.97656 4.75L15.9995 16.7104L28.0224 4.75H3.97656Z" fill="white"/>
<path d="M0 8.72754V24.4379C0 25.6585 0.786125 26.6894 1.875 27.0777V10.6025L0 8.72754Z" fill="white"/>
<path d="M26.375 14.3525L19.3767 21.3508C18.4933 22.2352 17.2542 22.7223 16 22.7223C14.7458 22.7223 13.5692 22.2352 12.6849 21.3509L5.625 14.3529L3.75 12.4777V27.2505C12.6994 27.2505 19.2963 27.2505 28.25 27.2505V12.4775L26.375 14.3525Z" fill="white"/>
<path d="M30.125 10.6025V27.0778C31.2139 26.6895 32 25.6586 32 24.438V8.72754L30.125 10.6025Z" fill="white"/>
</svg>
