<svg width="32" height="32" viewBox="0 0 32 32" fill="none" xmlns="http://www.w3.org/2000/svg">
<path d="M22.5071 15.9996C22.5071 19.5926 19.5945 22.5051 16.0016 22.5051C12.4086 22.5051 9.49609 19.5926 9.49609 15.9996C9.49609 12.4067 12.4086 9.49414 16.0016 9.49414C19.5945 9.49414 22.5071 12.4067 22.5071 15.9996Z" fill="white"/>
<path d="M31.2143 4.48964C30.9016 3.64222 30.4027 2.87519 29.7544 2.2456C29.1248 1.59733 28.3583 1.09842 27.5104 0.785699C26.8227 0.518613 25.7896 0.200703 23.8868 0.114095C21.8284 0.020226 21.2113 0 16.0003 0C10.7887 0 10.1716 0.0197073 8.11371 0.113576C6.21091 0.200703 5.17732 0.518613 4.49015 0.785699C3.64222 1.09842 2.87519 1.59733 2.24611 2.2456C1.59785 2.87519 1.09894 3.6417 0.785699 4.48964C0.518613 5.17732 0.200703 6.21091 0.114095 8.11371C0.020226 10.1716 0 10.7887 0 16.0003C0 21.2113 0.020226 21.8284 0.114095 23.8868C0.200703 25.7896 0.518613 26.8227 0.785699 27.5104C1.09894 28.3583 1.59733 29.1248 2.2456 29.7544C2.87519 30.4027 3.6417 30.9016 4.48964 31.2143C5.17732 31.4819 6.21091 31.7998 8.11371 31.8864C10.1716 31.9803 10.7882 32 15.9997 32C21.2118 32 21.829 31.9803 23.8863 31.8864C25.7891 31.7998 26.8227 31.4819 27.5104 31.2143C29.2125 30.5577 30.5577 29.2125 31.2143 27.5104C31.4814 26.8227 31.7993 25.7896 31.8864 23.8868C31.9803 21.8284 32 21.2113 32 16.0003C32 10.7887 31.9803 10.1716 31.8864 8.11371C31.7998 6.21091 31.4819 5.17732 31.2143 4.48964ZM16.0003 26.0214C10.4651 26.0214 5.97806 21.5349 5.97806 15.9997C5.97806 10.4646 10.4651 5.97806 16.0003 5.97806C21.5349 5.97806 26.0219 10.4646 26.0219 15.9997C26.0219 21.5349 21.5349 26.0214 16.0003 26.0214ZM26.4182 7.92389C25.1247 7.92389 24.0761 6.87526 24.0761 5.58184C24.0761 4.28841 25.1247 3.23978 26.4182 3.23978C27.7116 3.23978 28.7602 4.28841 28.7602 5.58184C28.7597 6.87526 27.7116 7.92389 26.4182 7.92389Z" fill="white"/>
</svg>
