<svg width="84" height="84" viewBox="0 0 84 84" fill="none" xmlns="http://www.w3.org/2000/svg">
<path d="M58.5549 52.3442C59.5573 52.6844 62.0161 53.5166 64.4293 52.3359C64.5951 52.2554 66.5252 51.2829 67.4152 49.2759C69.6674 44.219 63.7634 36.1074 58.2811 34.6022C57.5376 34.4002 56.0514 34.0125 54.6333 34.71C53.0887 35.4675 52.5028 37.0784 52.0647 38.2841C51.7559 39.1317 50.8373 41.7668 51.7181 44.9689C52.6325 48.2925 55.2105 51.2138 58.5599 52.3468L58.5549 52.3442Z" fill="white" fill-opacity="0.3"/>
<path d="M48.5488 51.3967C50.7025 52.5552 52.2429 53.6237 52.7095 53.9491C58.5781 58.0547 59.2286 59.1444 59.5282 59.72C59.9169 60.4618 60.6905 61.9467 60.5313 63.755C60.1442 68.2436 54.3394 71.1946 50.5754 72.1023C45.2738 73.3772 41.05 71.3151 39.5574 70.5867C38.6722 70.1563 37.8296 69.6631 37.1393 68.7922C35.7551 67.0392 35.8574 64.9017 35.8859 64.3933C36.1009 60.8047 38.8988 60.9533 40.4744 56.3094C41.2194 54.1164 41.3277 51.9317 43.1414 50.6651C43.3525 50.5168 43.8039 50.207 44.467 50.0707C45.7846 49.7968 46.8607 50.4938 48.545 51.3979L48.5488 51.3967Z" fill="white" fill-opacity="0.3"/>
<path d="M28.4976 43.1727C29.8238 43.6062 31.1858 44.0615 32.8039 45.0729C34.024 45.8325 34.6322 46.2129 35.1457 46.9159C36.2788 48.4622 36.1319 50.2833 35.9836 52.113C35.8612 53.6126 35.6673 56.0428 33.9053 58.2882C33.2908 59.0741 32.3815 60.2324 30.722 60.7945C28.3484 61.5955 26.2447 60.5577 25.7976 60.3213C23.916 59.33 23.1205 57.695 22.5759 56.5724C21.891 55.1589 21.7332 53.6392 21.4441 50.6576C20.9194 45.2267 21.4558 44.2835 21.9473 43.7424C22.8354 42.7558 24.1023 42.5058 24.442 42.4372C25.529 42.2226 26.5319 42.5379 28.4962 43.1814L28.4976 43.1727Z" fill="white" fill-opacity="0.3"/>
<path d="M46.0625 16.4879C48.0123 16.9915 49.2406 18.0706 49.8896 18.6488C50.3972 19.1059 51.8468 20.4959 52.7198 22.8333C53.6733 25.3893 53.3736 27.5593 53.2364 28.4649C53.0629 29.6006 52.5008 30.5146 51.5051 32.3687C50.3358 34.5452 49.7487 35.6322 48.9018 36.0445C46.7091 37.107 43.9085 35.217 43.5306 34.9631C41.545 33.6244 40.7884 31.7543 39.9948 29.805C39.3178 28.1373 38.1172 25.0679 38.9144 21.3764C39.2528 19.7972 39.7096 17.665 41.5202 16.6554C43.1723 15.7364 44.9737 16.2035 46.0652 16.483L46.0625 16.4879Z" fill="white" fill-opacity="0.3"/>
<path d="M31.1348 25.0339C33.147 26.5378 35.0125 27.9304 36.0533 30.6202C36.3617 31.4242 37.1518 33.7751 36.4802 36.5769C36.1664 37.8884 35.8647 39.159 34.7851 40.0236C32.5071 41.8517 28.5053 40.476 26.2757 38.8871C25.929 38.64 24.2873 37.4997 23.2214 35.276C22.9914 34.7903 20.9484 30.3482 23.0498 25.9534C23.6073 24.7848 24.3549 23.2268 25.8876 22.7909C27.5237 22.3269 29.0734 23.4917 31.1337 25.0301L31.1348 25.0339Z" fill="white" fill-opacity="0.3"/>
<path d="M22.2758 39.5996C22.3116 38.5151 20.7438 38.2518 20.2432 36.364C20.0253 35.5442 19.7571 34.736 19.5543 33.9114C19.5403 33.8663 19.4872 33.6557 19.3289 33.4408C19.2145 33.2865 18.9717 33.04 18.7883 33.0641C18.3688 33.1163 18.3531 34.5456 18.3613 34.9187C18.3694 35.3579 18.4149 36.3305 19.3811 39.5802C19.6439 40.4645 19.8158 40.9766 20.2059 41.1896C20.6851 41.4491 21.2075 41.1006 21.4108 40.9672C21.5239 40.8906 22.2534 40.4076 22.277 39.6034L22.2758 39.5996Z" fill="white" fill-opacity="0.3"/>
<path d="M27.8684 18.6596C28.1752 17.6187 26.7284 16.9709 26.714 15.0185C26.7109 14.1689 26.654 13.3197 26.6635 12.4703C26.6646 12.4205 26.6642 12.2059 26.5618 11.957C26.4893 11.7773 26.3178 11.4798 26.1354 11.454C25.7157 11.3989 25.3414 12.7829 25.2547 13.1443C25.1515 13.5728 24.9544 14.5259 25.067 17.9135C25.0972 18.8371 25.132 19.3754 25.4587 19.6782C25.8555 20.046 26.4474 19.8411 26.6797 19.7605C26.8071 19.7167 27.6351 19.43 27.8634 18.6571L27.8684 18.6596Z" fill="white" fill-opacity="0.3"/>
<path d="M57.2554 32.3331C56.5898 31.4752 57.7028 30.3442 56.9978 28.5201C56.6929 27.7274 56.436 26.9156 56.1122 26.1288C56.0943 26.0848 56.0148 25.8825 56.0192 25.6169C56.0209 25.4223 56.0695 25.0851 56.2318 24.9933C56.6033 24.7868 57.4555 25.9376 57.6707 26.2422C57.9209 26.606 58.4559 27.4179 59.5874 30.6121C59.8957 31.4822 60.06 31.9966 59.8659 32.3997C59.6286 32.8906 59.0055 32.9153 58.7597 32.9258C58.6243 32.9308 57.7516 32.9672 57.2554 32.3331Z" fill="white" fill-opacity="0.3"/>
<path d="M39.0764 14.0965C38.1606 13.5146 38.8242 12.0736 37.5431 10.5981C36.9857 9.95419 36.469 9.28109 35.9025 8.64825C35.8707 8.61274 35.7289 8.45047 35.6416 8.19689C35.5804 8.01365 35.5099 7.68054 35.632 7.53933C35.9107 7.22136 37.105 8.0179 37.4085 8.23303C37.7663 8.48908 38.5455 9.07219 40.6914 11.6987C41.276 12.4167 41.6038 12.8431 41.5592 13.2863C41.5037 13.8279 40.9212 14.063 40.6962 14.1537C40.5711 14.205 39.7598 14.5319 39.0776 14.1003L39.0764 14.0965Z" fill="white" fill-opacity="0.3"/>
</svg>
