<svg width="729" height="110" viewBox="0 0 729 110" fill="none" xmlns="http://www.w3.org/2000/svg">
<path d="M95.5156 89.3517C86.7863 98.3894 76.0301 103.872 63.2469 105.799C55.9229 106.938 48.707 106.721 41.5722 105.12C34.7077 103.6 28.3836 100.913 22.6812 97.0323C16.9517 93.1784 12.2493 88.4561 8.54673 82.9195C4.70907 77.1115 2.2227 70.815 1.11464 64.0299C0.0336145 57.2178 0.411985 50.5141 2.22271 43.9191C4.00641 37.4869 7.00626 31.5703 11.2493 26.1966C20.1948 14.8249 32.1402 7.98556 47.0584 5.67864C54.4905 4.48448 61.7875 4.7016 68.9493 6.35715C75.8949 7.95842 82.246 10.7267 88.0295 14.662L77.3273 36.2927C72.3005 33.6601 66.8683 32.7916 61.0307 33.6601C54.4635 34.6643 49.1665 37.5683 45.1666 42.345C41.2209 47.1488 39.7074 52.414 40.6263 58.1677C41.5452 63.9214 44.6802 68.4809 50.0042 71.8191C55.3013 75.1574 61.2199 76.3516 67.7872 75.3745L67.8412 75.3202L69.2736 64.2199L54.4094 64.0571L56.3553 42.942L93.8941 43.1592L95.5156 89.2974V89.3517Z" fill="white"/>
<path d="M156.27 109.139L129.947 72.0659L131.325 103.006L100.219 103.576L99.3809 10.7835C111.056 7.391 122.947 6.11541 135.028 6.87534C145.595 7.58098 154.108 10.2136 160.54 14.746C168.594 20.3911 173.188 28.9131 174.296 40.3391C174.837 43.5417 174.729 47.0699 173.918 50.9781C173.188 54.3977 171.918 57.4374 170.134 60.07C167.918 63.3811 164.945 65.9866 161.216 67.9407L181.296 88.4586L156.297 109.194L156.27 109.139ZM142.082 39.9592C142.055 37.2723 141.298 35.0468 139.811 33.2827C138.541 31.8443 136.893 30.7315 134.812 29.9445C132.379 29.0217 129.947 28.5874 127.542 28.6689L128.812 51.1409C131.028 51.3037 133.271 50.9238 135.514 50.0281C139.947 48.2369 142.136 44.8987 142.055 39.9863L142.082 39.9592Z" fill="white"/>
<path d="M216.808 106.506L184.106 95.5682L232.158 0.65918L286.831 91.2801L262.157 107.32L254.292 92.1486L222.429 91.3615L216.835 106.479L216.808 106.506ZM243.131 70.9521L235.428 56.1879L230.212 70.4093L243.131 70.9793V70.9521Z" fill="white"/>
<path d="M376.638 56.1877C376.503 70.5177 371.908 81.5366 362.882 89.1901C355.639 95.2966 345.747 99.0962 333.234 100.616C324.262 101.729 314.397 101.647 303.641 100.345C298.236 99.7205 293.777 98.9605 290.236 98.0649L290.858 9.04525C302.938 5.89699 316.127 4.72996 330.451 5.54417C351.234 6.54835 365.152 15.2875 372.26 31.7887C373.476 34.6113 374.449 37.6238 375.205 40.8263C375.8 43.3504 376.232 45.983 376.476 48.697C376.8 51.7095 376.881 54.2064 376.692 56.2148L376.638 56.1877ZM345.693 55.7534C346.18 52.958 346.018 50.1354 345.261 47.2314C344.558 44.7074 343.369 42.6176 341.666 40.9892C339.585 39.0622 336.802 37.8952 333.234 37.5424C329.045 37.1082 325.181 37.3253 321.586 38.2752L319.64 69.3235C323.424 70.4362 327.343 70.7077 331.451 70.1649C334.991 69.6763 337.91 68.455 340.207 66.4738C343.126 63.9769 344.964 60.4215 345.693 55.7806V55.7534Z" fill="white"/>
<path d="M447.149 103.275L382.125 104.063L382.341 6.90086L448.419 4.94678L449.419 32.0869L412.556 31.3541L412.988 42.3459L432.069 42.4002L433.123 67.0977L413.448 65.605L413.718 77.3024L446.365 77.1938L447.149 103.275Z" fill="white"/>
<path d="M487.065 37.732L487.443 49.5923H508.226L507.739 73.0685L488.173 72.2814L489.173 102.705L455.796 104.822L451.634 10.4562L518.333 9.07202L517.604 38.3834L487.065 37.7049V37.732Z" fill="white"/>
<path d="M565.763 104.688C558.899 104.118 552.521 102.3 546.629 99.2332C541.008 96.302 536.224 92.421 532.279 87.59C528.333 82.732 525.522 77.2768 523.847 71.2517C522.144 65.0094 521.82 58.6315 522.901 52.0907C523.982 45.4686 526.333 39.2806 530.008 33.5269C533.522 27.9089 537.981 23.0508 543.359 18.9255C554.791 10.2678 567.493 6.49532 581.492 7.60806C588.357 8.17801 594.735 9.99639 600.627 13.0632C606.329 15.9944 611.113 19.8754 615.031 24.7063C618.977 29.5644 621.788 35.0196 623.409 41.0447C625.112 47.2598 625.436 53.6377 624.355 60.2056C623.274 66.8278 620.95 73.0158 617.329 78.7695C613.788 84.3875 609.302 89.2456 603.924 93.3709C592.492 102.029 579.79 105.801 565.79 104.688H565.763ZM553.953 54.9133C553.115 60.2328 554.332 64.928 557.602 69.0262C560.953 73.0701 565.412 75.3498 570.952 75.8384C576.52 76.2726 581.601 74.7799 586.141 71.3331C590.681 67.9135 593.411 63.5167 594.303 58.1701C595.14 52.8507 593.897 48.1554 590.546 44.0573C587.249 39.9591 582.817 37.7065 577.249 37.2451C571.709 36.8108 566.655 38.3036 562.061 41.7503C557.548 45.17 554.845 49.5667 553.98 54.9133H553.953Z" fill="white"/>
<path d="M627.654 90.7369L655.706 54.8305L625.275 15.6401L660.544 5.27258L677.786 26.5776L695.299 4.05127L727.946 21.2853L700.623 54.8847L729 90.0041L696.299 106.94L677.732 83.0834L662.922 101.322L627.654 90.7369Z" fill="white"/>
</svg>
