<svg width="105" height="128" viewBox="0 0 105 128" fill="none" xmlns="http://www.w3.org/2000/svg">
<g clip-path="url(#clip0_574_2265)">
<path d="M64.9643 95.852C66.0802 97.2321 68.8195 100.614 73.2972 101.102C73.6044 101.137 77.211 101.487 80.2702 99.44C87.9918 94.2905 86.8903 77.5056 80.4687 70.4617C79.5958 69.5094 77.8368 67.6286 75.2022 67.3468C72.3345 67.0369 70.0612 68.7951 68.3603 70.1115C67.1634 71.0361 63.5011 73.948 61.8811 79.2751C60.2 84.8047 61.2369 91.2543 64.969 95.8601L64.9643 95.852Z" fill="white" fill-opacity="0.4"/>
<path d="M51.6295 85.5466C53.6442 89.1175 54.8702 92.0118 55.24 92.8909C59.8798 103.966 59.8257 106.094 59.7347 107.178C59.621 108.577 59.3873 111.375 57.542 113.795C52.9727 119.81 42.1023 118.792 35.9547 116.707C27.299 113.765 23.1598 107.059 21.6968 104.69C20.8277 103.287 20.0754 101.833 19.8771 99.9805C19.4857 96.2561 21.5453 93.3184 22.0411 92.6233C25.5602 87.7299 29.3926 90.4468 35.7854 85.2765C38.8056 82.8357 40.9161 79.8364 44.6211 79.6659C45.0532 79.6449 45.9704 79.6101 47.0323 80.011C49.145 80.8029 50.0458 82.7548 51.6231 85.5448L51.6295 85.5466Z" fill="white" fill-opacity="0.4"/>
<path d="M30.5799 55.9303C32.0711 57.7325 33.5935 59.5979 34.9809 62.4807C36.0297 64.6502 36.551 65.7341 36.6491 67.1904C36.8698 70.3969 35.0304 72.8462 33.1812 75.3066C31.6644 77.3223 29.2129 80.5929 24.7043 82.1969C23.1295 82.7602 20.8031 83.5874 17.9477 82.8976C13.8661 81.9066 11.8143 78.5515 11.3924 77.8158C9.61352 74.7254 9.95072 71.6957 10.1845 69.6167C10.4798 67 11.6176 64.7049 13.8785 60.2201C17.9997 52.0531 19.6048 51.1969 20.786 50.8702C22.9284 50.2674 24.9479 51.048 25.4908 51.2551C27.2236 51.9246 28.3626 53.2698 30.5701 55.9414L30.5799 55.9303Z" fill="white" fill-opacity="0.4"/>
<path d="M79.3784 33.8428C81.6906 36.303 82.4649 38.9326 82.8668 40.3334C83.1767 41.436 83.9861 44.7045 83.1296 48.7993C82.1915 53.2759 79.8229 56.0829 78.8173 57.2434C77.5541 58.6976 75.9387 59.4895 72.8667 61.2254C69.2599 63.2627 67.4542 64.2773 65.8844 64.103C61.8252 63.6448 59.549 58.4574 59.2408 57.7591C57.6258 54.0831 58.2286 50.7551 58.8499 47.2815C59.3843 44.3115 60.4323 38.8859 64.8687 34.3682C66.7629 32.4331 69.3201 29.8204 72.7907 30.0113C75.9553 30.1888 78.09 32.4645 79.3865 33.8382L79.3784 33.8428Z" fill="white" fill-opacity="0.4"/>
<path d="M50.5657 32.5828C52.0704 36.5166 53.4669 40.1614 52.5326 44.9059C52.2496 46.3216 51.2635 50.3611 47.8019 53.7305C46.1823 55.3082 44.6167 56.8387 42.312 57.097C37.446 57.6474 33.0066 52.113 31.27 47.864C31 47.2032 29.6947 44.1166 30.176 40.0102C30.285 39.1157 31.3686 30.9901 38.2834 26.6439C40.1204 25.4871 42.5755 23.9486 45.1383 24.7037C47.8726 25.5116 49.0255 28.5506 50.5674 32.5765L50.5657 32.5828Z" fill="white" fill-opacity="0.4"/>
<path d="M24.9627 45.2903C25.985 43.7852 23.9988 42.0077 24.9803 38.8838C25.4058 37.5268 25.7496 36.141 26.2008 34.7908C26.2214 34.7142 26.3347 34.3682 26.303 33.9218C26.279 33.6007 26.1557 33.0339 25.8742 32.9038C25.2328 32.6019 23.9303 34.6135 23.6078 35.1497C23.2259 35.7795 22.4191 37.1986 20.8775 42.6698C20.4579 44.1585 20.2429 45.0382 20.6049 45.6895C21.0516 46.4865 22.1041 46.4606 22.5118 46.4536C22.7407 46.4465 24.2073 46.4152 24.9609 45.2966L24.9627 45.2903Z" fill="white" fill-opacity="0.4"/>
<path d="M51.6427 20.6243C53.0098 19.4237 51.5396 17.2098 53.2681 14.4297C54.0248 13.223 54.7049 11.9683 55.4791 10.7731C55.5253 10.7034 55.7169 10.3989 55.7947 9.95452C55.8529 9.63484 55.8763 9.05953 55.641 8.85963C55.0955 8.40556 53.3253 10.0318 52.8787 10.4664C52.3487 10.9812 51.2155 12.1555 48.3407 17.0574C47.5562 18.3935 47.1234 19.1875 47.3151 19.9095C47.5479 20.7861 48.5705 21.0258 48.9718 21.1197C49.1917 21.1718 50.622 21.5071 51.6379 20.6162L51.6427 20.6243Z" fill="white" fill-opacity="0.4"/>
<path d="M81.047 66.3258C80.8722 64.5137 83.4626 63.9078 84.0976 60.691C84.3755 59.2944 84.7386 57.9138 84.9844 56.5086C84.9985 56.4303 85.0669 56.0723 85.3112 55.6998C85.4878 55.4256 85.8587 54.9912 86.171 55.0065C86.8825 55.0466 87.0595 57.4409 87.0916 58.0653C87.1204 58.8052 87.1514 60.4351 85.8938 65.9756C85.5513 67.4849 85.3233 68.3612 84.6872 68.7586C83.9112 69.2418 83.0058 68.7186 82.6482 68.5133C82.4518 68.3991 81.1823 67.669 81.047 66.3258Z" fill="white" fill-opacity="0.4"/>
<path d="M71.6161 24.1975C70.8394 22.5525 73.0707 21.1046 72.5766 17.8658C72.3634 16.4539 72.2341 15.0371 71.9982 13.6328C71.9849 13.554 71.9292 13.197 72.0327 12.7595C72.1101 12.4449 72.3086 11.9097 72.608 11.8189C73.2878 11.6178 74.2669 13.8165 74.5045 14.3933C74.7822 15.0767 75.3642 16.6011 76.0528 22.2457C76.2383 23.787 76.3209 24.685 75.8607 25.2732C75.2969 25.9911 74.2606 25.8024 73.8606 25.7294C73.6373 25.6901 72.1946 25.4267 71.6144 24.2039L71.6161 24.1975Z" fill="white" fill-opacity="0.4"/>
</g>
<defs>
<clipPath id="clip0_574_2265">
<rect width="78.1797" height="110.914" fill="white" transform="translate(28.707) rotate(15)"/>
</clipPath>
</defs>
</svg>
