<svg width="92" height="89" viewBox="0 0 92 89" fill="none" xmlns="http://www.w3.org/2000/svg">
<path d="M75.36 49.6808C76.9852 49.4246 80.9701 48.793 83.4375 45.4244C83.6075 45.1938 85.5607 42.4608 85.3351 39.0559C84.78 30.4698 70.794 23.574 62.1624 25.4646C60.9932 25.7239 58.6679 26.2643 57.2206 28.2489C55.6425 30.4075 56.0004 33.0476 56.2688 35.0233C56.4563 36.4128 57.0966 40.7027 60.6224 44.4724C64.2826 48.3852 69.9411 50.5421 75.3687 49.6808L75.36 49.6808Z" fill="white" fill-opacity="0.3"/>
<path d="M60.906 55.6083C64.7066 55.6461 67.5986 56.0033 68.4758 56.114C79.5182 57.5227 81.2008 58.552 82.0289 59.1276C83.0999 59.8675 85.2374 61.3518 86.3252 63.9552C89.0361 70.4115 83.1807 78.6669 78.6571 82.636C72.2832 88.2214 64.9808 88.4361 62.4004 88.5124C60.8713 88.5599 59.3556 88.49 57.7763 87.7905C54.6047 86.3785 53.201 83.3633 52.8727 82.6431C50.5753 77.5496 54.5329 75.7322 53.3451 68.2033C52.7855 64.6473 51.3558 61.5626 52.9363 58.5092C53.1197 58.1525 53.5169 57.4 54.331 56.7333C55.946 55.4042 57.9306 55.5857 60.9016 55.6127L60.906 55.6083Z" fill="white" fill-opacity="0.3"/>
<path d="M27.3715 58.7804C29.5096 58.4186 31.7128 58.0609 34.6703 58.2834C36.8982 58.4469 38.0099 58.5308 39.2246 59.1271C41.9012 60.4362 43.015 63.0482 44.1331 65.6732C45.0483 67.8253 46.5378 71.3093 45.7357 75.6726C45.458 77.1979 45.0438 79.4491 43.1665 81.4217C40.479 84.2392 36.8343 84.3313 36.0481 84.3291C32.7426 84.3247 30.4665 82.6497 28.9058 81.4984C26.9419 80.0484 25.6266 78.0711 23.0741 74.1772C18.4276 67.0831 18.4842 65.3976 18.7694 64.2979C19.2786 62.2984 20.8413 61.039 21.2592 60.699C22.5999 59.6183 24.2078 59.3274 27.3758 58.7934L27.3715 58.7804Z" fill="white" fill-opacity="0.3"/>
<path d="M32.2592 9.36694C35.3061 8.65089 37.7761 9.24816 39.087 9.57483C40.1158 9.83709 43.115 10.7023 46.0055 13.2879C49.1646 16.116 50.3203 19.3186 50.7859 20.664C51.3678 22.3521 51.2549 24.0161 51.2245 27.287C51.1883 31.1269 51.1659 33.0469 50.2984 34.2263C48.049 37.2729 42.8294 36.6959 42.1259 36.6195C38.4261 36.2123 36.0337 34.1857 33.5329 32.0769C31.3962 30.2712 27.5261 26.915 25.9556 21.2593C25.28 18.8416 24.3677 15.5775 26.1297 12.8798C27.739 10.4213 30.5555 9.76236 32.2593 9.35825L32.2592 9.36694Z" fill="white" fill-opacity="0.3"/>
<path d="M17.8912 31.9148C21.7468 32.5301 25.3202 33.0984 28.6962 36.0476C29.7016 36.9311 32.4876 39.5952 33.5882 43.936C34.1041 45.9675 34.6071 47.9339 33.7462 49.9038C31.9326 54.0656 25.4318 55.0644 21.2155 54.4891C20.5599 54.3996 17.4768 54.0168 14.4032 51.727C13.7356 51.2249 7.71433 46.5886 7.4302 39.0226C7.35296 37.0117 7.25578 34.3275 9.04989 32.6201C10.9659 30.7993 13.9401 31.2823 17.8869 31.9105L17.8912 31.9148Z" fill="white" fill-opacity="0.3"/>
<path d="M16.2274 58.3594C15.493 56.8411 13.1454 57.6118 11.0923 55.3758C10.2001 54.4052 9.24689 53.4868 8.37206 52.4987C8.32007 52.4467 8.09486 52.1954 7.72177 52.0139C7.4528 51.8843 6.94068 51.7206 6.70568 51.8863C6.16607 52.2613 7.17729 54.2394 7.4583 54.7468C7.78684 55.3454 8.55224 56.6509 12.2301 60.4246C13.2308 61.4514 13.8374 62.0318 14.528 62.0431C15.375 62.0539 15.8421 61.1969 16.0254 60.8663C16.1258 60.6793 16.7805 59.4874 16.2318 58.3638L16.2274 58.3594Z" fill="white" fill-opacity="0.3"/>
<path d="M8.79062 25.504C8.46051 23.8499 6.00155 24.0041 4.57083 21.3278C3.95275 20.1609 3.26072 19.0334 2.66004 17.8578C2.62547 17.7884 2.46988 17.4935 2.14915 17.225C1.91944 17.0301 1.46845 16.7446 1.19888 16.8409C0.581477 17.0684 1.06659 19.2433 1.20846 19.8033C1.37611 20.4674 1.79362 21.9215 4.39648 26.5016C5.10556 27.7507 5.5424 28.4663 6.21085 28.647C7.02255 28.8664 7.68901 28.1566 7.95037 27.8779C8.09411 27.7255 9.02629 26.7327 8.78193 25.504L8.79062 25.504Z" fill="white" fill-opacity="0.3"/>
<path d="M59.1102 23.0837C57.5744 22.3841 58.2886 20.0236 56.0004 18.0228C55.008 17.1523 54.0679 16.2209 53.0537 15.3722C52.9973 15.3246 52.7416 15.1037 52.5558 14.735C52.4175 14.466 52.2407 13.967 52.3978 13.7233C52.7597 13.1707 54.764 14.1384 55.2802 14.402C55.8875 14.7219 57.2104 15.4525 61.0756 19.0302C62.1285 20.0048 62.7264 20.5939 62.7506 21.2889C62.7788 22.1358 61.9392 22.6202 61.6086 22.8122C61.4259 22.9169 60.2513 23.5976 59.1102 23.0837Z" fill="white" fill-opacity="0.3"/>
<path d="M20.9169 11.1257C19.2363 10.9868 19.1081 8.52423 16.2789 7.41969C15.0465 6.93644 13.8491 6.3836 12.6124 5.92207C12.543 5.8962 12.2305 5.77539 11.9272 5.48951C11.7106 5.28158 11.3728 4.87416 11.4387 4.59164C11.5925 3.95271 13.8115 4.18577 14.3847 4.26245C15.062 4.35622 16.5556 4.59554 21.4065 6.65907C22.7298 7.22461 23.4891 7.57445 23.748 8.21664C24.063 9.00202 23.4312 9.74646 23.1872 10.0338C23.0521 10.1949 22.172 11.231 20.9212 11.13L20.9169 11.1257Z" fill="white" fill-opacity="0.3"/>
</svg>
