<svg width="157" height="156" viewBox="0 0 157 156" fill="none" xmlns="http://www.w3.org/2000/svg">
<path d="M92.7815 113.018C93.904 114.7 96.6602 118.823 101.69 119.843C102.035 119.914 106.092 120.688 109.776 118.683C119.075 113.644 119.573 94.4829 113.02 85.8209C112.129 84.6493 110.329 82.3318 107.368 81.7377C104.146 81.0872 101.384 82.8456 99.3165 84.1622C97.8619 85.0867 93.4028 88.0095 91.0096 93.8857C88.526 99.9853 89.0308 107.412 92.786 113.027L92.7815 113.018Z" fill="white" fill-opacity="0.3"/>
<path d="M78.7251 99.9343C80.6392 104.196 81.729 107.608 82.057 108.644C86.1683 121.696 85.8854 124.104 85.6692 125.324C85.3945 126.901 84.8379 130.051 82.4917 132.605C76.6801 138.954 64.451 136.667 57.6921 133.661C48.1765 129.421 44.1781 121.38 42.7648 118.539C41.9247 116.857 41.2225 115.129 41.1905 113.006C41.1342 108.739 43.7774 105.62 44.4124 104.883C48.9155 99.6962 52.9812 103.178 60.7741 97.9773C64.4555 95.5222 67.1628 92.3386 71.3848 92.5312C71.8773 92.5523 72.9218 92.6084 74.085 93.1739C76.3999 94.2925 77.2188 96.6013 78.718 99.9316L78.7251 99.9343Z" fill="white" fill-opacity="0.3"/>
<path d="M57.9232 64.1336C59.4276 66.334 60.9608 68.6092 62.2348 72.0251C63.199 74.5962 63.6776 75.8804 63.6373 77.5432C63.5537 81.2048 61.2113 83.7926 58.8566 86.3918C56.9254 88.5212 53.8029 91.9771 48.5196 93.3276C46.674 93.8028 43.9479 94.4991 40.7796 93.4189C36.2512 91.8692 34.2724 87.8482 33.8703 86.9695C32.1737 83.2774 32.8719 79.8745 33.3537 77.5398C33.9614 74.6012 35.4916 72.1153 38.5244 67.2617C44.0516 58.4235 45.9622 57.619 47.3365 57.3714C49.8305 56.9106 52.0408 58.0067 52.6353 58.2982C54.5318 59.2385 55.6842 60.8836 57.9108 64.1451L57.9232 64.1336Z" fill="white" fill-opacity="0.3"/>
<path d="M115.596 44.1555C117.964 47.188 118.569 50.2526 118.879 51.8841C119.116 53.1675 119.694 56.9607 118.295 61.5181C116.764 66.5002 113.784 69.4387 112.522 70.6509C110.937 72.1694 109.022 72.8998 105.355 74.5496C101.05 76.4857 98.8951 77.4489 97.132 77.0876C92.5734 76.1449 90.5309 70.0214 90.254 69.1968C88.8042 64.8573 89.8349 61.1436 90.9017 57.2667C91.8175 53.9521 93.5719 47.9045 99.0768 43.2402C101.428 41.2417 104.602 38.5432 108.52 39.1215C112.093 39.6524 114.278 42.4572 115.606 44.1511L115.596 44.1555Z" fill="white" fill-opacity="0.3"/>
<path d="M83.0325 39.7237C84.3302 44.3443 85.5351 48.6256 83.9808 53.9121C83.5121 55.4892 81.9723 59.9703 77.6933 63.4332C75.6912 65.0547 73.7551 66.6284 71.113 66.6814C65.5339 66.7991 61.0728 60.0565 59.5448 55.054C59.3072 54.276 58.1476 50.6375 59.1215 46.0279C59.3383 45.0242 61.4144 35.9166 69.7138 31.705C71.9187 30.5837 74.8649 29.0936 77.6944 30.2175C80.713 31.4191 81.7047 34.9877 83.0351 39.7166L83.0325 39.7237Z" fill="white" fill-opacity="0.3"/>
<path d="M52.6567 51.4773C53.9736 49.876 51.9049 47.6521 53.3441 44.2095C53.9683 42.7139 54.5028 41.1772 55.1555 39.692C55.1867 39.6072 55.3514 39.2265 55.3619 38.7166C55.3681 38.3497 55.2873 37.6937 54.9814 37.5167C54.285 37.1074 52.5975 39.2543 52.1757 39.8292C51.6766 40.504 50.6134 42.0304 48.294 48.0783C47.6629 49.7238 47.3272 50.6997 47.6702 51.4764C48.0941 52.4274 49.291 52.5077 49.7544 52.5421C50.0149 52.5579 51.6824 52.6752 52.6541 51.4844L52.6567 51.4773Z" fill="white" fill-opacity="0.3"/>
<path d="M85.5042 26.2641C87.1807 25.0443 85.743 22.3788 87.994 19.4042C88.9783 18.1136 89.8808 16.7608 90.8838 15.4852C90.9435 15.4108 91.1927 15.0853 91.3273 14.5891C91.4265 14.2324 91.5131 13.582 91.2669 13.3307C90.6951 12.7586 88.5171 14.4196 87.965 14.8662C87.3099 15.3952 85.9018 16.6097 82.1289 21.8726C81.0995 23.3071 80.5256 24.163 80.668 25.0022C80.8409 26.0212 81.9763 26.3998 82.4219 26.5481C82.666 26.6301 84.2541 27.1596 85.4997 26.2545L85.5042 26.2641Z" fill="white" fill-opacity="0.3"/>
<path d="M114.107 81.1887C114.098 79.1142 117.1 78.6965 118.156 75.1124C118.617 73.5565 119.173 72.0277 119.598 70.4587C119.622 70.3713 119.737 69.9722 120.053 69.575C120.282 69.2822 120.748 68.828 121.101 68.8778C121.904 68.9975 121.855 71.7328 121.827 72.4448C121.782 73.2873 121.648 75.14 119.644 81.2961C119.098 82.9731 118.748 83.9438 117.985 84.3285C117.054 84.7959 116.081 84.108 115.696 83.8378C115.485 83.6877 114.121 82.727 114.107 81.1887Z" fill="white" fill-opacity="0.3"/>
<path d="M107.796 32.3999C107.086 30.4523 109.769 29.0417 109.545 25.3151C109.451 23.6907 109.451 22.0695 109.33 20.4514C109.323 20.3606 109.297 19.9497 109.46 19.464C109.581 19.1151 109.862 18.5284 110.211 18.4565C111.003 18.2992 111.885 20.8962 112.095 21.5755C112.339 22.3799 112.84 24.1703 113.034 30.6473C113.084 32.4156 113.084 33.4431 112.5 34.0627C111.786 34.8186 110.63 34.4966 110.183 34.3721C109.934 34.3042 108.324 33.855 107.793 32.4069L107.796 32.3999Z" fill="white" fill-opacity="0.3"/>
</svg>
