<svg width="82" height="81" viewBox="0 0 82 81" fill="none" xmlns="http://www.w3.org/2000/svg">
<path d="M46.8649 59.6332C47.3913 60.57 48.6842 62.866 51.3076 63.6106C51.4875 63.6622 53.6049 64.2365 55.6381 63.3242C60.7686 61.0318 61.8099 50.9011 58.6897 46.0465C58.265 45.3897 57.4054 44.0889 55.8613 43.6541C54.1808 43.1788 52.6459 43.9983 51.4974 44.6119C50.6893 45.0427 48.2085 46.4102 46.7023 49.4261C45.1391 52.5567 45.1053 56.5115 46.8669 59.6385L46.8649 59.6332Z" fill="white" fill-opacity="0.3"/>
<path d="M39.9493 52.1317C40.7904 54.4672 41.2293 56.319 41.361 56.8812C43.0096 63.962 42.7621 65.2262 42.598 65.8641C42.3885 66.688 41.9659 68.3342 40.6194 69.5922C37.2831 72.72 30.8973 71.0125 27.4387 69.1456C22.5697 66.5134 20.7777 62.0915 20.1442 60.5291C19.7674 59.6037 19.4655 58.6598 19.5347 57.5338C19.678 55.271 21.2047 53.7259 21.571 53.3612C24.167 50.7964 26.1796 52.8061 30.5189 50.3668C32.5687 49.2156 34.1321 47.6388 36.361 47.9121C36.621 47.9433 37.1721 48.0154 37.7654 48.3621C38.9463 49.0487 39.2865 50.305 39.9456 52.13L39.9493 52.1317Z" fill="white" fill-opacity="0.3"/>
<path d="M30.3816 32.3224C31.0893 33.5491 31.8093 34.8167 32.3456 36.6779C32.7521 38.0791 32.9535 38.7788 32.8647 39.6581C32.6719 41.5945 31.3261 42.8704 29.9732 44.1518C28.8638 45.2015 27.0694 46.9057 24.2157 47.4068C23.2187 47.5837 21.7463 47.842 20.1116 47.1412C17.7756 46.1365 16.8904 43.9261 16.713 43.4443C15.964 41.4195 16.4719 39.6452 16.8219 38.4278C17.263 36.8958 18.1744 35.6409 19.978 33.1927C23.2646 28.7347 24.3094 28.3861 25.0475 28.3107C26.3874 28.1677 27.5138 28.838 27.817 29.0166C28.7835 29.5916 29.3273 30.5099 30.3746 32.328L30.3816 32.3224Z" fill="white" fill-opacity="0.3"/>
<path d="M61.7447 24.0785C62.8759 25.781 63.0719 27.429 63.17 28.3059C63.2434 28.9954 63.3957 31.0283 62.47 33.3859C61.457 35.9632 59.759 37.399 59.0412 37.9899C58.14 38.7301 57.0956 39.0393 55.0862 39.7646C52.727 40.6156 51.5464 41.0385 50.6271 40.7756C48.2504 40.0912 47.4167 36.7644 47.3035 36.3163C46.7115 33.9586 47.4082 32.0331 48.1306 30.0225C48.7502 28.3037 49.9249 25.1711 53.0304 22.9235C54.3569 21.9601 56.1478 20.6593 58.2001 21.1246C60.0712 21.5508 61.1151 23.1253 61.75 24.0765L61.7447 24.0785Z" fill="white" fill-opacity="0.3"/>
<path d="M44.6738 20.4097C45.1738 22.9101 45.6384 25.2271 44.6006 27.9646C44.2883 28.7811 43.2908 31.0926 40.8835 32.7535C39.7571 33.5313 38.6676 34.2864 37.2658 34.2073C34.3054 34.0433 32.2156 30.2904 31.6091 27.5783C31.5148 27.1565 31.048 25.182 31.7509 22.7795C31.9065 22.2566 33.3758 17.5159 37.9433 15.6215C39.1569 15.1169 40.7781 14.447 42.2315 15.1571C43.7819 15.9162 44.1625 17.8469 44.6754 20.4061L44.6738 20.4097Z" fill="white" fill-opacity="0.3"/>
<path d="M28.1045 25.4044C28.8671 24.6095 27.8614 23.3474 28.7635 21.582C29.1549 20.8151 29.5003 20.0226 29.9063 19.2624C29.9263 19.2187 30.029 19.0237 30.0553 18.754C30.0734 18.5599 30.0572 18.2091 29.9023 18.1029C29.5501 17.8578 28.569 18.9267 28.3222 19.2142C28.0304 19.5514 27.4053 20.3169 25.9312 23.4267C25.5301 24.2729 25.3127 24.7762 25.4629 25.2016C25.6489 25.7226 26.2797 25.8137 26.5238 25.8507C26.6612 25.8697 27.5398 25.9995 28.1029 25.408L28.1045 25.4044Z" fill="white" fill-opacity="0.3"/>
<path d="M46.5286 13.3801C47.4662 12.8019 46.8126 11.3315 48.1258 9.84699C48.6996 9.20325 49.2326 8.52317 49.8157 7.88809C49.8503 7.85114 49.9955 7.6888 50.087 7.4314C50.154 7.24645 50.2263 6.90542 50.106 6.76227C49.8263 6.43601 48.6051 7.22759 48.2945 7.44178C47.926 7.69545 47.1308 8.28172 44.9186 10.9168C44.3151 11.6349 43.9763 12.0651 44.0177 12.5154C44.068 13.0623 44.6541 13.3089 44.8841 13.4055C45.0101 13.4589 45.8299 13.8038 46.5266 13.3748L46.5286 13.3801Z" fill="white" fill-opacity="0.3"/>
<path d="M59.4537 43.6366C59.5328 42.5372 61.1404 42.4377 61.845 40.5818C62.1522 39.7763 62.5087 38.9889 62.7976 38.175C62.814 38.1296 62.8911 37.9229 63.0746 37.7253C63.2078 37.5794 63.4731 37.3577 63.658 37.3984C64.0786 37.4944 63.9419 38.9415 63.8979 39.3175C63.8402 39.762 63.6937 40.7381 62.3823 43.918C62.0251 44.7843 61.8003 45.2843 61.3804 45.4572C60.8682 45.667 60.3808 45.2631 60.188 45.1044C60.0824 45.0163 59.3985 44.452 59.4537 43.6366Z" fill="white" fill-opacity="0.3"/>
<path d="M58.0894 17.5342C57.7923 16.4737 59.2708 15.8352 59.3037 13.8519C59.3193 12.9875 59.3855 12.1287 59.3868 11.2666C59.3868 11.2182 59.3898 10.9995 59.4958 10.7488C59.5738 10.5688 59.7465 10.2694 59.9344 10.2455C60.3606 10.1943 60.7225 11.6059 60.8059 11.9742C60.9025 12.4103 61.0956 13.3791 60.9354 16.8182C60.89 17.757 60.8485 18.3014 60.5142 18.6059C60.105 18.9774 59.5056 18.7599 59.2742 18.6758C59.1449 18.6298 58.3104 18.3265 58.0877 17.5378L58.0894 17.5342Z" fill="white" fill-opacity="0.3"/>
</svg>
