<svg width="77" height="71" viewBox="0 0 77 71" fill="none" xmlns="http://www.w3.org/2000/svg">
<path d="M40.0789 60.1121C40.3914 61.2519 41.1599 64.0464 43.7614 65.5394C43.9397 65.6424 46.0465 66.819 48.4593 66.3865C54.5447 65.3058 58.3529 54.7714 56.3152 48.7599C56.0369 47.9459 55.4657 46.3289 53.9336 45.4538C52.2667 44.4992 50.4105 44.9652 49.0214 45.3143C48.0444 45.5589 45.0328 46.3579 42.6225 49.1756C40.1209 52.1005 39.0321 56.3121 40.0796 60.1183L40.0789 60.1121Z" fill="white" fill-opacity="0.3"/>
<path d="M34.6942 50.2653C34.9702 52.9817 34.9457 55.0748 34.9366 55.7098C34.8111 63.7054 34.2103 64.9887 33.8655 65.6258C33.4226 66.4493 32.5333 68.0937 30.7614 69.0778C26.3683 71.5277 20.0079 68.0055 16.8138 65.0924C12.3182 60.9872 11.5828 55.7911 11.3227 53.955C11.1669 52.8671 11.096 51.7794 11.4695 50.5962C12.2248 48.2194 14.2655 46.9769 14.7535 46.6852C18.2066 44.639 19.8196 47.3195 25.0999 45.8715C27.594 45.1885 29.6822 43.922 31.988 44.8069C32.2573 44.9094 32.8262 45.133 33.367 45.661C34.4446 46.7081 34.4732 48.1394 34.6908 50.2626L34.6942 50.2653Z" fill="white" fill-opacity="0.3"/>
<path d="M29.757 26.5776C30.1857 28.0752 30.6167 29.6196 30.6936 31.7487C30.7544 33.3522 30.7831 34.1526 30.4543 35.0673C29.7331 37.0826 27.9571 38.0859 26.1722 39.0934C24.7088 39.9183 22.3401 41.2593 19.1613 41.0345C18.0501 40.9578 16.41 40.8416 14.8521 39.6585C12.6264 37.9645 12.2701 35.3699 12.2091 34.8084C11.9487 32.4482 12.9631 30.6898 13.6607 29.4838C14.5393 27.9662 15.846 26.8696 18.4225 24.7369C23.1167 20.8543 24.3245 20.7603 25.1324 20.8763C26.6004 21.0804 27.6241 22.0956 27.9001 22.3669C28.7785 23.2379 29.1144 24.3626 29.7481 26.5817L29.757 26.5776Z" fill="white" fill-opacity="0.3"/>
<path d="M65.4236 26.1284C66.1776 28.2465 65.9481 30.0575 65.8194 31.0194C65.7142 31.7748 65.3356 33.9849 63.7201 36.2546C61.9528 38.7353 59.7586 39.8157 58.8352 40.2553C57.6764 40.8053 56.4795 40.8573 54.1419 41.0963C51.3977 41.3766 50.0252 41.5136 49.114 40.9883C46.7598 39.6253 46.7556 35.8529 46.7541 35.3446C46.7499 32.6708 48.006 30.8013 49.3122 28.8479C50.431 27.1786 52.5185 24.1481 56.431 22.5761C58.1032 21.901 60.3607 20.9896 62.4271 22.0324C64.3105 22.9854 65.0055 24.9436 65.4298 26.1277L65.4236 26.1284Z" fill="white" fill-opacity="0.3"/>
<path d="M48.1807 17.6687C48.0487 20.4703 47.9278 23.0667 46.0914 25.712C45.5409 26.5002 43.861 28.7015 40.8498 29.8332C39.4406 30.3634 38.0769 30.8793 36.6018 30.4217C33.4862 29.4587 32.255 24.8972 32.3296 21.8413C32.3412 21.3661 32.3688 19.1346 33.7585 16.7577C34.0637 16.2411 36.8937 11.5729 42.2725 10.767C43.702 10.5516 45.6105 10.2683 46.9725 11.413C48.425 12.6358 48.3173 14.7976 48.1834 17.6653L48.1807 17.6687Z" fill="white" fill-opacity="0.3"/>
<path d="M29.169 18.5884C30.1944 17.943 29.4571 16.3285 30.8897 14.6845C31.5116 13.9702 32.0912 13.2165 32.7269 12.5132C32.7599 12.4719 32.9213 12.2911 33.0211 12.0103C33.0922 11.8079 33.1683 11.4293 33.0313 11.2747C32.7206 10.9194 31.389 11.799 31.0491 12.04C30.648 12.3223 29.777 12.9728 27.3761 15.8993C26.7228 16.6955 26.3567 17.1748 26.4038 17.6688C26.4636 18.2743 27.1126 18.5394 27.3632 18.6439C27.5047 18.7007 28.4078 19.0731 29.1662 18.5918L29.169 18.5884Z" fill="white" fill-opacity="0.3"/>
<path d="M52.0323 10.66C53.1869 10.2925 52.8809 8.5493 54.6775 7.31457C55.4612 6.78031 56.211 6.19638 57.0024 5.67385C57.0492 5.64364 57.2474 5.50904 57.4135 5.25867C57.5343 5.07915 57.7021 4.73442 57.6119 4.54965C57.4003 4.12701 55.8863 4.6467 55.4978 4.79261C55.037 4.96524 54.0322 5.37921 50.9699 7.60249C50.1347 8.20828 49.6586 8.57718 49.5829 9.0688C49.491 9.66577 50.0508 10.085 50.2706 10.2494C50.3909 10.3398 51.174 10.9262 52.0316 10.6538L52.0323 10.66Z" fill="white" fill-opacity="0.3"/>
<path d="M57.7713 46.3916C58.1484 45.2394 59.8905 45.5611 61.1365 43.7681C61.6789 42.9902 62.2689 42.2448 62.7939 41.4531C62.8235 41.409 62.9608 41.2089 63.2092 41.0469C63.3902 40.9267 63.7324 40.7607 63.9188 40.8534C64.3422 41.0678 63.8111 42.5758 63.664 42.9653C63.4841 43.4243 63.068 44.427 60.8219 47.4716C60.21 48.301 59.8371 48.7748 59.3429 48.8475C58.7405 48.9351 58.3278 48.3743 58.1643 48.1536C58.075 48.0315 57.4954 47.2472 57.7713 46.3916Z" fill="white" fill-opacity="0.3"/>
<path d="M63.2637 18.1715C63.2289 16.9606 64.9768 16.6728 65.5398 14.5649C65.7866 13.6466 66.0858 12.7477 66.3167 11.828C66.3297 11.7764 66.391 11.5437 66.5709 11.3044C66.7021 11.1331 66.966 10.8596 67.173 10.8841C67.6414 10.9429 67.6519 12.5457 67.6428 12.961C67.6299 13.452 67.5781 14.5374 66.4915 18.165C66.1933 19.1548 66.004 19.7247 65.5662 19.9608C65.0306 20.2483 64.4488 19.8565 64.2242 19.7052C64.0985 19.6216 63.2886 19.0759 63.261 18.1749L63.2637 18.1715Z" fill="white" fill-opacity="0.3"/>
</svg>
