<svg width="130" height="143" viewBox="0 0 130 143" fill="none" xmlns="http://www.w3.org/2000/svg">
<g clip-path="url(#clip0_574_2285)">
<path d="M69.5502 107.826C70.3271 109.536 72.2358 113.728 76.6937 115.417C76.9992 115.534 80.6012 116.851 84.2789 115.565C93.5569 112.34 96.8845 94.8507 92.1755 85.9292C91.534 84.7218 90.2312 82.3279 87.6068 81.3398C84.7511 80.2609 81.9553 81.4588 79.8632 82.3559C78.3914 82.9854 73.8663 84.9964 70.7924 90.024C67.602 95.2429 66.9521 102.126 69.5529 107.835L69.5502 107.826Z" fill="white" fill-opacity="0.3"/>
<path d="M58.6275 93.7286C59.7435 97.9219 60.2312 101.213 60.3767 102.212C62.1899 114.79 61.5697 116.955 61.1887 118.042C60.7007 119.445 59.7186 122.249 57.1855 124.239C50.9073 129.188 40.0406 125.26 34.2957 121.492C26.2088 116.18 23.7485 108.21 22.8787 105.394C22.3607 103.726 21.9759 102.037 22.2646 100.087C22.8523 96.167 25.7423 93.7041 26.4348 93.1236C31.3394 89.0445 34.5444 92.8454 42.4666 89.2455C46.2088 87.5466 49.1673 85.0341 53.0084 85.8431C53.4567 85.9363 54.4056 86.1442 55.3872 86.8368C57.3414 88.209 57.7461 90.4479 58.6214 93.7251L58.6275 93.7286Z" fill="white" fill-opacity="0.3"/>
<path d="M44.9237 57.797C45.973 60.0393 47.0375 62.3545 47.6935 65.6763C48.1922 68.1775 48.4384 69.4263 48.1523 70.9444C47.5272 74.2882 44.9925 76.3092 42.4447 78.3389C40.3556 80.0014 36.9757 82.7013 31.9306 83.1477C30.1677 83.3068 27.5646 83.5366 24.8224 82.0718C20.9038 79.9729 19.6924 75.9908 19.4555 75.1251C18.4534 71.4867 19.6032 68.4722 20.3947 66.4043C21.3919 63.8019 23.1669 61.7525 26.6739 57.758C33.0643 50.4849 34.9361 50.0338 36.233 50.0127C38.588 49.9639 40.4497 51.2997 40.951 51.656C42.5485 52.802 43.3583 54.4826 44.9107 57.8057L44.9237 57.797Z" fill="white" fill-opacity="0.3"/>
<path d="M100.781 48.1259C102.496 51.2602 102.591 54.1598 102.631 55.7017C102.656 56.9135 102.618 60.4771 100.653 64.4449C98.5035 68.7822 95.3317 71.0292 93.9932 71.9512C92.313 73.1057 90.4478 73.4882 86.8396 74.451C82.6035 75.5808 80.4841 76.1408 78.9222 75.5456C74.8851 73.9985 73.9302 68.0796 73.7999 67.2823C73.1212 63.0875 74.6223 59.8379 76.181 56.4441C77.517 53.5431 80.031 48.2627 85.7756 44.8121C88.23 43.3324 91.5436 41.3345 95.0485 42.4515C98.2437 43.4734 99.8265 46.3717 100.79 48.1233L100.781 48.1259Z" fill="white" fill-opacity="0.3"/>
<path d="M71.5977 39.182C72.095 43.6117 72.558 47.7166 70.3413 52.3294C69.6754 53.7047 67.5927 57.5815 63.1518 60.1145C61.0737 61.3009 59.0633 62.4533 56.6335 62.106C51.5021 61.3781 48.4232 54.5295 47.772 49.7152C47.6708 48.9665 47.153 45.4577 48.7362 41.3784C49.0853 40.4909 52.3527 32.4537 60.591 29.8367C62.7801 29.1393 65.7038 28.2148 68.1289 29.6688C70.7158 31.2225 71.0902 34.642 71.6012 39.176L71.5977 39.182Z" fill="white" fill-opacity="0.3"/>
<path d="M41.9922 45.4063C43.4392 44.1358 41.8762 41.7874 43.7111 38.8475C44.5073 37.5701 45.2274 36.2416 46.0482 34.9781C46.0895 34.9051 46.2975 34.5807 46.3835 34.115C46.4442 33.7796 46.4683 33.1662 46.2145 32.9581C45.6375 32.4786 43.7691 34.1937 43.2963 34.6574C42.7378 35.2012 41.5345 36.441 38.5025 41.6371C37.6775 43.0509 37.2236 43.8951 37.4216 44.6584C37.6677 45.5936 38.7528 45.8465 39.1724 45.9475C39.4088 46.001 40.9196 46.3583 41.9888 45.4124L41.9922 45.4063Z" fill="white" fill-opacity="0.3"/>
<path d="M75.8786 27.2189C77.598 26.3519 76.6794 23.6932 79.1884 21.3039C80.284 20.2685 81.3139 19.1636 82.4244 18.1447C82.4902 18.0855 82.7674 17.8244 82.9651 17.3898C83.1095 17.0777 83.2863 16.4945 83.0983 16.2272C82.6599 15.6172 80.4146 16.8134 79.8417 17.14C79.162 17.5268 77.6893 18.429 73.4426 22.6879C72.2842 23.8485 71.6299 24.5471 71.6347 25.3376C71.6405 26.2975 72.6244 26.8147 73.0107 27.0174C73.2222 27.1291 74.5985 27.8524 75.8759 27.2093L75.8786 27.2189Z" fill="white" fill-opacity="0.3"/>
<path d="M93.8674 81.846C94.1695 79.943 96.9843 80.0099 98.4888 76.8829C99.1443 75.5258 99.8828 74.2077 100.508 72.8333C100.543 72.7568 100.708 72.4082 101.057 72.0914C101.311 71.8574 101.806 71.5109 102.122 71.6094C102.84 71.8394 102.386 74.3394 102.253 74.9876C102.086 75.7532 101.685 77.4313 98.9261 82.7738C98.1745 84.2292 97.7083 85.0665 96.9511 85.3048C96.0277 85.5938 95.2391 84.8175 94.9271 84.5122C94.7563 84.343 93.6495 83.2579 93.8674 81.846Z" fill="white" fill-opacity="0.3"/>
<path d="M95.3921 36.181C95.033 34.2894 97.7035 33.3984 98.0571 29.9491C98.2135 28.4459 98.4571 26.9601 98.5883 25.4587C98.5956 25.3744 98.6333 24.9939 98.8555 24.5731C99.0183 24.2714 99.3637 23.7757 99.6947 23.7622C100.444 23.7367 100.864 26.2492 100.954 26.9033C101.057 27.6771 101.249 29.3934 100.456 35.3592C100.237 36.9875 100.083 37.9295 99.4551 38.4099C98.6869 38.9958 97.6754 38.5273 97.2849 38.3464C97.0666 38.2468 95.6585 37.5939 95.3886 36.187L95.3921 36.181Z" fill="white" fill-opacity="0.3"/>
</g>
<defs>
<clipPath id="clip0_574_2285">
<rect width="82.7421" height="117.386" fill="white" transform="translate(57.8535) rotate(29.5274)"/>
</clipPath>
</defs>
</svg>
