<svg width="150" height="183" viewBox="0 0 150 183" fill="none" xmlns="http://www.w3.org/2000/svg">
<g clip-path="url(#clip0_574_2275)">
<path d="M93.335 137.718C94.9383 139.701 98.8741 144.56 105.308 145.262C105.749 145.311 110.931 145.815 115.326 142.874C126.42 135.475 124.838 111.359 115.611 101.238C114.357 99.8698 111.83 97.1675 108.045 96.7627C103.924 96.3173 100.658 98.8436 98.2143 100.735C96.4946 102.063 91.2327 106.247 88.9051 113.901C86.4897 121.846 87.9796 131.112 93.3417 137.73L93.335 137.718Z" fill="white" fill-opacity="0.3"/>
<path d="M74.1781 122.91C77.0727 128.041 78.8342 132.2 79.3655 133.463C86.0318 149.376 85.9541 152.432 85.8234 153.989C85.6601 156 85.3244 160.02 82.673 163.497C76.1079 172.139 60.4896 170.677 51.6567 167.681C39.2204 163.454 33.2734 153.819 31.1713 150.415C29.9226 148.399 28.8418 146.311 28.5569 143.649C27.9944 138.298 30.9536 134.077 31.666 133.078C36.7222 126.047 42.2285 129.951 51.4135 122.522C55.7529 119.015 58.7852 114.706 64.1084 114.461C64.7293 114.431 66.0472 114.381 67.5729 114.957C70.6084 116.095 71.9026 118.899 74.1689 122.908L74.1781 122.91Z" fill="white" fill-opacity="0.3"/>
<path d="M43.9343 80.3596C46.0768 82.949 48.2642 85.6291 50.2575 89.7711C51.7645 92.8881 52.5133 94.4454 52.6543 96.5379C52.9714 101.145 50.3287 104.664 47.6718 108.199C45.4924 111.095 41.9702 115.794 35.4922 118.099C33.2296 118.908 29.8871 120.097 25.7845 119.106C19.9202 117.682 16.9722 112.861 16.3659 111.804C13.8101 107.364 14.2946 103.011 14.6305 100.024C15.0548 96.2644 16.6895 92.9667 19.938 86.523C25.8592 74.7889 28.1654 73.5587 29.8625 73.0893C32.9408 72.2233 35.8422 73.3448 36.6223 73.6423C39.1119 74.6043 40.7485 76.5371 43.9201 80.3755L43.9343 80.3596Z" fill="white" fill-opacity="0.3"/>
<path d="M114.044 48.6278C117.366 52.1625 118.479 55.9406 119.056 57.9534C119.501 59.5374 120.664 64.2336 119.434 70.1169C118.086 76.5488 114.683 80.5818 113.238 82.2493C111.423 84.3386 109.102 85.4764 104.688 87.9705C99.5062 90.8976 96.9117 92.3554 94.6564 92.105C88.8241 91.4466 85.5537 83.9936 85.111 82.9902C82.7905 77.7086 83.6567 72.927 84.5493 67.9362C85.3171 63.669 86.8228 55.8735 93.197 49.3827C95.9185 46.6023 99.5927 42.8484 104.579 43.1228C109.126 43.3777 112.193 46.6474 114.056 48.6211L114.044 48.6278Z" fill="white" fill-opacity="0.3"/>
<path d="M72.649 46.8131C74.8109 52.4651 76.8173 57.7018 75.475 64.5185C75.0683 66.5527 73.6515 72.3566 68.678 77.1977C66.351 79.4644 64.1015 81.6634 60.7902 82.0345C53.7988 82.8253 47.4204 74.8737 44.9253 68.7687C44.5373 67.8193 42.662 63.3845 43.3534 57.4845C43.51 56.1993 45.0669 44.5246 55.002 38.2801C57.6413 36.6181 61.1688 34.4076 64.8509 35.4925C68.7795 36.6533 70.436 41.0197 72.6515 46.8039L72.649 46.8131Z" fill="white" fill-opacity="0.3"/>
<path d="M35.864 65.0743C37.3328 62.9119 34.4791 60.358 35.8893 55.8696C36.5007 53.9199 36.9947 51.9288 37.643 49.9889C37.6725 49.8788 37.8353 49.3817 37.7897 48.7404C37.7552 48.2789 37.5781 47.4646 37.1736 47.2776C36.2522 46.8439 34.3808 49.7341 33.9174 50.5045C33.3686 51.4094 32.2095 53.4483 29.9944 61.3093C29.3917 63.4482 29.0826 64.7122 29.6028 65.6478C30.2447 66.7931 31.7568 66.7559 32.3426 66.7457C32.6715 66.7355 34.7786 66.6906 35.8615 65.0834L35.864 65.0743Z" fill="white" fill-opacity="0.3"/>
<path d="M74.1996 29.6324C76.1639 27.9075 74.0515 24.7265 76.535 20.7322C77.6222 18.9984 78.5993 17.1957 79.7117 15.4785C79.7781 15.3783 80.0534 14.9409 80.1652 14.3024C80.2488 13.843 80.2825 13.0165 79.9444 12.7292C79.1605 12.0768 76.6172 14.4134 75.9756 15.0378C75.214 15.7775 73.5859 17.4647 69.4554 24.5076C68.3283 26.4273 67.7063 27.5682 67.9818 28.6054C68.3164 29.8649 69.7855 30.2094 70.3621 30.3443C70.6781 30.4191 72.7331 30.9009 74.1928 29.6208L74.1996 29.6324Z" fill="white" fill-opacity="0.3"/>
<path d="M116.443 95.2953C116.192 92.6916 119.914 91.8211 120.826 87.1993C121.226 85.1927 121.747 83.209 122.1 81.19C122.121 81.0775 122.219 80.5631 122.57 80.028C122.824 79.634 123.357 79.0099 123.805 79.0319C124.828 79.0895 125.082 82.5296 125.128 83.4267C125.169 84.4897 125.214 86.8315 123.407 94.792C122.915 96.9605 122.587 98.2196 121.673 98.7906C120.558 99.4848 119.258 98.7332 118.744 98.4382C118.462 98.2741 116.638 97.2251 116.443 95.2953Z" fill="white" fill-opacity="0.3"/>
<path d="M102.895 34.7653C101.779 32.4019 104.985 30.3215 104.275 25.6681C103.969 23.6396 103.783 21.6039 103.444 19.5863C103.425 19.473 103.345 18.9601 103.494 18.3314C103.605 17.8795 103.89 17.1105 104.321 16.98C105.297 16.6912 106.704 19.8502 107.045 20.679C107.444 21.6608 108.281 23.8511 109.27 31.9611C109.536 34.1756 109.655 35.4658 108.994 36.311C108.184 37.3424 106.695 37.0713 106.12 36.9665C105.799 36.91 103.727 36.5315 102.893 34.7745L102.895 34.7653Z" fill="white" fill-opacity="0.3"/>
</g>
<defs>
<clipPath id="clip0_574_2275">
<rect width="112.327" height="159.358" fill="white" transform="translate(41.2441) rotate(15)"/>
</clipPath>
</defs>
</svg>
