<svg width="193" height="193" viewBox="0 0 193 193" fill="none" xmlns="http://www.w3.org/2000/svg">
<g clip-path="url(#clip0_574_2254)">
<path d="M145.314 103.173C147.833 102.776 154.009 101.797 157.833 96.5763C158.097 96.2188 161.124 91.983 160.774 86.7058C159.914 73.3985 138.237 62.711 124.859 65.6411C123.047 66.043 119.443 66.8806 117.2 69.9564C114.754 73.302 115.309 77.3937 115.725 80.4558C116.016 82.6094 117.008 89.2582 122.473 95.1008C128.145 101.165 136.915 104.508 145.327 103.173L145.314 103.173Z" fill="white" fill-opacity="0.3"/>
<path d="M122.912 112.36C128.802 112.419 133.284 112.973 134.644 113.144C151.758 115.327 154.366 116.923 155.649 117.815C157.309 118.962 160.622 121.262 162.308 125.297C166.51 135.304 157.434 148.098 150.424 154.25C140.545 162.907 129.227 163.239 125.228 163.358C122.858 163.431 120.509 163.323 118.061 162.239C113.145 160.05 110.97 155.377 110.461 154.261C106.9 146.367 113.034 143.55 111.193 131.881C110.326 126.37 108.11 121.589 110.56 116.856C110.844 116.304 111.459 115.137 112.721 114.104C115.224 112.044 118.3 112.326 122.905 112.367L122.912 112.36Z" fill="white" fill-opacity="0.3"/>
<path d="M70.9376 117.277C74.2513 116.716 77.666 116.162 82.2497 116.506C85.7027 116.76 87.4258 116.89 89.3084 117.814C93.4568 119.843 95.1831 123.891 96.916 127.96C98.3344 131.295 100.643 136.695 99.3997 143.457C98.9694 145.822 98.3274 149.311 95.4177 152.368C91.2525 156.735 85.6037 156.877 84.3852 156.874C79.262 156.867 75.7344 154.271 73.3155 152.487C70.2718 150.239 68.2332 147.175 64.2771 141.14C57.0757 130.145 57.1633 127.533 57.6054 125.828C58.3945 122.729 60.8165 120.777 61.4642 120.25C63.5421 118.575 66.0343 118.124 70.9442 117.297L70.9376 117.277Z" fill="white" fill-opacity="0.3"/>
<path d="M78.5126 40.6925C83.2348 39.5828 87.063 40.5084 89.0948 41.0147C90.6892 41.4212 95.3377 42.7621 99.8175 46.7695C104.714 51.1527 106.505 56.1164 107.226 58.2015C108.128 60.8179 107.953 63.3968 107.906 68.4663C107.85 74.4178 107.815 77.3935 106.471 79.2215C102.985 83.9432 94.8949 83.0489 93.8046 82.9306C88.0704 82.2994 84.3625 79.1585 80.4866 75.8901C77.175 73.0915 71.1769 67.8898 68.7427 59.1242C67.6956 55.3771 66.2817 50.3182 69.0125 46.137C71.5067 42.3267 75.8719 41.3054 78.5126 40.6791L78.5126 40.6925Z" fill="white" fill-opacity="0.3"/>
<path d="M56.2452 75.6387C62.2209 76.5924 67.7592 77.4732 72.9916 82.0441C74.5498 83.4134 78.8678 87.5423 80.5735 94.27C81.3731 97.4186 82.1527 100.466 80.8184 103.519C78.0076 109.97 67.9321 111.518 61.3975 110.626C60.3813 110.487 55.6029 109.894 50.8391 106.345C49.8044 105.567 40.4723 98.3813 40.0319 86.655C39.9122 83.5383 39.7616 79.3781 42.5423 76.7318C45.5119 73.9099 50.1215 74.6585 56.2385 75.632L56.2452 75.6387Z" fill="white" fill-opacity="0.3"/>
<path d="M53.6654 116.625C52.5272 114.271 48.8886 115.466 45.7067 112C44.3238 110.496 42.8465 109.073 41.4906 107.541C41.41 107.461 41.061 107.071 40.4827 106.79C40.0659 106.589 39.2721 106.335 38.9079 106.592C38.0716 107.173 39.6388 110.239 40.0744 111.025C40.5836 111.953 41.7698 113.976 47.4701 119.825C49.021 121.417 49.9612 122.316 51.0316 122.334C52.3443 122.35 53.0681 121.022 53.3523 120.51C53.5079 120.22 54.5226 118.373 53.6721 116.631L53.6654 116.625Z" fill="white" fill-opacity="0.3"/>
<path d="M42.1397 65.7028C41.628 63.1391 37.817 63.3781 35.5995 59.2301C34.6416 57.4217 33.569 55.6741 32.638 53.8522C32.5845 53.7446 32.3433 53.2874 31.8462 52.8713C31.4902 52.5693 30.7912 52.1268 30.3734 52.2761C29.4165 52.6287 30.1684 55.9995 30.3883 56.8674C30.6481 57.8967 31.2952 60.1503 35.3293 67.2489C36.4283 69.1849 37.1053 70.2939 38.1413 70.574C39.3994 70.914 40.4323 69.8139 40.8374 69.382C41.0602 69.1458 42.5049 67.607 42.1262 65.7028L42.1397 65.7028Z" fill="white" fill-opacity="0.3"/>
<path d="M120.129 61.9512C117.749 60.8669 118.856 57.2084 115.309 54.1074C113.771 52.7583 112.314 51.3147 110.742 49.9993C110.655 49.9255 110.259 49.5832 109.971 49.0117C109.756 48.5949 109.482 47.8214 109.726 47.4438C110.287 46.5873 113.393 48.0871 114.193 48.4957C115.134 48.9914 117.185 50.1238 123.175 55.6688C124.807 57.1792 125.734 58.0924 125.771 59.1694C125.815 60.4821 124.514 61.2328 124.001 61.5304C123.718 61.6927 121.898 62.7477 120.129 61.9512Z" fill="white" fill-opacity="0.3"/>
<path d="M60.9336 43.4181C58.3288 43.2028 58.1301 39.3862 53.7452 37.6743C51.8353 36.9253 49.9794 36.0685 48.0626 35.3532C47.955 35.3131 47.4708 35.1258 47.0007 34.6827C46.6649 34.3605 46.1415 33.729 46.2436 33.2912C46.4819 32.3009 49.9211 32.6621 50.8094 32.781C51.8593 32.9263 54.1742 33.2972 61.6924 36.4954C63.7434 37.3719 64.9201 37.9141 65.3214 38.9094C65.8097 40.1267 64.8304 41.2805 64.4523 41.7258C64.2429 41.9755 62.8788 43.5813 60.9403 43.4248L60.9336 43.4181Z" fill="white" fill-opacity="0.3"/>
</g>
<defs>
<clipPath id="clip0_574_2254">
<rect width="112.327" height="159.358" fill="white" transform="translate(-1.52588e-05 79.4272) rotate(-45)"/>
</clipPath>
</defs>
</svg>
