<svg width="121" height="126" viewBox="0 0 121 126" fill="none" xmlns="http://www.w3.org/2000/svg">
<path d="M98.2297 86.3949C99.908 86.9645 104.025 88.3578 108.065 86.381C108.342 86.2462 111.574 84.6179 113.064 81.2578C116.835 72.7913 106.95 59.2104 97.7713 56.6904C96.5265 56.3523 94.0382 55.7031 91.664 56.8708C89.0778 58.1392 88.097 60.8362 87.3635 62.8548C86.8464 64.2739 85.3085 68.6858 86.7831 74.0468C88.3142 79.6114 92.6304 84.5024 98.238 86.3992L98.2297 86.3949Z" fill="white" fill-opacity="0.3"/>
<path d="M81.4758 84.8088C85.0815 86.7482 87.6607 88.5373 88.4418 89.0821C98.2673 95.9559 99.3565 97.7803 99.858 98.7439C100.509 99.986 101.804 102.472 101.538 105.5C100.889 113.015 91.1706 117.955 84.8687 119.475C75.9927 121.609 68.921 118.157 66.4219 116.938C64.9398 116.217 63.5292 115.391 62.3734 113.933C60.0559 110.998 60.2273 107.42 60.2749 106.568C60.6348 100.56 65.3193 100.809 67.9572 93.0338C69.2045 89.3622 69.3859 85.7044 72.4224 83.5839C72.7759 83.3356 73.5316 82.8169 74.6419 82.5887C76.8478 82.13 78.6495 83.2971 81.4695 84.8107L81.4758 84.8088Z" fill="white" fill-opacity="0.3"/>
<path d="M47.9051 71.0388C50.1254 71.7646 52.4057 72.5269 55.1148 74.2202C57.1576 75.492 58.1759 76.1288 59.0357 77.3058C60.9327 79.8948 60.6868 82.9436 60.4384 86.007C60.2334 88.5178 59.909 92.5865 56.9589 96.3459C55.9301 97.6616 54.4076 99.601 51.6293 100.542C47.6552 101.883 44.1332 100.146 43.3845 99.7498C40.2342 98.0901 38.9025 95.3528 37.9907 93.4731C36.8439 91.1068 36.5798 88.5623 36.0956 83.5703C35.2172 74.4777 36.1153 72.8986 36.9381 71.9927C38.4251 70.3408 40.5462 69.9223 41.1149 69.8074C42.9348 69.4482 44.614 69.976 47.9027 71.0534L47.9051 71.0388Z" fill="white" fill-opacity="0.3"/>
<path d="M77.3142 26.362C80.5785 27.205 82.635 29.0116 83.7216 29.9797C84.5714 30.7451 86.9984 33.0723 88.4601 36.9858C90.0565 41.2651 89.5548 44.8982 89.325 46.4144C89.0345 48.3158 88.0934 49.8461 86.4264 52.9504C84.4687 56.5944 83.4858 58.4142 82.0677 59.1045C78.3967 60.8834 73.7078 57.719 73.0751 57.2939C69.7507 55.0526 68.484 51.9217 67.1552 48.6581C66.0218 45.8659 64.0118 40.7269 65.3465 34.5465C65.913 31.9025 66.6777 28.3327 69.7092 26.6423C72.4752 25.1037 75.4913 25.8858 77.3185 26.3537L77.3142 26.362Z" fill="white" fill-opacity="0.3"/>
<path d="M52.3196 40.6699C55.6885 43.1877 58.8118 45.5193 60.5544 50.0227C61.0708 51.3688 62.3935 55.3048 61.2691 59.9958C60.7437 62.1915 60.2386 64.3188 58.431 65.7664C54.6171 68.8271 47.9171 66.5238 44.1842 63.8636C43.6037 63.4499 40.8552 61.5407 39.0706 57.8177C38.6854 57.0044 35.265 49.5673 38.7833 42.2094C39.7167 40.2529 40.9683 37.6444 43.5345 36.9145C46.2737 36.1377 48.8682 38.0879 52.3176 40.6636L52.3196 40.6699Z" fill="white" fill-opacity="0.3"/>
<path d="M37.4879 65.0565C37.5479 63.2406 34.923 62.7998 34.0849 59.6392C33.7201 58.2667 33.271 56.9134 32.9315 55.533C32.9079 55.4574 32.819 55.1049 32.5541 54.745C32.3625 54.4867 31.9561 54.0741 31.649 54.1144C30.9466 54.2017 30.9203 56.5947 30.9341 57.2194C30.9477 57.9548 31.0239 59.5831 32.6414 65.024C33.0815 66.5044 33.3693 67.3618 34.0224 67.7184C34.8247 68.1529 35.6993 67.5695 36.0397 67.346C36.2291 67.2179 37.4504 66.4091 37.4899 65.0628L37.4879 65.0565Z" fill="white" fill-opacity="0.3"/>
<path d="M46.8512 29.9977C47.3648 28.2549 44.9425 27.1704 44.9184 23.9015C44.9134 22.4791 44.8181 21.0572 44.834 19.6353C44.8358 19.5518 44.8351 19.1925 44.6637 18.7759C44.5422 18.475 44.2551 17.9768 43.9498 17.9337C43.247 17.8414 42.6204 20.1586 42.4753 20.7636C42.3025 21.481 41.9725 23.0768 42.161 28.7484C42.2116 30.2948 42.2699 31.196 42.8169 31.7031C43.4811 32.3188 44.4722 31.9757 44.861 31.8408C45.0744 31.7675 46.4606 31.2875 46.8429 29.9934L46.8512 29.9977Z" fill="white" fill-opacity="0.3"/>
<path d="M96.0523 52.8908C94.938 51.4543 96.8013 49.5608 95.6211 46.5067C95.1106 45.1795 94.6805 43.8204 94.1383 42.5031C94.1084 42.4294 93.9752 42.0908 93.9827 41.646C93.9855 41.3203 94.0668 40.7558 94.3386 40.6021C94.9606 40.2563 96.3873 42.183 96.7476 42.693C97.1666 43.3021 98.0623 44.6614 99.9567 50.0093C100.473 51.466 100.748 52.3274 100.423 53.0022C100.026 53.8241 98.9824 53.8655 98.5709 53.883C98.3442 53.8914 96.8831 53.9523 96.0523 52.8908Z" fill="white" fill-opacity="0.3"/>
<path d="M65.6164 22.3586C64.0832 21.3844 65.1943 18.9717 63.0493 16.5014C62.116 15.4234 61.2509 14.2964 60.3026 13.2369C60.2494 13.1774 60.0119 12.9058 59.8658 12.4812C59.7633 12.1744 59.6453 11.6167 59.8496 11.3803C60.3162 10.8479 62.3158 12.1815 62.824 12.5417C63.423 12.9704 64.7276 13.9467 68.3203 18.344C69.2992 19.5462 69.848 20.26 69.7733 21.0022C69.6804 21.9089 68.7051 22.3025 68.3285 22.4543C68.119 22.5403 66.7606 23.0876 65.6184 22.3649L65.6164 22.3586Z" fill="white" fill-opacity="0.3"/>
</svg>
