<svg width="169" height="52" viewBox="0 0 169 52" fill="none" xmlns="http://www.w3.org/2000/svg">
<g clip-path="url(#clip0_523_2386)">
<path d="M163.25 51.9998L25.8589 51.9998C11.5849 51.9998 0 40.3621 0 26.0315V25.9681C0 11.6336 11.5886 -0.000244141 25.8589 -0.000244141L152.334 -0.000244141C161.534 -0.000244141 169 7.49707 169 16.7363V46.2257C169 49.4111 166.422 51.9998 163.25 51.9998Z" fill="white"/>
<path d="M67.7823 30.3244C66.5826 31.5665 65.1043 32.32 63.3475 32.5848C62.3409 32.7415 61.3492 32.7116 60.3686 32.4916C59.4252 32.2827 58.556 31.9134 57.7723 31.38C56.9849 30.8504 56.3386 30.2013 55.8297 29.4404C55.3023 28.6422 54.9606 27.7768 54.8083 26.8443C54.6597 25.9081 54.7117 24.9868 54.9606 24.0804C55.2057 23.1964 55.618 22.3832 56.2012 21.6447C57.4306 20.0818 59.0723 19.1419 61.1226 18.8248C62.144 18.6607 63.1469 18.6905 64.1312 18.9181C65.0857 19.1381 65.9586 19.5186 66.7535 20.0595L65.2826 23.0323C64.5917 22.6705 63.8452 22.5511 63.0429 22.6705C62.1403 22.8085 61.4123 23.2076 60.8626 23.8641C60.3203 24.5243 60.1123 25.2479 60.2386 26.0386C60.3649 26.8294 60.7957 27.456 61.5275 27.9148C62.2555 28.3736 63.0689 28.5378 63.9715 28.4035L63.9789 28.396L64.1757 26.8704L62.1329 26.8481L62.4003 23.9461L67.5595 23.976L67.7823 30.317V30.3244Z" fill="#FF320B"/>
<path d="M76.132 33.0428L72.5143 27.9476L72.7038 32.1998L68.4286 32.2782L68.3135 19.5253C69.918 19.059 71.5523 18.8837 73.2126 18.9882C74.6649 19.0851 75.8349 19.4469 76.7189 20.0699C77.8258 20.8457 78.4572 22.0169 78.6095 23.5873C78.6838 24.0274 78.6689 24.5123 78.5575 25.0494C78.4572 25.5194 78.2826 25.9372 78.0375 26.299C77.7329 26.754 77.3243 27.1121 76.8118 27.3807L79.5715 30.2006L76.1358 33.0503L76.132 33.0428ZM74.182 23.535C74.1783 23.1658 74.0743 22.8599 73.87 22.6174C73.6955 22.4198 73.4689 22.2668 73.1829 22.1587C72.8486 22.0318 72.5143 21.9722 72.1838 21.9833L72.3583 25.0718C72.6629 25.0942 72.9712 25.042 73.2795 24.9189C73.8886 24.6727 74.1895 24.2139 74.1783 23.5388L74.182 23.535Z" fill="#FF320B"/>
<path d="M84.4523 32.6818L79.958 31.1786L86.562 18.1348L94.076 30.5893L90.6849 32.7937L89.604 30.7086L85.2249 30.6004L84.456 32.6781L84.4523 32.6818ZM88.07 27.7955L87.0114 25.7664L86.2946 27.7209L88.07 27.7992V27.7955Z" fill="#FF320B"/>
<path d="M106.419 25.7662C106.4 27.7356 105.769 29.25 104.528 30.3018C103.533 31.1411 102.173 31.6633 100.453 31.8722C99.2202 32.0251 97.8645 32.0139 96.3862 31.8349C95.6434 31.7491 95.0305 31.6447 94.5439 31.5216L94.6294 19.2871C96.2897 18.8545 98.1022 18.6941 100.071 18.806C102.927 18.944 104.84 20.145 105.817 22.4129C105.984 22.8008 106.118 23.2148 106.222 23.655C106.303 24.0019 106.363 24.3637 106.396 24.7367C106.441 25.1507 106.452 25.4939 106.426 25.7699L106.419 25.7662ZM102.166 25.7065C102.233 25.3223 102.21 24.9344 102.106 24.5353C102.01 24.1884 101.846 23.9012 101.612 23.6774C101.326 23.4125 100.944 23.2521 100.453 23.2037C99.8777 23.144 99.3465 23.1738 98.8525 23.3044L98.5851 27.5715C99.1051 27.7244 99.6437 27.7617 100.208 27.6871C100.695 27.62 101.096 27.4521 101.412 27.1798C101.813 26.8367 102.065 26.348 102.166 25.7102V25.7065Z" fill="#FF320B"/>
<path d="M116.108 32.2384L107.172 32.3466L107.202 18.9932L116.283 18.7246L116.42 22.4546L111.354 22.3539L111.414 23.8646L114.036 23.872L114.181 27.2663L111.477 27.0612L111.514 28.6688L116.001 28.6539L116.108 32.2384Z" fill="#FF320B"/>
<path d="M121.595 23.2299L121.647 24.8599H124.503L124.436 28.0864L121.747 27.9782L121.885 32.1595L117.298 32.4505L116.726 19.4812L125.892 19.291L125.792 23.3194L121.595 23.2262V23.2299Z" fill="#FF320B"/>
<path d="M132.41 32.4328C131.467 32.3545 130.59 32.1046 129.781 31.6831C129.008 31.2802 128.351 30.7468 127.808 30.0829C127.266 29.4152 126.88 28.6655 126.65 27.8374C126.416 26.9795 126.371 26.103 126.52 25.2041C126.668 24.2939 126.991 23.4435 127.496 22.6527C127.979 21.8806 128.592 21.213 129.331 20.646C130.902 19.4561 132.648 18.9376 134.572 19.0906C135.516 19.1689 136.392 19.4188 137.202 19.8403C137.986 20.2431 138.643 20.7765 139.182 21.4405C139.724 22.1082 140.11 22.8579 140.333 23.6859C140.567 24.5401 140.612 25.4167 140.463 26.3193C140.314 27.2294 139.995 28.0799 139.497 28.8707C139.011 29.6428 138.394 30.3104 137.655 30.8774C136.084 32.0673 134.338 32.5857 132.414 32.4328H132.41ZM130.787 25.592C130.672 26.3231 130.839 26.9683 131.289 27.5316C131.749 28.0873 132.362 28.4007 133.124 28.4678C133.889 28.5275 134.587 28.3223 135.211 27.8486C135.835 27.3786 136.21 26.7744 136.333 26.0396C136.448 25.3085 136.277 24.6632 135.816 24.1C135.363 23.5367 134.754 23.2272 133.989 23.1637C133.228 23.1041 132.533 23.3092 131.902 23.7829C131.281 24.2529 130.91 24.8572 130.791 25.592H130.787Z" fill="#FF320B"/>
<path d="M140.917 30.5152L144.772 25.5804L140.59 20.1943L145.437 18.7694L147.807 21.6975L150.214 18.6016L154.7 20.9701L150.945 25.5879L154.845 30.4145L150.351 32.742L147.799 29.4633L145.764 31.9699L140.917 30.5152Z" fill="#FF320B"/>
<g opacity="0.11">
<path d="M33.4136 48.367C43.3319 48.367 51.3722 46.8022 51.3722 44.872C51.3722 42.9417 43.3319 41.377 33.4136 41.377C23.4954 41.377 15.4551 42.9417 15.4551 44.872C15.4551 46.8022 23.4954 48.367 33.4136 48.367Z" fill="#DF4100"/>
</g>
<path d="M38.4202 40.3893C38.2159 41.4523 37.8148 42.0156 37.3988 42.5452C37.3877 42.5602 37.3728 42.5788 37.3579 42.5937C36.7228 43.3957 36.1359 43.6008 34.8842 43.8694C34.5165 43.9477 34.0299 44.041 33.4617 44.1006C33.4617 44.1006 33.4579 44.1006 33.4542 44.1006C32.7522 44.179 31.9314 44.2125 31.0659 44.1193V44.1081C30.3305 44.0522 29.6917 43.9552 29.2868 43.8694C28.0351 43.6046 27.4482 43.4069 26.8131 42.6161C26.3859 42.0827 25.9662 41.5269 25.7545 40.449C25.6988 40.1655 25.6542 39.8932 25.6208 39.6358C25.5948 39.4493 25.5762 39.2703 25.5577 39.0987C25.4908 38.3937 25.4945 37.823 25.5019 37.4463C25.5131 36.9017 25.5799 34.384 26.3859 31.1799C26.6608 30.0833 27.0805 28.6845 27.2699 28.0542C27.3777 27.6924 27.4779 27.3604 27.5708 27.0657C27.6637 26.771 29.0862 22.4815 29.0899 22.4629L35.5565 22.7314C35.6939 23.1641 36.6782 26.9986 36.9048 27.7707C37.0534 28.2817 37.3542 29.2925 37.6068 30.2474C37.6254 30.322 37.6477 30.4003 37.6662 30.4749C37.7071 30.6391 37.7479 30.7957 37.7888 30.9487C37.8445 31.1725 37.8965 31.3963 37.9448 31.6126C38.6022 34.5518 38.6617 36.8048 38.6728 37.3232C38.6839 37.9238 38.6839 39.0204 38.4202 40.3781V40.3893Z" fill="#FF761B"/>
<path d="M47.4309 37.9716C47.3566 38.5946 47.1895 40.0567 46.2089 41.3659C44.6489 43.451 41.8521 44.0515 39.5121 43.4659C39.4601 43.451 39.4043 43.4398 39.3523 43.4249C39.3078 43.4137 39.2632 43.3988 39.2186 43.3876C38.7766 43.2571 38.3495 43.0817 37.9595 42.8654C37.8815 42.8206 37.7998 42.7759 37.7143 42.7311C37.6103 42.6714 37.5063 42.6118 37.4023 42.5446C37.0495 42.3208 36.6892 42.0411 36.3846 41.6345C36.2918 41.5151 36.2063 41.3809 36.1246 41.2354C36.0169 41.0414 35.9315 40.8437 35.8646 40.6386C35.3186 38.9675 36.0318 36.8862 37.0421 34.0477C37.3466 33.1898 37.6586 32.3393 37.7478 32.1193C37.7552 32.1043 37.7589 32.0857 37.7663 32.0708C37.7886 32.0111 37.8146 31.9551 37.8369 31.8992C37.8741 31.8059 37.9112 31.7164 37.9483 31.6269C38.1081 31.2464 38.2492 30.9257 38.3718 30.6608C38.5315 30.3177 38.6578 30.0678 38.7432 29.9036C38.8658 29.6649 39.0106 29.4038 39.0106 29.4038C39.0106 29.4038 39.0366 29.3553 39.0812 29.2733C39.1889 29.0793 39.4081 28.6914 39.6346 28.3258C39.7386 28.158 39.8501 27.9864 39.9652 27.8186C41.6849 25.2896 44.6081 22.6973 45.8672 21.6305C46.0566 21.4701 46.2089 21.3433 46.3129 21.2575C46.3575 21.2202 46.3946 21.1903 46.4206 21.168C46.0715 21.6081 45.6146 22.272 45.2283 23.1635C44.9423 23.8275 44.5226 25.5694 44.8309 27.8223C44.9052 28.3781 44.9609 28.7026 45.0649 29.0681C45.2098 29.5679 45.4549 30.1424 45.9935 31.4852C46.9258 33.809 47.6909 35.7262 47.4309 37.9754V37.9716Z" fill="#FF761B"/>
<g style="mix-blend-mode:multiply" opacity="0.32">
<path d="M38.4202 40.3893C38.2159 41.4524 37.8148 42.0156 37.3988 42.5453C37.3876 42.5602 37.3728 42.5788 37.3579 42.5937C36.7228 43.3957 36.1359 43.6008 34.8842 43.8694C34.5165 43.9477 34.0299 44.041 33.4616 44.1007C33.4616 44.1007 33.4579 44.1007 33.4542 44.1007C32.7522 44.179 31.9313 44.2126 31.0659 44.1193V44.1081C30.3305 44.0522 29.6916 43.9552 29.2868 43.8694C28.035 43.6046 27.4482 43.4069 26.813 42.6161C26.3859 42.0827 25.9662 41.527 25.7545 40.449C25.6988 40.1655 25.6542 39.8932 25.6208 39.6359C25.5948 39.4494 25.5762 39.2703 25.5576 39.0987C26.0888 39.3375 26.6496 40.3408 27.4853 41.0682C29.4836 42.8064 32.3362 42.3177 32.6222 42.2618C33.079 42.176 34.6093 41.8701 35.8573 40.6318C36.017 40.4751 36.173 40.2998 36.3179 40.1096C36.8156 39.468 37.291 38.5542 37.5882 36.0774C37.7145 35.0293 37.811 33.6716 37.759 32.0639C37.7442 31.5604 37.7108 31.0307 37.6625 30.4824C37.7033 30.6465 37.7442 30.8032 37.785 30.9561C37.8408 31.1799 37.8928 31.4037 37.941 31.6201C38.5985 34.5593 38.6579 36.8122 38.669 37.3307C38.6802 37.9312 38.6802 39.0279 38.4165 40.3856L38.4202 40.3893Z" fill="#FF761B"/>
</g>
<g style="mix-blend-mode:multiply" opacity="0.54">
<path d="M38.4205 40.3883C38.2162 41.4514 37.8151 42.0146 37.3991 42.5443C37.388 42.5592 37.3731 42.5778 37.3582 42.5928C36.7231 43.3947 36.1362 43.5999 34.8845 43.8684C34.5168 43.9468 34.0302 44.04 33.4619 44.0997C33.4619 44.0997 33.4582 44.0997 33.4545 44.0997C32.7525 44.178 31.9317 44.2116 31.0662 44.1183V44.1071C30.3308 44.0512 29.6919 43.9542 29.2871 43.8684C28.0354 43.6036 27.4485 43.4059 26.8134 42.6151C26.3862 42.0818 25.9665 41.526 25.7548 40.448C25.6991 40.1645 25.6545 39.8922 25.6211 39.6349C26.0074 40.3473 26.5719 41.1828 27.5079 41.8803C29.3465 43.2492 31.4339 43.2194 32.0505 43.2008C32.9234 43.1746 34.7397 43.1224 36.1177 41.8803C36.2068 41.7983 36.2922 41.7162 36.374 41.6304C37.7742 40.1459 37.8745 37.9153 37.9562 35.3677C38.0008 34.0473 37.9339 32.8873 37.8262 31.8914C37.7594 31.2797 37.6814 30.7351 37.5997 30.2539C37.6628 30.4964 37.726 30.7313 37.7817 30.9589C37.8374 31.1827 37.8894 31.4065 37.9377 31.6228C38.5951 34.5621 38.6545 36.815 38.6657 37.3335C38.6768 37.934 38.6768 39.0306 38.4131 40.3883H38.4205Z" fill="#FF761B"/>
</g>
<path d="M45.2327 23.1594C44.9467 23.8234 44.527 25.5653 44.8352 27.8182C44.9095 28.374 44.9652 28.6985 45.0692 29.064C44.9132 29.1125 44.7461 29.1237 44.579 29.0715C44.4824 29.0417 44.4044 28.9932 44.3375 28.9372C44.0887 28.7246 43.9958 28.3926 43.6875 28.3665C43.2827 28.333 43.1192 28.8775 42.7627 28.8067C42.4098 28.7358 42.4247 28.1726 42.0347 28.0644C41.6744 27.9637 41.4775 28.3926 41.1098 28.277C40.7941 28.1763 40.835 27.8257 40.5267 27.7138C40.3298 27.6429 40.1404 27.7175 39.9658 27.8108C41.9455 24.8976 45.5224 21.9024 46.3135 21.2497C46.3581 21.2124 46.3953 21.1825 46.4213 21.1602C46.0721 21.6003 45.6152 22.2642 45.229 23.1557L45.2327 23.1594Z" fill="#FFECC2"/>
<path d="M34.9815 40.34C34.9704 41.2128 34.9109 42.0856 34.7995 42.9547C34.7884 43.0293 34.7809 43.1039 34.7698 43.1785C34.7029 43.656 34.6212 44.1297 34.5247 44.5996C34.5135 44.6593 34.4615 44.7004 34.4058 44.7004H33.1764C33.1132 44.7004 33.0612 44.6519 33.0538 44.5847C33.0464 44.5101 33.0427 44.4355 33.0352 44.3572C33.0204 44.1893 33.0055 44.0215 32.9907 43.8499C32.9721 43.6298 32.9535 43.406 32.9349 43.1785C32.9275 43.1039 32.9238 43.0293 32.9164 42.9547C32.8569 42.1528 32.8124 41.3098 32.8495 40.3885C32.8941 39.2844 32.9832 38.2288 33.1355 37.0688C33.1429 36.9979 33.2061 36.9531 33.2729 36.9606C33.2767 36.9606 33.7447 36.9643 34.1309 36.9643C34.3872 36.9643 34.6101 36.9643 34.6361 36.9606C34.7029 36.9494 34.7624 36.9979 34.7735 37.0688C34.9221 38.1505 34.9889 39.2545 34.9778 40.3437L34.9815 40.34Z" fill="#FF761B"/>
<path d="M30.9921 43.1751C30.9698 43.4772 30.9438 43.7756 30.9178 44.0665C30.8955 44.3202 30.8733 44.5589 30.8547 44.8013C30.851 44.8685 30.7953 44.917 30.7321 44.917H29.5027C29.4433 44.917 29.395 44.8759 29.3838 44.8163C29.3541 44.6782 29.3281 44.5402 29.3021 44.3985C29.2278 43.9919 29.161 43.5816 29.109 43.1713C28.9975 42.3022 28.9344 41.4294 28.927 40.5566C28.9158 39.4637 28.9827 38.3633 29.1313 37.2816C29.1424 37.2145 29.2018 37.166 29.2687 37.1735C29.3133 37.1809 29.8741 37.1772 30.2641 37.1735C30.4721 37.1735 30.6318 37.1735 30.6355 37.1735C30.7024 37.1623 30.7618 37.2108 30.773 37.2816C30.9253 38.4417 31.0181 39.4973 31.059 40.6014C31.0961 41.5264 31.0553 42.3656 30.9921 43.1676V43.1751Z" fill="#FF761B"/>
<path d="M34.7655 43.1758C34.695 43.7278 34.6318 44.2761 34.5204 44.8207C34.5093 44.8804 34.4573 44.9214 34.4015 44.9214H33.1721C33.109 44.9214 33.057 44.8729 33.0495 44.8058C33.0384 44.6603 33.0273 44.5149 33.0124 44.3694C33.005 44.2724 32.9938 44.1717 32.9864 44.071C32.9604 43.7763 32.9344 43.4816 32.9121 43.1795H34.7618L34.7655 43.1758Z" fill="white"/>
<path d="M30.9915 43.1756C30.9693 43.4777 30.9433 43.7761 30.9173 44.0671C30.895 44.3207 30.8727 44.5594 30.8541 44.8019C30.8504 44.869 30.7947 44.9175 30.7315 44.9175H29.5021C29.4427 44.9175 29.3944 44.8765 29.3833 44.8168C29.3535 44.6788 29.3275 44.5408 29.3015 44.399C29.2273 43.9925 29.1604 43.5822 29.1084 43.1719H30.9878L30.9915 43.1756Z" fill="white"/>
<g style="mix-blend-mode:multiply" opacity="0.54">
<path d="M34.9815 40.34C34.9703 41.2128 34.9109 42.0856 34.7995 42.9547C34.7883 43.0293 34.7809 43.1039 34.7697 43.1785C34.7697 43.1785 34.636 44.2789 34.5246 44.8234C34.5135 44.8831 34.4615 44.9242 34.4057 44.9242H33.1763C33.1132 44.9242 33.0612 44.8757 33.0537 44.8085C33.0426 44.6631 33.0315 44.5176 33.0166 44.3721C33.024 44.3684 33.0277 44.3647 33.0352 44.3609C33.4215 44.1036 33.83 44.0364 34.1197 43.6261C34.2015 43.5105 34.2497 43.3762 34.2943 43.1822C34.324 43.0554 34.3537 42.9025 34.3872 42.7123C34.5469 41.8357 34.5097 41.168 34.4392 39.8327C34.4317 39.7171 34.4206 39.4821 34.3909 39.1725C34.3612 38.8666 34.3166 38.4862 34.2497 38.0871C34.1829 37.6805 34.1123 37.2702 34.1272 36.9643C34.3835 36.9643 34.6063 36.9643 34.6323 36.9606C34.6992 36.9494 34.7586 36.9979 34.7697 37.0688C34.9183 38.1505 34.9852 39.2545 34.974 40.3437L34.9815 40.34Z" fill="#FF761B"/>
</g>
<g style="mix-blend-mode:multiply" opacity="0.54">
<path d="M47.4318 37.9715C47.3575 38.5944 47.1904 40.0565 46.2098 41.3658C44.583 43.5404 41.6152 44.0999 39.2158 43.3874C39.7098 43.3091 40.3115 43.1748 40.995 42.9286C41.9161 42.5967 42.8707 42.2535 43.7287 41.3508C44.765 40.258 45.0621 38.986 45.2552 38.1654C45.3592 37.7216 45.5561 36.7219 45.4001 34.7413C45.2218 32.4772 44.8244 31.9848 44.479 29.8289C44.4307 29.5193 44.3824 29.2246 44.3378 28.9411C44.063 27.1433 43.9404 25.7818 44.3898 24.3196C44.5792 23.7042 45.051 22.4994 46.3138 21.2536C46.3584 21.2163 46.3955 21.1864 46.4215 21.1641C46.0724 21.6042 45.6155 22.2681 45.2292 23.1596C44.9432 23.8236 44.5235 25.5655 44.8318 27.8184C44.9061 28.3742 44.9618 28.6987 45.0658 29.0642C45.2107 29.564 45.4558 30.1385 45.9944 31.4813C46.9267 33.805 47.6918 35.7223 47.4318 37.9715Z" fill="#FF761B"/>
</g>
<g style="mix-blend-mode:multiply" opacity="0.54">
<path d="M30.9918 43.175C30.9695 43.4771 30.9435 43.7755 30.9175 44.0665C30.8952 44.3201 30.8729 44.5588 30.8543 44.8013C30.8506 44.8684 30.7949 44.9169 30.7318 44.9169H29.5023C29.4429 44.9169 29.3946 44.8759 29.3835 44.8162C29.3538 44.6782 29.3278 44.5402 29.3018 44.3984C29.4875 44.4134 29.6323 44.4469 29.8218 44.3611C30.1449 44.2157 30.3083 43.8352 30.4309 43.3466C30.4458 43.2869 30.4606 43.2309 30.4718 43.1713C30.7206 42.0224 30.572 40.9892 30.52 40.5938C30.4086 39.7844 30.2898 38.6356 30.26 37.1771C30.468 37.1771 30.6278 37.1771 30.6315 37.1771C30.6983 37.166 30.7578 37.2144 30.7689 37.2853C30.9212 38.4453 31.014 39.5009 31.0549 40.605C31.092 41.5301 31.0512 42.3693 30.988 43.1713L30.9918 43.175Z" fill="#FF761B"/>
</g>
<g style="mix-blend-mode:screen" opacity="0.65">
<path d="M27.6004 28.1552C26.9578 29.4644 26.5307 32.0419 26.5121 32.3365C26.4824 32.8401 26.7461 32.8102 26.8909 32.7729C27.1435 32.7095 27.3218 31.3854 27.6115 30.1918C27.8269 29.3003 28.1984 28.4946 28.1835 28.2746C28.1649 28.0358 27.7192 27.9127 27.6004 28.1552Z" fill="white"/>
</g>
<g style="mix-blend-mode:screen" opacity="0.65">
<path d="M27.9647 27.1705C27.8272 27.2525 27.7492 27.4241 27.7938 27.5808C27.8495 27.7785 28.0798 27.8792 28.247 27.8158C28.4587 27.7337 28.5367 27.4017 28.3955 27.2302C28.299 27.1145 28.1095 27.0847 27.9647 27.1705Z" fill="white"/>
</g>
<g style="mix-blend-mode:multiply" opacity="0.32">
<path d="M47.4314 37.9713C47.3571 38.5942 47.19 40.0564 46.2094 41.3656C44.6494 43.4507 41.8526 44.0512 39.5126 43.4656C39.4606 43.4507 39.4048 43.4395 39.3528 43.4246C39.3083 43.4134 39.2637 43.3984 39.2191 43.3873C38.7771 43.2567 38.35 43.0814 37.96 42.8651C37.882 42.8203 37.8003 42.7755 37.7148 42.7308C38.4874 42.4361 40.5786 42.7718 42.1534 41.5073C43.7691 40.213 43.992 37.9191 44.1554 36.2331C44.6048 31.6191 42.6474 30.1607 43.0634 26.9267C43.2417 25.528 43.8806 23.6816 45.8714 21.6227C46.0608 21.4623 46.2131 21.3355 46.3171 21.2497C46.3617 21.2124 46.3988 21.1825 46.4248 21.1602C46.0757 21.6003 45.6188 22.2642 45.2326 23.1557C44.9466 23.8197 44.5268 25.5616 44.8351 27.8145C44.9094 28.3703 44.9651 28.6948 45.0691 29.0603C45.214 29.5601 45.4591 30.1345 45.9977 31.4773C46.93 33.8011 47.6951 35.7184 47.4351 37.9676L47.4314 37.9713Z" fill="#FF761B"/>
</g>
<g style="mix-blend-mode:screen" opacity="0.65">
<path d="M39.0816 30.0984C39.5385 28.666 42.3985 25.2531 42.6176 25.0703C43.0559 24.7048 43.1673 24.9137 43.1265 25.0703C42.9519 25.7529 40.8571 27.9499 39.6796 30.1282C39.3751 30.6914 38.6954 31.3181 39.0854 30.0984H39.0816Z" fill="white"/>
</g>
<path d="M27.9462 15.5097C27.3817 15.9051 26.7168 16.1736 25.9888 16.2781C24.6851 16.4608 23.4111 16.2408 22.4974 15.4239C22.4454 15.3791 22.3934 15.3344 22.3414 15.2933C21.0785 14.3049 20.8631 11.7424 20.5362 8.66139C20.5065 8.40029 20.4397 7.6804 20.2465 6.71433C20.1091 6.02801 19.916 5.25963 19.6485 4.42784C19.6151 4.3234 19.7079 4.21896 19.8157 4.24134C20.4359 4.37189 21.2865 4.57331 22.2671 4.87917C22.3488 4.90528 22.4342 4.93139 22.5159 4.9575C25.7139 6.0019 28.5591 7.94523 29.3242 9.73563C29.5025 10.0601 29.6437 10.4108 29.7402 10.7838C30.2157 12.6413 29.4171 14.4839 27.9537 15.506L27.9462 15.5097Z" fill="#FF761B"/>
<path d="M29.1903 10.8767C28.622 9.35109 26.2858 7.6129 23.6449 6.65056C22.8575 6.36335 22.1778 6.16566 21.6763 6.03511C21.5909 6.01273 21.5092 6.09106 21.5352 6.18058C21.7209 6.8669 21.8472 7.501 21.9326 8.06424C22.0515 8.855 22.0812 9.44434 22.0923 9.65695C22.2409 12.171 22.3152 14.2635 23.3032 15.1177C23.344 15.155 23.3849 15.1923 23.4258 15.2296C24.1352 15.9308 25.164 16.1583 26.23 16.0614C28.3732 15.8674 29.922 13.8644 29.4875 11.7457C29.4243 11.4399 29.324 11.1489 29.1903 10.8767Z" fill="#DF4100"/>
<g style="mix-blend-mode:color-burn" opacity="0.32">
<path d="M27.9465 15.5092C28.1842 14.2112 28.3179 12.1858 27.5379 9.92167C26.8211 7.84032 24.3511 6.07603 22.5088 4.95703C25.7068 6.00143 28.5519 7.94476 29.3171 9.73517C29.4954 10.0597 29.6365 10.4103 29.7331 10.7833C30.2085 12.6408 29.4099 14.4835 27.9465 15.5055V15.5092Z" fill="#DF4100"/>
</g>
<path d="M41.2692 15.35C41.2172 15.3911 41.1615 15.4358 41.1132 15.4806C40.1958 16.2937 38.9218 16.5101 37.618 16.3236C37.4843 16.3049 37.3506 16.2788 37.2206 16.249C36.6523 16.1147 36.1286 15.876 35.6718 15.5589C35.668 15.5589 35.6643 15.5552 35.6606 15.5515C34.2009 14.5257 33.4098 12.6794 33.8889 10.8218C33.9855 10.4488 34.1266 10.0982 34.3086 9.77368C35.0812 7.98701 37.93 6.05487 41.1318 5.01793C41.2135 4.99182 41.2952 4.96571 41.3806 4.9396C42.3649 4.63747 43.2118 4.43978 43.8358 4.30923C43.8952 4.29804 43.9509 4.32415 43.9806 4.36891C44.0029 4.40248 44.014 4.44351 44.0029 4.48454C44.0029 4.48827 44.0029 4.492 44.0029 4.49573C43.7318 5.32752 43.5349 6.0959 43.3975 6.78222C43.2006 7.74829 43.13 8.46818 43.1003 8.72928C42.7623 11.8065 42.5395 14.369 41.2729 15.3538L41.2692 15.35Z" fill="#FF761B"/>
<path d="M34.4278 10.911C34.9998 9.38912 37.3436 7.6584 39.9881 6.70352C40.7756 6.42004 41.459 6.22608 41.9567 6.09553C42.0421 6.07315 42.1238 6.15521 42.0978 6.241C41.9084 6.92732 41.7821 7.55769 41.693 8.12092C41.5704 8.91168 41.5407 9.50102 41.5258 9.71363C41.3698 12.2277 41.2881 14.3202 40.2964 15.1669C40.2556 15.2042 40.2147 15.2415 40.1738 15.2788C39.4607 15.9763 38.4318 16.2038 37.3658 16.1031C35.2264 15.9017 33.6813 13.895 34.1196 11.7763C34.1827 11.4705 34.2867 11.1795 34.4204 10.9072L34.4278 10.911Z" fill="#DF4100"/>
<g style="mix-blend-mode:multiply" opacity="0.32">
<path d="M41.2693 15.3499C41.2173 15.3909 41.1616 15.4357 41.1133 15.4804C40.1959 16.2936 38.9219 16.5099 37.6182 16.3234C37.4844 16.3048 37.3507 16.2787 37.2207 16.2488C36.6524 16.1145 36.1287 15.8758 35.6719 15.5588C37.295 15.1634 38.2756 14.4621 38.8773 13.8803C40.7753 12.0488 40.4744 9.89288 42.5582 6.50231C43.015 5.76004 43.4756 5.1334 43.8804 4.63358C43.9213 4.58135 43.9622 4.53287 44.003 4.48438C44.003 4.48811 44.003 4.49183 44.003 4.49556C43.7319 5.32736 43.535 6.09574 43.3976 6.78206C43.2007 7.74813 43.1302 8.46802 43.1004 8.72912C42.7624 11.8064 42.5396 14.3689 41.273 15.3536L41.2693 15.3499Z" fill="#FF761B"/>
</g>
<g style="mix-blend-mode:multiply" opacity="0.32">
<path d="M41.2693 15.35C41.2173 15.3911 41.1616 15.4358 41.1133 15.4806C40.1958 16.2937 38.9218 16.5101 37.6181 16.3236C37.4844 16.3049 37.3507 16.2788 37.2207 16.249C38.3684 15.8461 39.115 15.2903 39.609 14.8129C41.507 12.9815 42.4058 8.55023 43.8098 4.82396C43.8358 4.76055 43.8581 4.69714 43.8804 4.63373C43.9138 4.54421 43.9473 4.45469 43.9807 4.3689C44.003 4.40247 44.0141 4.4435 44.003 4.48453C44.003 4.48826 44.003 4.49199 44.003 4.49572C43.7318 5.32751 43.535 6.09589 43.3976 6.78221C43.2007 7.74828 43.1301 8.46817 43.1004 8.72927C42.7624 11.8065 42.5396 14.369 41.273 15.3538L41.2693 15.35Z" fill="#FF761B"/>
</g>
<g style="mix-blend-mode:screen" opacity="0.65">
<path d="M35.423 8.97558C35.3376 8.87487 36.6116 7.20756 38.7101 6.28998C39.8281 5.80135 40.9796 5.61112 41.013 5.7081C41.0427 5.79389 40.1587 6.08483 38.9701 6.68909C36.6338 7.87896 35.501 9.06883 35.423 8.97558Z" fill="white"/>
</g>
<path d="M35.1812 31.5972C35.1812 29.4935 33.4466 20.6758 32.1912 20.6758C30.9357 20.6758 29.2012 29.4935 29.2012 31.5972C29.2012 33.701 30.5383 35.4018 32.1912 35.4018C33.844 35.4018 35.1812 33.6972 35.1812 31.5972Z" fill="#FFD788"/>
<path d="M42.0716 21.7531C41.7114 22.0366 41.2434 22.3984 40.6862 22.7975C39.5348 23.6218 38.6396 24.1105 37.7222 24.5058C36.1956 25.1661 35.2856 25.4197 33.9188 25.6025C33.8259 25.6137 33.7331 25.6248 33.6365 25.6398C33.1091 25.7032 32.6076 25.7405 32.1359 25.7591C32.0505 25.7591 31.9651 25.7591 31.8796 25.7591C31.4079 25.7405 30.9065 25.7032 30.3791 25.6398C30.2825 25.6286 30.1896 25.6174 30.0968 25.6025C28.7299 25.4234 27.8199 25.1661 26.2934 24.5058C25.3759 24.1067 24.4808 23.6218 23.3294 22.7975C22.7722 22.3984 22.3042 22.0403 21.9439 21.7531C21.8325 21.6673 21.8325 21.5069 21.9439 21.4211C22.1705 21.2458 22.4305 21.0444 22.6645 20.787C23.2179 20.179 23.6971 19.213 23.9979 18.5043C24.0982 18.2693 24.1799 18.0231 24.2431 17.7769C24.2505 17.7508 24.2542 17.7284 24.2616 17.7023C24.3136 17.4897 24.3508 17.2771 24.3768 17.0608C24.4919 16.1283 25.0491 14.405 25.5505 13.562C26.5051 11.9581 28.2025 11.4546 30.0856 11.2494C31.2779 11.1189 32.4776 11.1151 33.6699 11.2233C35.7536 11.4135 36.7676 11.7082 38.2311 13.3158C38.9776 14.1327 39.5236 16.1283 39.6388 17.0608C39.6685 17.2995 39.7131 17.5382 39.7725 17.7695C39.7725 17.7695 39.7725 17.7732 39.7725 17.7769C39.8356 18.0231 39.9174 18.2655 40.0176 18.5043C40.3185 19.2092 40.7939 20.179 41.3511 20.787C41.5851 21.0444 41.8451 21.2421 42.0716 21.4211C42.1831 21.5069 42.1831 21.6673 42.0716 21.7531Z" fill="#FF761B"/>
<path d="M42.0824 21.7493C41.7221 22.0328 41.2541 22.3946 40.6969 22.7937C39.5455 23.618 38.6504 24.1066 37.7329 24.502C36.2064 25.1622 35.2964 25.4159 33.9295 25.5986C33.8367 25.6098 33.7438 25.621 33.6472 25.6359C33.1198 25.6994 32.6184 25.7367 32.1467 25.7553C32.0612 25.7553 31.9758 25.7553 31.8904 25.7553C31.4187 25.7367 30.9172 25.6994 30.3898 25.6359C30.2932 25.6248 30.2004 25.6136 30.1075 25.5986C29.8178 25.5613 29.5504 25.5203 29.2941 25.4718C28.3284 25.2928 27.5075 25.0242 26.3041 24.502C25.3867 24.1029 24.4915 23.618 23.3401 22.7937C22.783 22.3946 22.315 22.0365 21.9547 21.7493C21.8432 21.6635 21.8432 21.5031 21.9547 21.4173C22.1812 21.242 22.4412 21.0406 22.6752 20.7832C23.2287 20.1752 23.7078 19.2091 24.0087 18.5004C24.109 18.2655 24.1907 18.0193 24.2538 17.7731C24.2612 17.747 24.265 17.7246 24.2724 17.6985C24.7032 17.5941 25.0821 17.4859 25.4015 17.3889C27.1027 16.8592 27.9495 16.5497 29.1567 16.5608C30.4604 16.5758 31.0361 17.0905 31.7752 17.6388C31.9052 17.7358 32.091 17.7768 32.2655 17.6575C32.7484 17.3218 34.1412 16.3333 36.1135 16.628C36.7932 16.7287 37.0235 16.863 38.2492 17.2695C38.8807 17.4822 39.3672 17.6463 39.7832 17.7656C39.7832 17.7656 39.7832 17.7694 39.7832 17.7731C39.8464 18.0193 39.9281 18.2617 40.0284 18.5004C40.3292 19.2054 40.8047 20.1752 41.3618 20.7832C41.5958 21.0406 41.8558 21.2383 42.0824 21.4173C42.1938 21.5031 42.1938 21.6635 42.0824 21.7493Z" fill="#FFECC2"/>
<g style="mix-blend-mode:screen" opacity="0.65">
<path d="M25.7697 14.9357C25.5691 14.9394 26.0409 13.8167 26.8431 13.0856C28.3066 11.7578 30.7209 11.6645 30.7209 12.0189C30.7209 12.2315 29.2017 12.2501 27.742 13.1677C26.468 13.9696 26.1114 14.9283 25.766 14.9357H25.7697Z" fill="white"/>
</g>
<g style="mix-blend-mode:screen" opacity="0.65">
<path d="M25.5465 15.5875C25.6655 15.5875 25.7619 15.484 25.7619 15.3563C25.7619 15.2285 25.6655 15.125 25.5465 15.125C25.4275 15.125 25.3311 15.2285 25.3311 15.3563C25.3311 15.484 25.4275 15.5875 25.5465 15.5875Z" fill="white"/>
</g>
<g style="mix-blend-mode:multiply" opacity="0.25">
<path d="M42.0715 21.7534C41.7112 22.0368 41.2432 22.3986 40.6861 22.7978C39.5346 23.6221 38.6395 24.1107 37.7221 24.5061C36.1955 25.1663 35.2855 25.42 33.9186 25.6027C33.8258 25.6139 33.7329 25.6251 33.6363 25.64C33.1089 25.7034 32.6075 25.7407 32.1358 25.7594C32.0503 25.7594 31.9649 25.7594 31.8795 25.7594C31.4078 25.7407 30.9063 25.7034 30.3789 25.64C30.2823 25.6288 30.1895 25.6176 30.0966 25.6027C29.8069 25.5654 29.5395 25.5244 29.2832 25.4759C31.1775 25.5654 33.6921 25.364 36.3515 24.2189C38.6989 23.2081 40.3406 21.8093 41.3472 20.791C41.5812 21.0484 41.8412 21.2461 42.0678 21.4251C42.1792 21.5109 42.1792 21.6713 42.0678 21.7571L42.0715 21.7534Z" fill="#FF761B"/>
</g>
<path d="M38.5761 22.3503C39.0151 22.3503 39.371 21.993 39.371 21.5521C39.371 21.1113 39.0151 20.7539 38.5761 20.7539C38.1371 20.7539 37.7812 21.1113 37.7812 21.5521C37.7812 21.993 38.1371 22.3503 38.5761 22.3503Z" fill="#FF9E83"/>
<path d="M25.331 22.3503C25.77 22.3503 26.1258 21.993 26.1258 21.5521C26.1258 21.1113 25.77 20.7539 25.331 20.7539C24.892 20.7539 24.5361 21.1113 24.5361 21.5521C24.5361 21.993 24.892 22.3503 25.331 22.3503Z" fill="#FF9E83"/>
<path d="M30.3121 19.5044C30.3121 20.0453 29.8738 20.4854 29.3353 20.4854C28.7967 20.4854 28.3584 20.0453 28.3584 19.5044C28.3584 18.9636 28.7967 18.5234 29.3353 18.5234C29.365 18.5234 29.4467 18.5234 29.547 18.5458C29.911 18.6353 30.3121 19.0046 30.3121 19.5044Z" fill="#66261D"/>
<path d="M35.7496 19.479C35.7496 20.0199 35.3113 20.46 34.7728 20.46C34.2342 20.46 33.7959 20.0199 33.7959 19.479C33.7959 18.9382 34.2342 18.498 34.7728 18.498C34.8025 18.498 34.8842 18.498 34.9845 18.5204C35.3485 18.6099 35.7496 18.9792 35.7496 19.479Z" fill="#66261D"/>
<path d="M30.0559 19.1942C30.0151 19.1942 29.9742 19.1719 29.9482 19.1308C29.6473 18.5974 28.9231 18.7019 28.7076 18.7466H28.6853C28.6222 18.7653 28.5219 18.7877 28.3882 18.7951C28.1431 18.81 27.7308 18.6944 27.7159 18.6907C27.6528 18.672 27.6119 18.6049 27.6305 18.5415C27.6491 18.4781 27.7159 18.437 27.7791 18.4557C27.8868 18.4855 28.1988 18.5639 28.3696 18.5527C28.4848 18.5452 28.5702 18.5266 28.6333 18.5154H28.6593C28.9156 18.4557 29.7773 18.3363 30.1599 19.0152C30.1933 19.0749 30.1711 19.1495 30.1153 19.183C30.0968 19.1942 30.0745 19.198 30.0559 19.198V19.1942Z" fill="#66261D"/>
<path d="M27.9204 19.0521C27.8536 19.0521 27.8016 18.9999 27.7979 18.9327C27.7979 18.8656 27.8499 18.8097 27.9167 18.8059C28.0764 18.8022 28.2399 18.7835 28.3959 18.75C28.5779 18.7127 28.7599 18.653 28.9307 18.5784C28.9939 18.5523 29.0644 18.5784 29.0904 18.6418C29.1164 18.7052 29.0904 18.7761 29.0273 18.8022C28.8416 18.8843 28.6447 18.9477 28.4441 18.9887C28.2733 19.026 28.0987 19.0446 27.9241 19.0521C27.9241 19.0521 27.9241 19.0521 27.9204 19.0521Z" fill="#66261D"/>
<path d="M34.015 19.1945C33.9965 19.1945 33.9742 19.1908 33.9556 19.1796C33.8962 19.146 33.8776 19.0714 33.911 19.0117C34.2936 18.3366 35.1553 18.456 35.4116 18.5082H35.4376C35.5008 18.5268 35.5825 18.5455 35.7013 18.5529C35.8722 18.5641 36.1879 18.4895 36.2919 18.456C36.355 18.4373 36.4256 18.4746 36.4405 18.5418C36.459 18.6052 36.4219 18.676 36.355 18.691C36.3365 18.6947 35.9279 18.8103 35.6828 18.7954C35.549 18.7879 35.4488 18.7656 35.3856 18.7506H35.3633C35.1479 18.7021 34.4236 18.5977 34.1228 19.1311C34.1005 19.1721 34.0596 19.1945 34.0188 19.1945H34.015Z" fill="#66261D"/>
<path d="M36.1507 19.0521C36.1507 19.0521 36.1507 19.0521 36.147 19.0521C35.9724 19.0484 35.7978 19.026 35.627 18.9887C35.4264 18.9477 35.2333 18.8843 35.0438 18.8022C34.9807 18.7761 34.9547 18.7015 34.9807 18.6418C35.0067 18.5784 35.0773 18.5523 35.1404 18.5784C35.3113 18.653 35.4933 18.7089 35.6753 18.75C35.8313 18.7835 35.9947 18.8022 36.1544 18.8059C36.2213 18.8059 36.2733 18.8656 36.2733 18.9327C36.2733 18.9999 36.2176 19.0521 36.1507 19.0521Z" fill="#66261D"/>
<path d="M27.1962 15.8909C27.1702 15.8909 27.1479 15.8834 27.1256 15.8685C27.0699 15.8312 27.0587 15.7529 27.0959 15.6969C27.2779 15.4396 27.5007 15.2158 27.757 15.033C28.0022 14.8577 28.277 14.7271 28.563 14.6376C28.6262 14.619 28.6967 14.6563 28.7153 14.7197C28.7339 14.7831 28.6967 14.854 28.6336 14.8726C28.3699 14.9509 28.121 15.0703 27.8982 15.2307C27.6642 15.3985 27.4599 15.6 27.2964 15.835C27.2741 15.8685 27.2333 15.8872 27.1962 15.8872V15.8909Z" fill="#8E1600"/>
<path d="M36.7788 15.8894C36.7417 15.8894 36.7045 15.8708 36.6785 15.8372C36.5114 15.6022 36.3108 15.3971 36.0768 15.2329C35.854 15.0726 35.6051 14.9532 35.3414 14.8749C35.2782 14.8562 35.2411 14.7891 35.2597 14.7219C35.2782 14.6548 35.3451 14.6212 35.412 14.6399C35.7017 14.7257 35.9728 14.8599 36.218 15.0353C36.4742 15.218 36.6971 15.4418 36.8791 15.6992C36.9162 15.7551 36.9051 15.8297 36.8494 15.8708C36.8271 15.8857 36.8048 15.8932 36.7788 15.8932V15.8894Z" fill="#8E1600"/>
<path d="M29.0014 19.397C29.1121 19.397 29.2019 19.3068 29.2019 19.1956C29.2019 19.0843 29.1121 18.9941 29.0014 18.9941C28.8906 18.9941 28.8008 19.0843 28.8008 19.1956C28.8008 19.3068 28.8906 19.397 29.0014 19.397Z" fill="white"/>
<path d="M34.4349 19.397C34.5457 19.397 34.6355 19.3068 34.6355 19.1956C34.6355 19.0843 34.5457 18.9941 34.4349 18.9941C34.3242 18.9941 34.2344 19.0843 34.2344 19.1956C34.2344 19.3068 34.3242 19.397 34.4349 19.397Z" fill="white"/>
<path d="M32.4625 22.3613H31.5451C31.1997 22.3613 30.9582 22.6299 30.9768 22.9134C30.9694 23.0066 30.9954 23.1409 31.0771 23.3274C31.3371 23.913 32.0391 24.1853 32.0391 24.1853C32.0391 24.1853 32.6668 23.9093 32.9268 23.3274C32.9825 23.2006 33.0122 23.1036 33.0234 23.0215C33.1051 22.7008 32.8451 22.3613 32.4588 22.3613H32.4625Z" fill="#66261D"/>
<path d="M31.545 22.5561C31.5265 22.5188 31.389 22.53 31.2962 22.6008C31.1996 22.6754 31.1587 22.8134 31.1922 22.8396C31.2256 22.8657 31.3296 22.7873 31.3779 22.75C31.3927 22.7388 31.571 22.6046 31.545 22.5561Z" fill="white"/>
</g>
<defs>
<clipPath id="clip0_523_2386">
<rect width="169" height="52" fill="white"/>
</clipPath>
</defs>
</svg>
