<svg width="1592" height="1948" viewBox="0 0 1592 1948" fill="none" xmlns="http://www.w3.org/2000/svg">
<path opacity="0.6" d="M67.4992 68.5806C109.166 121.581 238.199 224.681 420.999 213.081C649.499 198.581 904.307 88.7521 1051.5 35.5863C1368.5 -78.9138 1486.69 131.476 1430.5 308.08C1371 495.086 957.499 446.58 726.499 393.58C495.499 340.58 331.999 403.586 285.999 550.086C239.999 696.585 447.499 826.08 639.999 756.58C832.499 687.08 1559.69 550.086 1587 840.086C1606.28 1044.82 1471.41 1072.75 1301 1072.75C1131.5 1072.75 739.381 958.932 514.499 913.08C156.5 840.086 2.99924 923.885 3 1118.09C3.00092 1354.09 689.5 1290.59 930.999 1218.58C1125.27 1160.66 1411.88 1155.27 1441 1389.09C1474.5 1658.09 1168.22 1576.5 1016 1550.59C804.5 1514.59 583.597 1442.36 377.499 1476.08C187.999 1507.08 52.5 1721.09 199.5 1831.59C346.5 1942.09 1157 1670.08 1348 1752.58C1458.69 1800.39 1455.5 1944.58 1319 1944.58" stroke="white" stroke-width="5" stroke-dasharray="30 30"/>
</svg>
