<svg width="1621" height="1642" viewBox="0 0 1621 1642" fill="none" xmlns="http://www.w3.org/2000/svg">
<path opacity="0.6" d="M1587 2C1549.5 86 1354.5 281 1138 241.5C921.5 202 90.0002 -82 27.5002 241.5C-34.9998 565 288 528 600 472C912 416 1484.5 260.5 1405.5 507C1326.5 753.5 1137.5 867 970 793C802.5 719 90.5 513.5 137 774.5C183.5 1035.5 220.5 1096 460.5 1082C700.5 1068 1542 813 1610 1060C1705.65 1407.45 900 1401 600 1291.5C300 1182 102 1060.5 16 1286.5C-70 1512.5 304.5 1709.5 600 1614.5C895.5 1519.5 991.5 1431 1131 1431C1242.6 1431 1279.83 1524 1284.5 1570.5" stroke="white" stroke-width="5" stroke-dasharray="30 30"/>
</svg>
