<svg width="271" height="730" viewBox="0 0 271 730" fill="none" xmlns="http://www.w3.org/2000/svg">
<path opacity="0.6" d="M260 0.5C256.167 24.5 234.8 72.5 180 72.5C111.5 72.5 8.5 81 8.5 128.5C8.5 215 260 136.5 269 231C272.728 270.142 264 300.5 172 298C80 295.5 0.5 324 0.5 370.5C0.5 465.5 211 392 229 477.5C238.046 520.47 177.611 539.657 120 543.836C23.5 550.836 -32 627.836 82.5 651.336C197 674.836 225.5 665.5 243 693.5C257 715.9 245.667 725.5 243 729" stroke="white" stroke-dasharray="6.13 6.13"/>
</svg>
