<svg width="279" height="1105" viewBox="0 0 279 1105" fill="none" xmlns="http://www.w3.org/2000/svg">
<path opacity="0.6" d="M12.1211 1C20.125 150.324 253.755 1 273.767 132.205C287.813 224.301 202.727 249.041 110.676 226.548C18.625 204.056 -37.4061 352.131 72.6551 382.745C182.716 413.36 269.264 354.005 273.767 475.839C278.269 597.672 11.6209 503.954 14.1223 602.046C16.6237 700.138 160.203 703.261 219.236 709.509C278.269 715.757 300.281 805.102 250.254 845.088C200.226 885.075 16.122 847.587 2.11555 937.557C-5.19252 984.5 39.0004 1039.48 151.698 1030.65C247.352 1023.15 272.266 1077.09 272.766 1105" stroke="white" stroke-dasharray="6.13 6.13"/>
</svg>
