<svg width="50" height="50" viewBox="0 0 50 50" fill="none" xmlns="http://www.w3.org/2000/svg">
<path d="M25 0.00195312C11.1929 0.00195312 0 11.1948 0 25.002C0 38.8091 11.1929 50.002 25 50.002C38.8071 50.002 50 38.8091 50 25.002C50 11.1948 38.8071 0.00195312 25 0.00195312ZM16.0156 9.93237C16.5307 9.90199 16.9963 10.2099 17.3493 10.7563L20.7672 17.2382C21.1271 18.0063 20.9226 18.8287 20.3857 19.3775L18.8202 20.9431C18.7236 21.0755 18.66 21.2246 18.6585 21.3886C19.2588 23.7126 21.08 25.8562 22.6868 27.3304C24.2936 28.8046 26.0205 30.8005 28.2623 31.2733C28.5394 31.3506 28.8789 31.3783 29.0772 31.194L30.896 29.3416C31.5238 28.8657 32.4321 28.6351 33.1024 29.0242H33.1329L39.3005 32.665C40.2058 33.2324 40.2996 34.3293 39.6514 34.9965L35.4035 39.211C34.7761 39.8543 33.9427 40.0706 33.133 40.0715C29.5518 39.9642 26.1681 38.2066 23.3888 36.4003C18.8267 33.0814 14.642 28.965 12.0148 23.9918C11.0072 21.9064 9.82358 19.2456 9.93654 16.9179C9.94663 16.0422 10.1835 15.1844 10.8002 14.62L15.0483 10.3719C15.3792 10.0903 15.7065 9.95062 16.0156 9.93237Z" fill="white"/>
</svg>
