<svg width="50" height="55" viewBox="0 0 50 55" fill="none" xmlns="http://www.w3.org/2000/svg">
<path fill-rule="evenodd" clip-rule="evenodd" d="M37.7061 1.40295C29.3378 -0.467651 20.6597 -0.467651 12.2914 1.40295L11.3897 1.60244C9.03583 2.12872 6.8739 3.29724 5.1441 4.97821C3.41431 6.65917 2.18437 8.78676 1.59092 11.1246C-0.530306 19.4832 -0.530306 28.2392 1.59092 36.5978C2.15686 38.8275 3.30227 40.8678 4.911 42.5121C6.51974 44.1563 8.53462 45.346 10.7514 45.9604L11.9882 53.3441C12.0277 53.5786 12.1293 53.7982 12.2825 53.98C12.4356 54.1619 12.6348 54.2993 12.8591 54.3781C13.0834 54.4569 13.3248 54.4741 13.558 54.4279C13.7912 54.3817 14.0078 54.2738 14.1852 54.1155L21.4492 47.6175C26.9021 47.9503 32.3747 47.5142 37.7061 46.3222L38.6104 46.1227C40.9643 45.5964 43.1263 44.4279 44.8561 42.7469C46.5859 41.066 47.8158 38.9384 48.4093 36.6005C50.5303 28.2419 50.5303 19.4859 48.4093 11.1273C47.8156 8.78908 46.5853 6.66126 44.855 4.98026C43.1247 3.29927 40.9622 2.13094 38.6078 1.6051L37.7061 1.40295ZM14.5363 10.9092C14.042 10.8372 13.5379 10.9367 13.108 11.1911H13.0707C12.0733 11.7763 11.1743 12.5131 10.4083 13.3802C9.7699 14.1169 9.42412 14.8617 9.33368 15.5799C9.28049 16.0054 9.31773 16.4363 9.44274 16.8433L9.49061 16.8699C10.2088 18.9791 11.145 21.0086 12.2888 22.9183C13.7635 25.6007 15.5783 28.0816 17.6882 30.2993L17.752 30.3898L17.8531 30.4643L17.9143 30.5361L17.9888 30.5999C20.2143 32.7162 22.701 34.5396 25.3884 36.026C28.4605 37.699 30.3251 38.489 31.4449 38.8188V38.8347C31.772 38.9358 32.0699 38.981 32.3705 38.981C33.3241 38.9106 34.2268 38.5229 34.9345 37.8799C35.799 37.1138 36.5304 36.2122 37.0997 35.2094V35.1908C37.6343 34.18 37.4534 33.2278 36.6821 32.5815C35.1327 31.2277 33.4573 30.0253 31.6789 28.9907C30.4873 28.3444 29.2771 28.7354 28.7877 29.3897L27.7424 30.709C27.2051 31.3633 26.2316 31.2728 26.2316 31.2728L26.205 31.2888C18.941 29.4349 17.002 22.0805 17.002 22.0805C17.002 22.0805 16.9115 21.0804 17.5845 20.5697L18.8931 19.5164C19.5208 19.0057 19.957 17.7981 19.2841 16.6065C18.2564 14.8265 17.0563 13.1516 15.7013 11.6061C15.4058 11.2423 14.9913 10.9946 14.531 10.9065L14.5363 10.9092ZM26.8088 7.71207C26.4561 7.71207 26.1178 7.85219 25.8684 8.10159C25.619 8.351 25.4789 8.68927 25.4789 9.04199C25.4789 9.3947 25.619 9.73297 25.8684 9.98238C26.1178 10.2318 26.4561 10.3719 26.8088 10.3719C30.1735 10.3719 32.9663 11.4704 35.1766 13.577C36.3123 14.7287 37.1981 16.0932 37.7779 17.588C38.3604 19.0855 38.6264 20.6841 38.5572 22.2853C38.5499 22.4599 38.577 22.6343 38.6371 22.7985C38.6972 22.9626 38.789 23.1134 38.9073 23.242C39.1462 23.5019 39.4786 23.6562 39.8313 23.6711C40.184 23.6859 40.5282 23.56 40.788 23.321C41.0479 23.0821 41.2023 22.7497 41.2171 22.397C41.2996 20.4274 40.9726 18.462 40.2569 16.6252C39.538 14.7796 38.4481 13.1012 37.0544 11.6938L37.0278 11.6672C34.2855 9.04731 30.8145 7.71207 26.8088 7.71207ZM26.7183 12.0848C26.3656 12.0848 26.0273 12.2249 25.7779 12.4744C25.5285 12.7238 25.3884 13.062 25.3884 13.4147C25.3884 13.7675 25.5285 14.1057 25.7779 14.3551C26.0273 14.6045 26.3656 14.7447 26.7183 14.7447H26.7636C29.1893 14.9176 30.9554 15.7261 32.1923 17.0534C33.461 18.4205 34.118 20.1202 34.0674 22.2214C34.0593 22.5742 34.1917 22.9157 34.4353 23.1708C34.679 23.4259 35.0141 23.5738 35.3668 23.5819C35.7195 23.5901 36.061 23.4577 36.3161 23.2141C36.5713 22.9704 36.7192 22.6353 36.7273 22.2826C36.7911 19.5244 35.9027 17.1438 34.1419 15.2447V15.2394C32.3412 13.3084 29.8702 12.287 26.8965 12.0875L26.8513 12.0822L26.7183 12.0848ZM26.6678 16.54C26.4898 16.5243 26.3105 16.5447 26.1405 16.5998C25.9706 16.6549 25.8135 16.7437 25.6786 16.8609C25.5438 16.9781 25.4339 17.1213 25.3556 17.2819C25.2772 17.4425 25.2321 17.6172 25.2228 17.7956C25.2135 17.974 25.2402 18.1525 25.3014 18.3204C25.3627 18.4882 25.4571 18.642 25.579 18.7726C25.701 18.9032 25.848 19.0078 26.0113 19.0803C26.1746 19.1528 26.3508 19.1917 26.5295 19.1946C27.6413 19.2531 28.3515 19.5882 28.7983 20.0377C29.2478 20.4899 29.583 21.216 29.6441 22.3518C29.6475 22.5302 29.6867 22.7062 29.7595 22.8692C29.8322 23.0322 29.9371 23.1789 30.0677 23.3005C30.1984 23.4221 30.3522 23.5162 30.52 23.5771C30.6878 23.638 30.8661 23.6646 31.0444 23.6551C31.2226 23.6456 31.3971 23.6004 31.5575 23.522C31.7179 23.4437 31.8609 23.3338 31.9779 23.1991C32.095 23.0643 32.1837 22.9073 32.2388 22.7376C32.2939 22.5678 32.3143 22.3886 32.2987 22.2108C32.2135 20.6149 31.7135 19.2052 30.6895 18.1679C29.6601 17.1305 28.2584 16.6252 26.6678 16.54Z" fill="white"/>
</svg>
