<svg width="32" height="32" viewBox="0 0 32 32" fill="none" xmlns="http://www.w3.org/2000/svg">
<g clip-path="url(#clip0_523_2520)">
<path d="M31.506 3.17895C31.1149 2.70093 30.5295 2.4375 29.8574 2.4375C29.4916 2.4375 29.1047 2.51465 28.7067 2.6665L1.61918 13.0066C0.18169 13.5551 -0.0119126 14.3784 0.000538503 14.8205C0.0129896 15.2624 0.252979 16.0734 1.71928 16.5397C1.72807 16.5427 1.73686 16.5451 1.74565 16.5478L5.54446 17.6347L24.0454 8.18284C24.5063 7.947 25.0712 8.13011 25.3068 8.59129C25.4919 8.95359 25.4177 9.37937 25.154 9.65964L25.1547 9.66037L14.8682 20.5903L14.5747 21.7795L18.248 24.7375L23.3383 28.8363C23.3427 28.8397 23.3471 28.8434 23.3518 28.8468C23.9118 29.2814 24.5236 29.5109 25.121 29.5111C26.2885 29.5111 27.218 28.6471 27.4887 27.3102L31.9269 5.39525C32.1049 4.51586 31.9555 3.72851 31.506 3.17895Z" fill="white"/>
<path d="M13.1069 19.9026C13.1443 19.7509 13.2195 19.6064 13.334 19.4846L20.0837 12.3125L7.55859 18.7114L10.4026 26.8449C10.5647 27.3083 10.8059 27.7028 11.1042 28.0117L13.1064 19.9023L13.1069 19.9026Z" fill="white"/>
<path d="M12.8496 28.7646C13.5256 28.759 14.1899 28.4739 14.772 27.938L16.8528 26.022L14.0784 23.7881L12.8496 28.7646Z" fill="white"/>
</g>
<defs>
<clipPath id="clip0_523_2520">
<rect width="32" height="32" fill="white"/>
</clipPath>
</defs>
</svg>
