<svg width="91" height="90" viewBox="0 0 91 90" fill="none" xmlns="http://www.w3.org/2000/svg">
<ellipse cx="45.623" cy="44.9764" rx="44.9767" ry="45" transform="rotate(-90 45.623 44.9764)" fill="white"/>
<g clip-path="url(#clip0_551_2674)">
<path d="M44.1175 21.6105L25.5581 40.1701C24.7218 41.0063 24.7215 42.3619 25.5573 43.1978C26.3932 44.0337 27.7487 44.0333 28.5851 43.197L43.4892 28.293L43.4815 65.9434C43.4812 67.1256 44.4395 68.0838 45.6219 68.0835C46.8042 68.0832 47.7631 67.1242 47.7632 65.9419L47.771 28.2923L62.6669 43.188C63.5027 44.0239 64.8582 44.0236 65.6946 43.1873C66.1127 42.7692 66.322 42.2213 66.3221 41.6733C66.3222 41.1254 66.1133 40.5775 65.6953 40.1597L47.1452 21.6097C46.7439 21.2084 46.1994 20.9828 45.6316 20.983C45.0639 20.9831 44.5191 21.2088 44.1175 21.6105Z" fill="#00B927"/>
</g>
<defs>
<clipPath id="clip0_551_2674">
<rect width="47.1005" height="47.1005" fill="white" transform="matrix(0.000258734 -1 1 -0.000258745 22.0684 68.0898)"/>
</clipPath>
</defs>
</svg>
