<svg width="29" height="32" viewBox="0 0 29 32" fill="none" xmlns="http://www.w3.org/2000/svg">
<path d="M17.6 0H11.2C4.99692 0 0 4.99692 0 11.2V16C0 20.3323 2.48615 24.2708 6.4 26.1169V31.4831C6.4 31.7538 6.64615 32 6.96615 32C7.08923 32 7.23692 31.9508 7.33538 31.8523L11.9631 27.2H17.6C23.8031 27.2 28.8 22.2031 28.8 16V11.2C28.8 4.99692 23.8031 0 17.6 0ZM21.8092 20.9969L20.2092 22.5969C18.4862 24.2708 14.0554 22.3508 10.1415 18.3631C6.22769 14.3754 4.48 9.87077 6.12923 8.19692L7.72923 6.59692C8.36923 6.00615 9.37846 6.03077 10.0185 6.64615L12.3323 9.05846C12.9231 9.69846 12.9231 10.6585 12.2831 11.2985C12.1108 11.4708 11.9138 11.5692 11.6923 11.6677C10.88 11.9138 10.4615 12.7015 10.6585 13.5138C11.0523 15.2862 13.2923 17.5015 14.9908 17.9446C15.7785 18.1415 16.5908 17.6985 16.8615 16.9354C17.1323 16.1477 18.0185 15.7046 18.8554 15.9754C19.1015 16.0492 19.2985 16.2215 19.4954 16.3692L21.8092 18.7815C22.4 19.3723 22.4 20.3569 21.8092 20.9969ZM15.8277 7.60615C15.6554 7.60615 15.5077 7.60615 15.36 7.65538C15.0892 7.70462 14.7938 7.48308 14.7692 7.16308C14.7446 6.84308 14.9415 6.59692 15.2369 6.57231C15.4338 6.52308 15.6308 6.52308 15.8277 6.52308C18.7815 6.52308 21.1446 8.93538 21.1938 11.84C21.1938 12.0369 21.1938 12.2338 21.1446 12.4308C21.0954 12.7015 20.8738 12.9477 20.5538 12.8985C20.2338 12.8492 20.0369 12.6277 20.0862 12.3077C20.0862 12.1354 20.1354 11.9877 20.1354 11.84C20.1108 9.52615 18.1908 7.60615 15.8277 7.60615ZM19.0277 11.8892C18.9785 12.16 18.7569 12.4062 18.4369 12.3569C18.1908 12.3077 17.9692 12.1108 17.9692 11.8892C17.9692 10.7323 17.0092 9.77231 15.8523 9.77231C15.5815 9.82154 15.2862 9.57539 15.2615 9.28C15.2123 9.00923 15.4585 8.71385 15.7292 8.68923H15.8031C17.6492 8.68923 19.0277 10.1169 19.0277 11.8892ZM23.1138 13.5877C23.0646 13.8585 22.7938 14.0554 22.5231 14.0308C22.2523 14.0062 22.0554 13.7108 22.08 13.44C22.08 13.3908 22.08 13.3908 22.08 13.3662C22.2031 12.8985 22.2523 12.4062 22.2523 11.8892C22.2523 8.36923 19.3723 5.48923 15.8523 5.48923C15.68 5.48923 15.5323 5.48923 15.3846 5.48923C15.1138 5.53846 14.8185 5.29231 14.8185 4.99692C14.7692 4.72615 15.0154 4.43077 15.2862 4.43077C15.4831 4.43077 15.68 4.38154 15.8523 4.38154C19.9631 4.38154 23.3354 7.72923 23.3354 11.8646C23.3108 12.4308 23.2369 13.0462 23.1138 13.5877Z" fill="white"/>
</svg>
